<svg width="385" height="85" viewBox="0 0 385 85" fill="none" xmlns="http://www.w3.org/2000/svg">
<path d="M274.629 79.7117C274.629 81.2489 274.127 82.0105 273.123 82.0105C272.919 82.0105 272.716 81.9823 272.499 81.9259C272.065 81.8836 271.807 81.8695 271.698 81.8695C271.087 81.8695 270.789 82.1939 270.789 82.8567C270.789 83.5901 271.196 83.9568 272.024 83.9568H272.2C272.295 83.9427 272.39 83.9286 272.472 83.9286C274.236 83.7875 276.054 83.717 277.9 83.717C279.121 83.717 280.559 83.7452 282.228 83.7875C283.898 83.8298 284.671 83.8581 284.522 83.8581C285.146 83.8581 285.58 83.8721 285.825 83.8862C286.299 83.9286 286.639 83.9568 286.856 83.9568C287.765 83.9568 288.213 83.4772 288.213 82.5182C288.213 82.2362 288.199 81.8131 288.172 81.2489C288.145 80.6848 288.131 80.2617 288.131 79.9796C288.131 79.613 288.145 79.0488 288.172 78.2872C288.199 77.5257 288.213 76.9756 288.213 76.609C288.213 75.664 287.846 75.1986 287.114 75.1986C286.422 75.1986 286.069 75.664 286.069 76.5807C286.069 76.891 286.082 77.3423 286.109 77.9488C286.137 78.5552 286.15 79.0065 286.15 79.3168C286.15 80.304 285.933 80.9669 285.499 81.3195C285.065 81.672 284.264 81.8554 283.111 81.8554H279.094C278.293 81.8554 277.777 81.7849 277.56 81.6438C277.262 81.4464 277.113 80.9246 277.085 80.1066C277.085 79.8809 277.072 79.4296 277.058 78.7526C277.045 78.2026 277.031 77.7654 277.031 77.4269V75.523C277.031 74.846 277.099 74.4088 277.221 74.2114C277.343 74.0139 277.696 73.9011 278.266 73.9011H279.596C280.722 73.9011 281.279 74.3383 281.279 75.2127C281.279 75.4384 281.251 75.7627 281.197 76.1999C281.143 76.623 281.129 76.9615 281.129 77.1731C281.129 78.0334 281.469 78.4565 282.161 78.4565C282.866 78.4565 283.219 78.0898 283.219 77.3564C283.219 77.0885 283.192 76.7359 283.124 76.2846C283.043 75.7345 283.002 75.382 282.975 75.2127C282.893 74.1691 282.853 73.4498 282.853 73.0408C282.853 72.3215 282.907 71.5035 283.016 70.5586C283.138 69.4586 283.205 68.8239 283.205 68.6547C283.205 67.7803 282.853 67.3431 282.161 67.3431C281.469 67.3431 281.116 67.7521 281.116 68.5701C281.116 68.8803 281.143 69.2188 281.184 69.6137C281.238 69.9945 281.265 70.3189 281.265 70.5586C281.265 71.433 280.654 71.8702 279.433 71.8702H278.239C277.913 71.8702 277.683 71.8561 277.547 71.8138C277.194 71.6869 277.018 71.2215 277.018 70.4035V70.0086V69.4022V68.7252V67.3431C277.018 66.3276 277.438 65.7071 278.28 65.4814C278.537 65.425 279.352 65.3827 280.749 65.3827C282.866 65.3827 284.183 65.4955 284.685 65.7212C285.363 66.0315 285.716 67.0469 285.716 68.7675V70.3612C285.716 71.4471 286.069 71.9972 286.774 71.9972C287.48 71.9972 287.833 71.6023 287.833 70.8266C287.833 70.5445 287.806 70.1073 287.738 69.515C287.711 69.2329 287.684 68.7252 287.684 68.02C287.684 67.47 287.711 66.8636 287.751 66.2148C287.806 65.3404 287.833 64.8186 287.833 64.6493C287.833 63.7044 287.317 63.239 286.299 63.239C286.042 63.239 285.757 63.2531 285.445 63.2672C284.562 63.3236 284.047 63.3659 283.911 63.3659L276.828 63.5775H276.529C276.719 63.5775 275.348 63.4788 272.417 63.2672C272.146 63.2531 271.997 63.239 271.983 63.239C271.155 63.239 270.748 63.5916 270.748 64.3109C270.748 64.5929 270.843 64.8327 271.02 65.0301C271.196 65.2276 271.413 65.3263 271.671 65.3263C271.888 65.3263 272.146 65.2981 272.472 65.2417C272.607 65.1994 272.811 65.1853 273.096 65.1853C274.1 65.1853 274.602 65.9468 274.602 67.4559V79.7117H274.629ZM248.005 67.4136C248.005 65.9045 248.507 65.1571 249.511 65.1571C249.783 65.1571 250 65.1712 250.135 65.2135C250.475 65.2699 250.732 65.2981 250.936 65.2981C251.194 65.2981 251.411 65.1994 251.587 65.0019C251.764 64.8045 251.859 64.5647 251.859 64.2827C251.859 63.5634 251.411 63.2108 250.529 63.2108C250.434 63.2108 250.298 63.2249 250.149 63.239L248.792 63.4224C248.046 63.5211 247.421 63.5775 246.906 63.5775C246.499 63.5775 245.847 63.5211 244.992 63.4224L243.432 63.239C243.255 63.2249 243.106 63.2108 242.984 63.2108C242.143 63.2108 241.722 63.5634 241.722 64.2827C241.722 64.5647 241.817 64.8045 241.993 65.0019C242.17 65.1994 242.387 65.2981 242.645 65.2981C242.862 65.2981 243.133 65.2699 243.445 65.2135C243.581 65.1712 243.785 65.1571 244.07 65.1571C245.074 65.1571 245.576 65.9186 245.576 67.4277V79.7117C245.576 81.2489 245.074 82.0105 244.07 82.0105C243.907 82.0105 243.676 81.9823 243.364 81.9259C243.052 81.8695 242.808 81.8272 242.658 81.8272C242.048 81.8272 241.749 82.1515 241.749 82.8144C241.749 83.5478 242.156 83.9145 242.984 83.9145C243.201 83.9145 243.5 83.9004 243.88 83.8721C244.26 83.8439 244.531 83.8298 244.694 83.8298C245.793 83.7452 246.58 83.7029 247.055 83.7029H251.777H253.989C254.98 83.7452 255.699 83.7734 256.174 83.8157C256.88 83.8862 257.341 83.9286 257.531 83.9286C258.535 83.9286 259.037 83.4631 259.037 82.5464C259.037 82.2644 259.01 81.8413 258.97 81.2771C258.915 80.713 258.902 80.2899 258.902 80.0078C258.902 79.5142 258.929 79.0488 258.983 78.5975L259.187 77.032C259.214 76.891 259.214 76.6936 259.214 76.4538C259.214 75.6358 258.807 75.2268 257.979 75.2268C257.287 75.2268 256.948 75.664 256.948 76.5525C256.948 76.7077 256.961 77.1872 257.002 77.977C257.015 78.386 257.029 78.7385 257.029 79.0347C257.029 80.163 256.798 80.9104 256.35 81.2912C255.903 81.6579 254.993 81.8554 253.636 81.8554H251.045C250.04 81.8554 249.403 81.8413 249.118 81.799C248.833 81.7567 248.602 81.6438 248.426 81.4605C248.195 81.2348 248.073 80.5297 248.073 79.3309V67.4136H248.005ZM223.796 56.8784C223.525 56.8784 223.226 56.9771 222.914 57.1887L219.196 59.6145C218.789 59.8824 218.572 60.1504 218.572 60.4183C218.572 60.912 218.775 61.1517 219.196 61.1517C219.209 61.1517 219.345 61.1235 219.576 61.053L223.796 59.1491C224.488 58.8388 224.827 58.4298 224.827 57.9221C224.827 57.231 224.488 56.8784 223.796 56.8784ZM216.699 64.3532C215.437 65.4814 214.813 66.9482 214.813 68.7393C214.813 69.7829 215.057 70.7138 215.559 71.5458C216.061 72.3779 216.74 72.9844 217.581 73.3793C218.504 73.7883 219.807 74.1409 221.476 74.4511L223.158 74.7614C225.52 75.1845 226.7 76.3833 226.7 78.3154C226.7 79.5847 226.252 80.5861 225.37 81.3195C224.488 82.0528 223.308 82.4195 221.815 82.4195C220.214 82.4195 218.938 81.9682 217.988 81.0656C217.052 80.163 216.577 78.936 216.577 77.3846V76.6795V76.1294C216.577 75.1986 216.197 74.7332 215.423 74.7332C214.677 74.7332 214.297 75.1986 214.297 76.1153C214.297 76.5243 214.351 77.1308 214.446 77.9488C214.541 78.7668 214.596 79.3732 214.596 79.7822C214.596 80.0079 214.569 80.5156 214.514 81.3195L214.392 82.9131C214.338 82.9695 214.297 83.0542 214.297 83.1529C214.297 84.0132 214.691 84.4363 215.478 84.4363C216.197 84.4363 216.563 84.0696 216.563 83.3221C216.563 83.2234 216.523 83.0119 216.441 82.6875V82.5041V82.2362C217.907 83.7029 219.766 84.4363 222.005 84.4363C224.108 84.4363 225.818 83.8298 227.134 82.6311C228.464 81.4323 229.116 79.8668 229.116 77.9488C229.116 76.1153 228.464 74.6909 227.175 73.6896C226.307 73.0126 224.705 72.4908 222.371 72.0959C220.797 71.8279 219.698 71.5318 219.074 71.2074C217.947 70.6009 217.391 69.6419 217.391 68.3585C217.391 67.2585 217.771 66.3841 218.531 65.7212C219.291 65.0724 220.309 64.734 221.584 64.734C222.982 64.734 224.081 65.0865 224.868 65.7776C225.669 66.4687 226.062 67.4277 226.062 68.6406C226.062 68.8098 226.049 69.0214 226.035 69.3175L225.981 70.1355V70.2907C225.981 71.1086 226.361 71.5177 227.134 71.5177C227.867 71.5177 228.22 71.024 228.22 70.0509C228.22 69.8676 228.206 69.7265 228.193 69.6278L228.098 68.4008C228.057 67.8508 228.043 67.5264 228.043 67.4136C228.043 66.6238 228.071 65.9327 228.138 65.3545C228.193 64.7763 228.233 64.4801 228.233 64.4378V64.2544C228.233 63.38 227.894 62.9428 227.229 62.9428C226.619 62.9428 226.32 63.3518 226.32 64.1557V64.5929C225.099 63.3095 223.525 62.6608 221.598 62.6608C219.589 62.6749 217.947 63.239 216.699 64.3532ZM195.353 79.7117C195.353 81.2489 194.851 82.0105 193.847 82.0105C193.644 82.0105 193.44 81.9823 193.223 81.9259C192.789 81.8836 192.531 81.8695 192.422 81.8695C191.812 81.8695 191.513 82.1939 191.513 82.8567C191.513 83.5901 191.934 83.9568 192.775 83.9568H193.006C193.101 83.9427 193.169 83.9286 193.209 83.9286L194.566 83.717C195.218 83.6183 195.95 83.5619 196.778 83.5619C197.348 83.5619 197.891 83.6042 198.393 83.6888L199.927 83.9286C199.981 83.9286 200.049 83.9427 200.13 83.9568H200.334C201.202 83.9568 201.636 83.5901 201.636 82.8567C201.636 82.208 201.324 81.8695 200.727 81.8695C200.564 81.8695 200.306 81.8977 199.927 81.9682C199.669 82.0105 199.465 82.0246 199.302 82.0246C198.298 82.0246 197.796 81.263 197.796 79.7258V67.4418C197.796 65.9327 198.298 65.1712 199.302 65.1712C199.574 65.1712 199.791 65.1853 199.927 65.2276C200.266 65.284 200.524 65.3122 200.727 65.3122C200.985 65.3122 201.202 65.2135 201.379 65.016C201.555 64.8186 201.65 64.5788 201.65 64.2968C201.65 63.5775 201.216 63.2249 200.347 63.2249C200.225 63.2249 200.089 63.239 199.94 63.2531L198.61 63.4365C197.877 63.5352 197.212 63.5916 196.602 63.5916C195.978 63.5916 195.367 63.5493 194.77 63.4647L193.209 63.2531C193.047 63.239 192.911 63.2249 192.802 63.2249C191.934 63.2249 191.5 63.5775 191.5 64.2968C191.5 64.5788 191.595 64.8186 191.757 65.016C191.934 65.2135 192.151 65.3122 192.409 65.3122C192.626 65.3122 192.884 65.284 193.209 65.2276C193.345 65.1853 193.549 65.1712 193.834 65.1712C194.838 65.1712 195.34 65.9327 195.34 67.4418V79.7117H195.353ZM159.488 67.0892C159.434 66.7648 159.393 66.4828 159.393 66.2289C159.393 65.552 159.732 65.2135 160.424 65.2135C160.601 65.2135 160.872 65.2276 161.238 65.2699C161.605 65.3122 161.876 65.3263 162.053 65.3263C162.921 65.3263 163.355 64.9596 163.355 64.2262C163.355 63.5493 163.003 63.2108 162.297 63.2108C162.025 63.2108 161.741 63.2249 161.442 63.2672C159.746 63.4788 158.674 63.5775 158.199 63.5775C157.195 63.5775 156.163 63.4788 155.105 63.3095C154.752 63.2531 154.44 63.2108 154.155 63.2108C153.463 63.2108 153.124 63.5775 153.124 64.2968C153.124 64.9878 153.436 65.3263 154.073 65.3263L154.725 65.2417H154.928C155.498 65.2417 155.919 65.3827 156.177 65.6507C156.448 65.9186 156.665 66.4546 156.842 67.2302L160.356 82.49C160.614 83.6183 161.198 84.1824 162.12 84.1824C163.03 84.1824 163.586 83.6324 163.803 82.5323L167.074 65.8904L170.045 82.0951C170.303 83.4914 170.941 84.1824 171.959 84.1824C172.922 84.1824 173.533 83.6183 173.791 82.49L177.088 67.879C177.346 66.7366 177.563 66.0033 177.753 65.6648C177.943 65.3404 178.242 65.1712 178.649 65.1712C178.771 65.1712 178.947 65.1994 179.178 65.2417C179.409 65.2981 179.585 65.3122 179.707 65.3122C180.413 65.3122 180.766 64.9737 180.766 64.2968C180.766 63.5634 180.399 63.1967 179.68 63.1967C179.287 63.1967 178.703 63.2531 177.93 63.38C177.156 63.507 176.573 63.5634 176.179 63.5634C175.663 63.5634 174.605 63.4647 172.99 63.2531C172.651 63.2108 172.325 63.1967 172.013 63.1967C171.185 63.1967 170.778 63.5493 170.778 64.2403C170.778 64.9596 171.199 65.3122 172.04 65.3122C172.217 65.3122 172.474 65.2981 172.8 65.2558C173.139 65.2135 173.397 65.1994 173.574 65.1994C174.401 65.1994 174.808 65.6225 174.808 66.4546C174.808 66.92 174.713 67.611 174.537 68.5136L172.027 81.2348L169.082 64.8327C168.865 63.6057 168.2 62.9992 167.074 62.9992C166.015 62.9992 165.35 63.6903 165.092 65.0865L162.053 81.0233L159.637 68.0623L159.488 67.0892ZM138.414 67.1033C139.431 68.5842 139.947 70.6997 139.947 73.4357C139.947 76.1576 139.404 78.3013 138.346 79.895C137.274 81.4746 135.822 82.2644 134.003 82.2644C132.131 82.2644 130.679 81.5028 129.634 79.9796C128.589 78.4565 128.073 76.3128 128.073 73.5344C128.073 70.7984 128.589 68.6688 129.634 67.1597C130.679 65.6507 132.144 64.8891 134.031 64.8891C135.917 64.875 137.382 65.6225 138.414 67.1033ZM140.219 81.39C141.766 79.345 142.539 76.5948 142.539 73.1113C142.539 69.9099 141.779 67.3572 140.259 65.4814C138.739 63.6057 136.69 62.6608 134.112 62.6608C131.425 62.6608 129.308 63.6339 127.775 65.5519C126.241 67.4841 125.468 70.1496 125.468 73.5344C125.468 76.891 126.228 79.5424 127.748 81.5028C129.268 83.4631 131.344 84.4504 133.963 84.4504C136.595 84.4645 138.685 83.435 140.219 81.39ZM106.266 65.1853C109.455 65.1853 111.043 66.4828 111.043 69.0778C111.043 71.0381 110.175 72.2369 108.424 72.66C107.501 72.8857 106.334 72.9985 104.95 72.9985H103.24C102.494 72.9139 102.114 72.6036 102.114 72.0536V67.5123C102.114 66.5956 102.182 66.0315 102.318 65.834C102.589 65.3968 103.905 65.1853 106.266 65.1853ZM98.138 82.0105C97.8666 82.0105 97.6631 81.9964 97.5138 81.9541C97.2017 81.8977 96.9303 81.8554 96.7132 81.8554C96.4554 81.8554 96.2382 81.9541 96.0618 82.1515C95.8854 82.349 95.804 82.5887 95.804 82.8708C95.804 83.5901 96.2518 83.9427 97.1339 83.9427H97.3374C97.4188 83.9286 97.4731 83.9145 97.5138 83.9145L99.2236 83.6747C99.6579 83.6183 100.214 83.576 100.906 83.576C101.734 83.576 102.345 83.6042 102.765 83.6747L104.245 83.8862L104.652 83.9427C105.52 83.9427 105.954 83.576 105.954 82.8426C105.954 82.1939 105.656 81.8554 105.045 81.8554C104.95 81.8554 104.679 81.8836 104.245 81.9118C104.041 81.9682 103.837 81.9964 103.62 81.9964C102.915 81.9964 102.48 81.7284 102.331 81.1784C102.182 80.6284 102.114 79.0629 102.114 76.482V75.8756C102.114 75.4666 102.155 75.2127 102.25 75.0999C102.345 74.9871 102.535 74.9307 102.86 74.9307H102.915H104.068H106.158C108.56 74.9307 110.392 74.4229 111.654 73.3934C112.916 72.3638 113.554 70.8971 113.554 68.9791C113.554 67.5828 113.187 66.3981 112.454 65.425C111.722 64.4378 110.704 63.8172 109.401 63.5211C108.492 63.3236 107.42 63.2108 106.158 63.2108C105.33 63.2108 104.122 63.2813 102.508 63.4224C101.815 63.4788 101.232 63.507 100.743 63.507C100.038 63.507 99.4407 63.4788 98.9794 63.4224L97.541 63.239C97.3781 63.2249 97.2424 63.2108 97.0931 63.2108C96.2246 63.2108 95.804 63.5634 95.804 64.2827C95.804 64.9596 96.1161 65.2981 96.7403 65.2981C96.8896 65.2981 97.161 65.2699 97.5274 65.2276C97.7852 65.1994 97.9888 65.1853 98.138 65.1853C99.1286 65.1853 99.6307 65.9327 99.6307 67.4418V79.7117C99.6307 81.2489 99.1286 82.0105 98.138 82.0105Z" fill="#262626"/>
<path d="M10.7881 25.5691H29.6639V16.6418H10.7881V10.4504H31.6316V0.817871H0V41.6892H31.903V32.0567H10.7881V25.5691Z" fill="#262626"/>
<path d="M72.7485 25.5691H91.6244V16.6418H72.7485V10.4504H93.592V0.817871H61.9604V31.7605H43.8716V0.817871H32.9749V41.6892H61.9604H62.9239H93.877V32.0567H72.7485V25.5691Z" fill="#262626"/>
<path d="M367.285 0.520996H356.782L341.611 37.8101V0.817164H330.66V41.6885H340.037H341.611H351.503L354.312 34.3971H369.483L372.347 41.6885H384.03L367.285 0.520996ZM357.515 25.5684L361.952 13.9473L366.335 25.5684H357.515Z" fill="#262626"/>
<path d="M318.298 22.4232L302.122 0.816931H293.247H291.958H281.957L275.104 24.4682L267.519 0.704102H258.142L250.556 24.4682L243.703 0.816931H232.182L245.332 41.9845H254.817L262.688 18.4461L270.613 41.9845H280.098L291.958 4.86457V41.6883H302.746V19.2641L319.546 41.6883H329.086V0.816931H318.298V22.4232Z" fill="#262626"/>
<path d="M215.885 0C206.576 0 199.072 5.59901 196.059 13.4969C195.829 10.0698 194.675 7.33372 192.626 5.26054C189.98 2.45398 185.828 0.817994 179.816 0.817994H162.066H161.225H132.294H127.572H119.375L105.832 17.4035V0.817994H94.9358V41.6894H105.832V31.126L109.822 26.5142L119.715 41.6894H132.81L117.421 18.3907L127.585 6.38879V10.7467H139.377V41.6894H150.274V10.7467H161.225V41.6894H172.122V29.3067H176.898L184.823 41.6894H197.403L188.026 27.445C190.943 26.1475 193.264 24.1449 194.662 21.4088C194.675 33.1287 203.658 42.5074 215.79 42.5074C227.922 42.5074 237.027 32.9876 237.027 21.2537V21.1408C237.013 9.4069 228.03 0 215.885 0ZM185.163 15.5842C185.163 18.56 183.032 20.4357 179.328 20.4357H172.135V10.6339H179.273C182.924 10.6339 185.176 12.2699 185.176 15.4854V15.5842H185.163ZM225.886 21.3665C225.886 27.2617 221.897 32.2825 215.885 32.2825C209.928 32.2825 205.83 27.1489 205.83 21.2537V21.1408C205.83 15.2457 209.819 10.2249 215.776 10.2249C221.788 10.2249 225.886 15.3585 225.886 21.2537V21.3665Z" fill="#262626"/>
</svg>
