<?xml version="1.0" encoding="iso-8859-1"?>
<!-- Generator: Adobe Illustrator 16.0.3, SVG Export Plug-In . SVG Version: 6.00 Build 0)  -->
<!DOCTYPE svg PUBLIC "-//W3C//DTD SVG 1.1//EN" "http://www.w3.org/Graphics/SVG/1.1/DTD/svg11.dtd">
<svg version="1.1" id="Layer_1" xmlns="http://www.w3.org/2000/svg" xmlns:xlink="http://www.w3.org/1999/xlink" x="0px" y="0px"
	 width="116px" height="36px" viewBox="0 0 116 36" style="enable-background:new 0 0 116 36;" xml:space="preserve">
<g>
	<path style="fill:#262626;" d="M42.12,12.103c0.002-0.041,0.004-0.082,0.007-0.124C42.12,12.021,42.116,12.062,42.12,12.103z"/>
	<path style="fill:#262626;" d="M58.943,22.374c0.1,0.049,0.201,0.097,0.301,0.145l-0.4-0.249
		C58.863,22.312,58.901,22.354,58.943,22.374z"/>
	<polygon style="fill:#262626;" points="59.25,22.523 59.249,22.521 59.244,22.519 	"/>
	<rect x="48.758" y="22.441" style="fill:#262626;" width="0" height="0.034"/>
	<rect x="49.045" y="22.242" style="fill:#262626;" width="0" height="0.089"/>
	<rect x="50.333" y="21.524" style="fill:#262626;" width="0" height="0.008"/>
	<rect x="48.036" y="22.831" style="fill:#262626;" width="0" height="0.107"/>
	<polygon style="fill:#262626;" points="49.271,22.154 49.398,22.081 49.398,22.081 	"/>
	<polygon style="fill:#262626;" points="49.544,21.972 49.544,21.973 49.557,21.965 	"/>
	<polygon style="fill:#262626;" points="48.392,22.653 48.449,22.618 48.449,22.618 	"/>
	<polygon style="fill:#262626;" points="47.98,22.895 47.98,22.895 47.999,22.883 	"/>
	<polygon style="fill:#262626;" points="47.774,23.018 47.824,22.987 47.824,22.987 	"/>
	<polygon style="fill:#262626;" points="48.771,22.45 48.771,22.45 48.827,22.418 	"/>
	<polygon style="fill:#262626;" points="48.495,22.613 48.61,22.545 48.61,22.545 	"/>
	<polygon style="fill:#262626;" points="49.141,22.238 49.085,22.273 49.085,22.273 	"/>
	<polygon style="fill:#262626;" points="50.333,21.525 50.46,21.451 50.46,21.451 	"/>
	<polygon style="fill:#262626;" points="47.989,22.911 47.989,22.911 47.949,22.936 	"/>
	<polygon style="fill:#262626;" points="49.396,22.077 49.401,22.073 49.401,22.073 	"/>
	<rect x="49.9" y="21.743" style="fill:#262626;" width="0" height="0.079"/>
	<polygon style="fill:#262626;" points="49.866,21.802 49.866,21.802 49.811,21.835 	"/>
	<rect x="50.188" y="21.602" style="fill:#262626;" width="0.001" height="0.023"/>
	<polygon style="fill:#262626;" points="50.181,21.616 50.067,21.684 50.067,21.684 	"/>
	<polygon style="fill:#262626;" points="47.156,23.402 47.206,23.373 47.206,23.373 	"/>
	<polygon style="fill:#262626;" points="47.205,23.37 47.285,23.322 47.285,23.322 	"/>
	<polygon style="fill:#262626;" points="47.736,23.061 47.685,23.091 47.685,23.091 	"/>
	<g>
		<path style="fill:#262626;" d="M61.021,9.835c0.031,0.03,0.067,0.049,0.104,0.058c0.088,0.023,0.186-0.005,0.251-0.081
			c0.092-0.111,0.083-0.277-0.02-0.374C61.08,9.18,60.925,8.869,60.854,8.54l0.98,0.29c0.004,0.002,0.005,0.002,0.007,0.003
			c0.112,0.029,0.228-0.041,0.259-0.16c0.035-0.119-0.032-0.245-0.146-0.278l-1.152-0.342c-0.001-0.123,0.007-0.247,0.021-0.369
			l1.541,0.524c0.004,0.002,0.011,0.004,0.015,0.005c0.109,0.029,0.22-0.036,0.256-0.15c0.038-0.12-0.023-0.246-0.136-0.285
			l-1.592-0.543c0.031-0.123,0.062-0.244,0.101-0.355l1.651,0.554c0.005,0.003,0.01,0.004,0.012,0.005
			c0.111,0.029,0.222-0.038,0.259-0.151c0.038-0.12-0.025-0.247-0.137-0.284l-1.63-0.548c0.117-0.281,0.219-0.462,0.221-0.47
			c0.073-0.123,0.038-0.286-0.083-0.359c-0.117-0.075-0.271-0.033-0.344,0.091C60.895,5.826,59.451,8.371,61.021,9.835z"/>
		<path style="fill:#262626;" d="M61.671,15.391c0.007-0.001,0.01-0.001,0.012-0.003c0.335-0.276,0.668-0.556,1.008-0.837
			c-0.108-0.132-0.212-0.261-0.32-0.396c-0.058,0.047-0.111,0.093-0.171,0.139c-0.086-0.108-0.175-0.214-0.26-0.32
			c-0.344-0.424-0.686-0.846-1.028-1.269c-0.088-0.111-0.206-0.126-0.343-0.046c-0.062-0.077-0.126-0.156-0.19-0.233
			c-0.063-0.079-0.127-0.158-0.196-0.242c-0.104,0.086-0.207,0.172-0.311,0.258c0.131,0.161,0.258,0.319,0.382,0.475
			c-0.11,0.142-0.108,0.242,0.004,0.382c0.061,0.07,0.117,0.143,0.17,0.209c-0.079,0.042-0.16,0.076-0.23,0.127
			c-0.269,0.194-0.353,0.565-0.192,0.857c0.02,0.035,0.017,0.058,0,0.091c-0.158,0.31-0.211,0.642-0.139,0.982
			c0.127,0.597,0.486,0.988,1.06,1.177c0.014,0.003,0.029,0.01,0.042,0.025c-0.104,0.013-0.207,0.028-0.31,0.043
			c-0.215,0.029-0.43,0.059-0.645,0.09c-0.139,0.019-0.222,0.136-0.205,0.277c0.011,0.082,0.022,0.165,0.034,0.245
			c0.017,0.127,0.092,0.202,0.216,0.218c0.013,0.002,0.025,0.011,0.035,0.015c1.073-0.149,2.148-0.299,3.219-0.45
			c0.011-0.008,0.022-0.02,0.036-0.024c0.107-0.048,0.16-0.146,0.146-0.264c-0.012-0.086-0.023-0.171-0.036-0.256
			c-0.02-0.135-0.134-0.226-0.266-0.208c-0.343,0.047-0.684,0.097-1.026,0.143c-0.021,0.004-0.039,0.006-0.062-0.001
			c0.008-0.006,0.014-0.012,0.021-0.015c0.245-0.155,0.435-0.362,0.566-0.624c0.01-0.018,0.037-0.033,0.057-0.036
			c0.206-0.031,0.412-0.059,0.619-0.086c0.019-0.003,0.038-0.006,0.061-0.009c-0.017-0.118-0.034-0.234-0.048-0.352
			c-0.594,0.083-1.19,0.165-1.789,0.25c0.015,0.114,0.032,0.23,0.047,0.351c0.076-0.01,0.149-0.021,0.225-0.031
			c-0.089,0.078-0.193,0.125-0.304,0.148c-0.474,0.103-0.916-0.139-1.086-0.592c-0.088-0.244-0.077-0.486,0.032-0.721
			c0.008-0.016,0.03-0.033,0.047-0.033c0.293,0.005,0.502-0.126,0.639-0.386c0.002,0,0.003,0,0.011-0.003
			c0.107,0.131,0.214,0.263,0.325,0.401c-0.056,0.045-0.11,0.093-0.167,0.143C61.462,15.136,61.566,15.263,61.671,15.391z"/>
		<path style="fill:#262626;" d="M59.295,13.915c0.109-0.138,0.219-0.276,0.326-0.414c0.009-0.013,0.013-0.036,0.008-0.049
			c-0.061-0.164-0.125-0.329-0.188-0.493c-0.008-0.012-0.023-0.024-0.037-0.026c-0.17-0.028-0.34-0.053-0.509-0.081
			c-0.024-0.004-0.04,0.002-0.055,0.021c-0.105,0.136-0.21,0.271-0.318,0.405c-0.013,0.019-0.014,0.034-0.008,0.053
			c0.031,0.081,0.063,0.162,0.094,0.244l0,0c0.032,0.082,0.063,0.163,0.097,0.243c0.005,0.013,0.023,0.03,0.038,0.031
			c0.172,0.03,0.342,0.055,0.513,0.08C59.268,13.93,59.287,13.924,59.295,13.915z M59.142,13.574c-0.1,0.038-0.21-0.012-0.249-0.112
			c-0.039-0.1,0.008-0.214,0.108-0.254c0.1-0.038,0.211,0.011,0.249,0.113C59.289,13.419,59.239,13.534,59.142,13.574z"/>
		<path style="fill:#262626;" d="M59.402,8.771c-0.044,0.007-0.063,0.035-0.08,0.069c-0.116,0.239-0.233,0.478-0.351,0.717
			c-0.516,1.054-1.033,2.108-1.549,3.162c-0.008,0.016-0.015,0.034-0.022,0.053c0.101,0.053,0.198,0.103,0.298,0.152
			c0.043,0.022,0.14-0.016,0.161-0.062c0.19-0.384,0.378-0.771,0.567-1.156c0.043-0.084,0.079-0.094,0.16-0.052
			c0.064,0.034,0.13,0.065,0.199,0.1c0.048-0.1,0.097-0.197,0.145-0.295c0.367-0.75,0.733-1.501,1.102-2.25
			c0.024-0.044,0.029-0.083-0.002-0.125c-0.008-0.012-0.006-0.037-0.003-0.056c0.048-0.278,0.097-0.554,0.146-0.831
			c0.004-0.024,0.008-0.051,0.004-0.074c-0.004-0.06-0.045-0.083-0.095-0.046c-0.034,0.025-0.063,0.056-0.091,0.087
			c-0.174,0.189-0.347,0.382-0.52,0.57C59.455,8.752,59.426,8.768,59.402,8.771z M60.034,8.283c0.004,0.001,0.008,0.004,0.01,0.006
			c-0.045,0.239-0.091,0.481-0.139,0.729c-0.125-0.064-0.241-0.126-0.361-0.188C59.71,8.644,59.873,8.463,60.034,8.283z"/>
		<path style="fill:#262626;" d="M60.198,11.916c0.108,0.016,0.231-0.041,0.286-0.155c0.089-0.191,0.182-0.381,0.273-0.572
			C60.849,11,60.94,10.808,61.03,10.62c0.019-0.04,0.031-0.08,0.03-0.123c-0.004-0.121-0.061-0.21-0.167-0.265
			c-0.176-0.089-0.354-0.176-0.532-0.261c-0.023-0.012-0.049-0.021-0.076-0.026c-0.121-0.025-0.257,0.032-0.313,0.151
			c-0.182,0.383-0.366,0.767-0.549,1.148c-0.064,0.133-0.008,0.306,0.132,0.378c0.177,0.088,0.353,0.176,0.533,0.261
			C60.122,11.899,60.161,11.91,60.198,11.916z M60.423,10.522c0.016,0.255,0.033,0.504,0.048,0.758
			c-0.224-0.109-0.445-0.217-0.667-0.328C60.011,10.808,60.214,10.667,60.423,10.522z"/>
		<path style="fill:#262626;" d="M57.09,14.202c0.04-0.105-0.015-0.225-0.116-0.272c-0.101-0.048-0.225-0.009-0.277,0.09
			c-0.075,0.137-0.128,0.284-0.164,0.437c-0.086,0.384-0.055,0.758,0.092,1.121c0.122,0.294,0.306,0.542,0.557,0.736
			c0.061,0.048,0.123,0.089,0.186,0.134c0.041,0.021,0.082,0.042,0.122,0.064c0.005,0,0.009-0.002,0.012,0
			c0.129,0.023,0.231-0.034,0.27-0.154c0.035-0.107-0.016-0.212-0.126-0.273c-0.057-0.031-0.11-0.065-0.161-0.104
			c-0.22-0.163-0.378-0.375-0.473-0.632c-0.102-0.28-0.116-0.565-0.034-0.853C57.006,14.395,57.054,14.299,57.09,14.202z"/>
		<path style="fill:#262626;" d="M57.917,14.149c-0.062-0.078-0.148-0.104-0.244-0.084c-0.087,0.02-0.142,0.077-0.179,0.159
			c-0.023,0.065-0.05,0.129-0.069,0.197c-0.081,0.287-0.064,0.569,0.054,0.843c0.116,0.273,0.305,0.482,0.569,0.618
			c0.087,0.045,0.194,0.031,0.266-0.036c0.075-0.072,0.101-0.16,0.072-0.261c-0.023-0.081-0.086-0.121-0.15-0.16
			c-0.24-0.146-0.362-0.364-0.374-0.646c-0.006-0.131,0.029-0.251,0.084-0.369C57.989,14.316,57.98,14.226,57.917,14.149z"/>
		<path style="fill:#262626;" d="M58.951,14.953c0.105-0.198,0.034-0.435-0.161-0.536c-0.196-0.104-0.436-0.029-0.534,0.167
			c-0.1,0.195-0.023,0.437,0.17,0.537C58.618,15.223,58.852,15.149,58.951,14.953z"/>
		<path style="fill:#262626;" d="M60.579,18.674c0.04-0.146-0.028-0.317-0.157-0.396c-0.035-0.021-0.068-0.042-0.101-0.067
			c-0.386-0.287-0.771-0.574-1.159-0.864c-0.043-0.031-0.066-0.075-0.07-0.129c-0.008-0.136,0.046-0.245,0.144-0.335
			c0.013,0.008,0.025,0.017,0.04,0.024c0.094,0.047,0.208,0.019,0.272-0.07c0.057-0.081,0.049-0.2-0.027-0.271
			c-0.218-0.206-0.44-0.412-0.66-0.615c-0.083-0.076-0.208-0.067-0.286,0.017c-0.079,0.081-0.079,0.207-0.004,0.287
			c0.011,0.013,0.023,0.025,0.038,0.041c-0.233,0.25-0.468,0.499-0.7,0.748c-0.016-0.013-0.025-0.023-0.037-0.031
			c-0.066-0.054-0.166-0.058-0.238-0.009c-0.081,0.053-0.117,0.135-0.088,0.225c0.014,0.04,0.042,0.081,0.072,0.111
			c0.21,0.199,0.423,0.396,0.636,0.593c0.114,0.106,0.29,0.061,0.338-0.089c0.024-0.078,0.004-0.148-0.044-0.212
			c0.095-0.099,0.104-0.117,0.244-0.117c0.09,0,0.182,0.021,0.241,0.092c0.165,0.198,0.323,0.406,0.486,0.609
			c0.155,0.196,0.313,0.394,0.472,0.589c0.065,0.083,0.154,0.124,0.26,0.12C60.407,18.922,60.537,18.824,60.579,18.674z"/>
		<path style="fill:#262626;" d="M57.359,12.986c-0.065,0.127-0.126,0.255-0.188,0.383c-0.025,0.052-0.011,0.093,0.041,0.12
			c0.148,0.08,0.298,0.157,0.449,0.232c0.021,0.01,0.054,0.003,0.081,0.006c0.006-0.004,0.012-0.006,0.017-0.012
			c0.052-0.104,0.102-0.207,0.155-0.309c0.01-0.019,0.031-0.038,0.051-0.045c0.065-0.027,0.144-0.036,0.194-0.078
			c0.047-0.043,0.065-0.121,0.096-0.183c0.174-0.359,0.352-0.717,0.526-1.076c0.042-0.086,0.029-0.123-0.056-0.167
			c-0.034-0.017-0.069-0.034-0.104-0.053c-0.063-0.031-0.1-0.019-0.134,0.045c-0.121,0.248-0.244,0.495-0.364,0.743
			c-0.062,0.122-0.119,0.245-0.179,0.367c-0.017,0.036-0.042,0.053-0.08,0.07c-0.094,0.045-0.179,0.04-0.266-0.021
			c-0.037-0.027-0.08-0.044-0.122-0.063C57.423,12.922,57.384,12.933,57.359,12.986z"/>
		<path style="fill:#262626;" d="M62.317,12.554c0.032,0.065,0.093,0.103,0.158,0.106c0.028,0.001,0.057-0.005,0.085-0.019
			l1.417-0.739c0.025,0.107,0.048,0.219,0.064,0.339c0.02,0.128,0.124,0.219,0.242,0.224c0.013,0,0.029,0,0.045-0.005
			c0.136-0.021,0.23-0.156,0.208-0.3c-0.295-1.923-1.345-2.474-1.95-2.631c1.376-1.373,0.825-3.036,0.801-3.105
			c-0.048-0.137-0.191-0.209-0.323-0.16c-0.131,0.05-0.196,0.201-0.149,0.338c0.005,0.013,0.468,1.409-0.683,2.55
			c-1.836,1.824-0.693,3.477-0.205,4.182c0.062,0.094,0.119,0.174,0.156,0.236c0.045,0.078,0.126,0.122,0.207,0.124
			c0.047,0.002,0.095-0.011,0.139-0.04c0.118-0.077,0.151-0.24,0.078-0.364c-0.046-0.077-0.108-0.163-0.177-0.265
			c-0.46-0.664-1.198-1.731-0.247-3.031c0.058,0.001,0.271,0.011,0.533,0.124l-0.626,0.368c-0.085,0.051-0.117,0.166-0.067,0.256
			c0.032,0.062,0.09,0.095,0.149,0.096c0.033,0.001,0.063-0.005,0.094-0.022l0.818-0.481c0.128,0.095,0.258,0.222,0.379,0.384
			l-1.192,0.631c-0.088,0.045-0.124,0.16-0.078,0.252c0.029,0.064,0.09,0.103,0.154,0.105c0.031,0.001,0.058-0.006,0.085-0.02
			l1.232-0.651c0.076,0.144,0.148,0.311,0.208,0.497l-1.476,0.77C62.31,12.348,62.274,12.459,62.317,12.554z"/>
	</g>
	<g>
		<path style="fill:#262626;" d="M56.117,5.766c0.215-0.19,0.427-0.387,0.653-0.568c0.145-0.116,0.203-0.249,0.157-0.429
			c-0.044-0.05-0.085-0.101-0.129-0.151c-0.169-0.073-0.307-0.034-0.441,0.095c-0.21,0.198-0.432,0.38-0.65,0.571
			c-0.139,0.123-0.152,0.307-0.033,0.447C55.794,5.873,55.974,5.886,56.117,5.766z"/>
		<path style="fill:#262626;" d="M52.335,4.402c0.038,0.205,0.194,0.323,0.375,0.291C52.896,4.66,53,4.49,52.961,4.281
			c-0.055-0.292-0.108-0.583-0.166-0.875c-0.013-0.063-0.043-0.123-0.068-0.187c-0.057-0.032-0.107-0.073-0.164-0.09
			c-0.228-0.071-0.438,0.133-0.396,0.378C52.219,3.806,52.279,4.104,52.335,4.402z"/>
		<path style="fill:#262626;" d="M49.024,6.637c0.312,0.113,0.625,0.229,0.94,0.331c0.164,0.053,0.326-0.047,0.379-0.21
			c0.051-0.155-0.023-0.336-0.177-0.394c-0.309-0.115-0.62-0.224-0.932-0.329c-0.135-0.046-0.284,0.021-0.355,0.143
			c-0.072,0.122-0.06,0.263,0.033,0.38C48.949,6.585,48.984,6.622,49.024,6.637z"/>
		<path style="fill:#262626;" d="M54.334,4.811c0.158,0.056,0.335-0.025,0.396-0.195c0.109-0.299,0.212-0.602,0.313-0.903
			c0.039-0.116,0.02-0.223-0.076-0.331C54.82,3.21,54.532,3.26,54.444,3.5c-0.109,0.3-0.211,0.602-0.31,0.905
			C54.076,4.58,54.167,4.753,54.334,4.811z"/>
		<path style="fill:#262626;" d="M50.23,4.196c-0.139,0.12-0.158,0.305-0.046,0.441c0.103,0.123,0.208,0.245,0.313,0.367
			c0.106,0.125,0.213,0.252,0.32,0.377c0.112,0.129,0.297,0.139,0.428,0.024c0.139-0.12,0.158-0.307,0.045-0.441
			c-0.209-0.248-0.422-0.496-0.634-0.742C50.544,4.089,50.363,4.081,50.23,4.196z"/>
		<path style="fill:#262626;" d="M50.641,8.335c0.011,0.064-0.002,0.099-0.051,0.137c-0.378,0.308-0.754,0.618-1.131,0.925
			c-0.114,0.093-0.181,0.214-0.205,0.359c-0.034,0.185,0.012,0.351,0.125,0.499c-0.18,0.159-0.25,0.354-0.219,0.583
			c0.01,0.063,0.033,0.123,0.048,0.185c0.058,0.07,0.114,0.14,0.169,0.211c0.146,0.092,0.302,0.157,0.477,0.121
			c0.105-0.022,0.205-0.071,0.312-0.111c0.241,0.286,0.644,0.254,0.872,0.056c0.302-0.265,0.618-0.515,0.93-0.77l-0.383-0.48
			l-0.74-0.926h0.001c-0.011-0.012-0.022-0.024-0.032-0.038c0.089-0.073,0.175-0.143,0.26-0.215c0.087-0.073,0.218-0.133,0.25-0.228
			c0.033-0.094-0.043-0.22-0.055-0.336C51.247,8.09,51.208,7.87,51.22,7.653c0.064-1.158,1.054-2.053,2.195-2.003
			c1.246,0.055,2.166,1.124,2.05,2.379c-0.084,0.921-0.725,1.619-1.519,1.856l-0.347,0.75c0.56-0.11,1.365-0.482,1.773-0.929
			c1.048-1.147,0.95-2.955-0.218-3.995c-1.1-0.981-2.779-0.917-3.791,0.155C50.708,6.562,50.483,7.394,50.641,8.335z M51.097,10.441
			c-0.152,0.125-0.307,0.252-0.467,0.382c-0.256-0.321-0.508-0.636-0.763-0.956c0.155-0.127,0.307-0.253,0.466-0.382
			C50.585,9.801,50.839,10.119,51.097,10.441z"/>
		<polygon style="fill:#262626;" points="48.178,9.134 48.576,9.424 47.657,7.417 47.819,9.188 47.392,9.165 49.101,11.346 		"/>
		<polygon style="fill:#262626;" points="49.055,8.671 49.262,8.833 49.175,6.956 48.811,8.389 48.563,7.883 48.821,10.009 		"/>
		<polygon style="fill:#262626;" points="52.736,10.915 52.744,10.331 51.358,11.315 		"/>
		<polygon style="fill:#262626;" points="49.682,9.021 50.301,8.417 49.813,7.224 		"/>
		<path style="fill:#262626;" d="M54.934,2.82c0.237,0.414,0.581,0.693,1.031,0.838c0.214,0.069,0.433,0.095,0.657,0.077
			c0.405-0.03,0.764-0.181,1.067-0.454c0.286-0.256,0.472-0.575,0.557-0.95c0.024-0.104,0.03-0.212,0.043-0.318
			c0.003-0.011,0.005-0.022,0.006-0.031c0-0.038,0-0.078,0-0.116c-0.003-0.041-0.007-0.082-0.012-0.123
			c-0.026-0.3-0.124-0.577-0.288-0.825c-0.261-0.393-0.619-0.647-1.071-0.765c-0.146-0.037-0.295-0.05-0.446-0.05
			c-0.395,0.002-0.746,0.124-1.059,0.362c-0.366,0.277-0.593,0.646-0.686,1.1c-0.018,0.086-0.021,0.174-0.033,0.263
			c-0.001,0.013-0.003,0.022-0.006,0.035c0,0.039,0,0.08,0,0.121c0.005,0.037,0.009,0.076,0.012,0.114
			C54.731,2.354,54.807,2.595,54.934,2.82z M55.099,1.826c0.023-0.316,0.134-0.592,0.333-0.827c0.252-0.297,0.575-0.459,0.965-0.494
			c0,0.038,0,0.069,0,0.103c0,0.033,0,0.064,0,0.1c0.065,0,0.131,0,0.198,0c0-0.066,0-0.131,0-0.201
			c0.334,0.027,0.624,0.153,0.864,0.384c0.26,0.253,0.404,0.563,0.434,0.933c-0.067,0-0.129,0-0.196,0c0,0.066,0,0.131,0,0.198
			c0.063,0,0.126,0,0.194,0c-0.024,0.318-0.136,0.595-0.34,0.83C57.3,3.142,56.979,3.3,56.597,3.335c0-0.066,0-0.132,0-0.196
			c-0.068,0-0.132,0-0.199,0c0,0.063,0,0.127,0,0.195c-0.314-0.026-0.591-0.14-0.823-0.35c-0.285-0.252-0.441-0.574-0.476-0.963
			c0.068,0,0.132,0,0.194,0c0-0.065,0-0.128,0-0.197C55.232,1.826,55.169,1.826,55.099,1.826z"/>
		<path style="fill:#262626;" d="M56.715,2.17c0.012-0.006,0.023-0.017,0.029-0.031c0.157-0.285,0.314-0.57,0.469-0.856
			c0.037-0.062,0.069-0.125,0.108-0.193c-0.011,0.005-0.013,0.006-0.016,0.007c-0.343,0.192-0.685,0.385-1.026,0.578
			c-0.012,0.008-0.023,0.02-0.031,0.032c-0.164,0.299-0.327,0.597-0.491,0.896c-0.027,0.05-0.053,0.099-0.083,0.153
			c0.009-0.005,0.013-0.006,0.016-0.009C56.032,2.557,56.375,2.364,56.715,2.17z M56.328,1.764c0.109,0.109,0.215,0.22,0.324,0.33
			c-0.235,0.133-0.477,0.268-0.719,0.404c-0.001-0.001-0.002-0.002-0.004-0.004C56.062,2.25,56.197,2.006,56.328,1.764z"/>
		<path style="fill:#262626;" d="M60.206,4.694c-0.012-0.025-0.027-0.049-0.048-0.07l-0.796-0.821
			c-0.096-0.099-0.252-0.099-0.35-0.003c-0.096,0.098-0.097,0.256-0.002,0.354l0.798,0.82c0.01,0.012,0.024,0.021,0.037,0.032
			c-0.083,0.079-0.191,0.181-0.318,0.299c-0.011-0.02-0.023-0.037-0.039-0.053L58.49,4.225c-0.096-0.1-0.252-0.101-0.35-0.003
			c-0.097,0.096-0.098,0.256-0.004,0.354l0.998,1.027c0.013,0.013,0.027,0.023,0.041,0.034c-0.094,0.088-0.191,0.179-0.292,0.274
			c-0.003-0.005-0.008-0.011-0.012-0.014l-0.538-0.555c-0.097-0.1-0.253-0.1-0.35-0.002c-0.098,0.097-0.099,0.256-0.003,0.353
			l0.54,0.554c0.001,0.001,0.002,0.003,0.003,0.004C58.428,6.34,58.335,6.43,58.24,6.52c-0.007-0.013-0.016-0.023-0.024-0.033
			L57.54,5.791c-0.096-0.098-0.252-0.099-0.35-0.003c-0.097,0.097-0.099,0.254-0.004,0.354l0.676,0.696
			c0.008,0.008,0.014,0.012,0.022,0.017c-0.079,0.075-0.155,0.148-0.231,0.22c-0.002-0.005-0.004-0.01-0.008-0.013L56.59,5.978
			c-0.096-0.097-0.251-0.098-0.349-0.003c-0.096,0.098-0.097,0.257-0.002,0.355l1.055,1.085l0.001,0.001
			c-0.113,0.108-0.212,0.206-0.297,0.284c-0.011-0.022-0.024-0.044-0.042-0.062l-0.275-0.283c-0.095-0.098-0.253-0.1-0.35-0.004
			c-0.098,0.099-0.099,0.256-0.002,0.356l0.274,0.282c0.02,0.021,0.044,0.037,0.068,0.048c-0.373,0.441-0.217,0.574-0.217,0.574
			l2.385-2.336c0.012-0.008,0.021-0.016,0.032-0.026c0.007-0.009,0.014-0.017,0.021-0.027L60.446,4.7
			C60.362,4.647,60.277,4.661,60.206,4.694z"/>
		<circle style="fill:#262626;" cx="55.584" cy="4.39" r="0.334"/>
		<circle style="fill:#262626;" cx="53.51" cy="3.801" r="0.335"/>
		<circle style="fill:#262626;" cx="51.584" cy="4.272" r="0.334"/>
		<circle style="fill:#262626;" cx="50.111" cy="5.618" r="0.334"/>
		<path style="fill:#262626;" d="M57.246,4.912c0,0.179,0.142,0.323,0.317,0.323s0.317-0.144,0.317-0.323
			c0-0.176-0.142-0.32-0.317-0.32S57.246,4.736,57.246,4.912z"/>
		<path style="fill:#262626;" d="M63.627,3.219l0.271-0.012l1.399-0.055l-1.851-0.66L64.1,1.689l-0.958,0.436l-0.169-1.533
			l-0.646,1.316l-0.476-0.969l-0.177,0.717l-0.049,0.21l-1.863-0.919l1.59,1.281l-2.432,0.045l2.633,0.656l-1.195,1.69l1.578-1.162
			l-0.414,2.698c0.728-1.503,0.957-2.781,0.957-2.781c0.014,0.357-0.087,1.369-0.087,1.369l0.56-1.097l2.645,3.46L63.627,3.219z"/>
		<polygon style="fill:#262626;" points="65.775,3.852 66.5,3.83 65.905,3.541 64.49,3.377 		"/>
		<polygon style="fill:#262626;" points="60.479,1.748 59.013,0.852 58.335,0.785 58.612,1.305 		"/>
		<polygon style="fill:#262626;" points="63.215,5.473 62.915,4.134 62.554,5.55 62.9,6.01 		"/>
		<path style="fill:#262626;" d="M65.297,4.614h0.198L65.25,4.2l-0.801-0.49C64.746,3.997,65.028,4.299,65.297,4.614z"/>
		<path style="fill:#262626;" d="M64.991,4.614h0.306c-0.269-0.315-0.551-0.617-0.849-0.904l-0.546-0.333L64.991,4.614z"/>
		<polygon style="fill:#262626;" points="59.386,1.852 59.621,2.059 60.681,1.987 59.667,1.78 		"/>
		<polygon style="fill:#262626;" points="59.149,3.327 61.043,3 58.965,2.855 58.448,3.067 		"/>
		<polygon style="fill:#262626;" points="61.096,0.593 60.681,0.322 60.681,0.785 61.523,1.546 		"/>
		<polygon style="fill:#262626;" points="60.085,4.098 60.479,3.996 61.176,3.115 60.249,3.662 		"/>
		<polygon style="fill:#262626;" points="64.398,7.018 64.474,6.488 63.333,4.453 63.73,6.586 		"/>
		<polygon style="fill:#262626;" points="66.788,7.045 66.5,6.282 64.739,4.63 66.038,6.715 		"/>
		<polygon style="fill:#262626;" points="56.792,4.279 57.516,4.293 59.022,3.65 57.417,3.942 		"/>
		<polygon style="fill:#262626;" points="58.177,3.322 57.916,3.464 58.16,3.559 58.916,3.402 		"/>
		<polygon style="fill:#262626;" points="59.666,3.482 59.458,3.695 59.72,3.713 60.396,3.336 		"/>
		<polygon style="fill:#262626;" points="62.288,6.218 62.281,5.21 61.926,6.188 62.031,6.502 		"/>
		<polygon style="fill:#262626;" points="61.453,5.199 61.614,4.345 61.203,5.157 61.264,5.427 		"/>
		<polygon style="fill:#262626;" points="59.953,7.905 60.163,7.672 60.276,6.973 59.92,7.677 		"/>
	</g>
	<g>
		<path style="fill:#262626;" d="M45.701,22.938c0.304,0.143,0.611,0.287,0.917,0.429c0.024,0.014,0.05,0.023,0.069,0.031
			c0.201-0.301,0.4-0.595,0.604-0.9c-0.111-0.11-0.231-0.227-0.353-0.346c-0.142-0.137-0.285-0.28-0.429-0.413
			c-0.038-0.037-0.052-0.065-0.031-0.123c0.111-0.291,0.169-0.599,0.191-0.912c0.001-0.026,0.029-0.065,0.054-0.075
			c0.333-0.127,0.667-0.249,1-0.373c0.021-0.01,0.046-0.006,0.069-0.01c-0.068-0.366-0.136-0.734-0.206-1.101
			c-0.019,0.009-0.037,0.021-0.059,0.021c-0.357,0.01-0.715,0.018-1.074,0.021c-0.025,0-0.063-0.023-0.075-0.044
			c-0.139-0.307-0.322-0.582-0.552-0.842c0.163-0.355,0.327-0.717,0.49-1.068c-0.3-0.208-0.592-0.408-0.892-0.614
			c-0.264,0.278-0.533,0.562-0.804,0.849c-0.318-0.12-0.644-0.198-0.983-0.216c-0.02,0-0.051-0.024-0.059-0.044
			c-0.128-0.345-0.253-0.691-0.377-1.038c-0.006-0.016,0-0.037,0.002-0.056c-0.235,0.045-0.47,0.09-0.703,0.134
			c0.176,0.752,0.403,1.511,0.678,2.271c1.047-0.154,2.028,0.559,2.229,1.634c0.134,0.723-0.149,1.437-0.676,1.89
			c0.194,0.373,0.394,0.743,0.6,1.11c0.089-0.065,0.175-0.135,0.258-0.21C45.634,22.902,45.663,22.919,45.701,22.938z"/>
		<path style="fill:#262626;" d="M44.808,20.26c-0.13-0.696-0.734-1.172-1.404-1.144c0.306,0.789,0.657,1.576,1.041,2.354
			C44.743,21.157,44.892,20.711,44.808,20.26z"/>
		<path style="fill:#262626;" d="M45.437,8.79c0.006,0.002,0.017,0.003,0.025,0.005c0.33-0.036,0.412,0.151,0.464,0.426l0.085,0.441
			c0.027,0.147,0.005,0.215-0.038,0.349c-0.039,0.125-0.072,0.257-0.118,0.381l-0.123,0.405c-0.02,0.076-0.047,0.15-0.071,0.225
			c-0.033,0.109-0.063,0.218-0.097,0.318l-0.135,0.438c-0.043,0.124-0.071,0.25-0.116,0.375c-0.003,0.012-0.007,0.027-0.012,0.04
			c-0.003,0.011-0.007,0.021-0.011,0.031l-0.021,0.071c-0.012,0.037-0.022,0.074-0.035,0.113c-0.011,0.032-0.021,0.064-0.032,0.098
			c-0.004,0.013-0.008,0.029-0.013,0.044c-0.002,0.02-0.002,0.039,0.001,0.061c0.014,0.077,0.08,0.133,0.156,0.139h-0.001h0.002
			c0.012,0,0.026,0,0.039-0.002c0.001,0,0.003,0,0.003-0.002c0,0,0,0,0.001,0s0.002,0,0.004,0c0.003-0.001,0.007-0.001,0.012-0.002
			c0.337-0.031,2.028-0.202,3.168-0.617c0.173-0.063,0.333-0.132,0.477-0.204c0.001-0.004,0.001-0.006,0.001-0.009
			c0.002-0.019,0.002-0.038-0.001-0.056c-0.005-0.023-0.012-0.042-0.024-0.06c-0.007-0.012-0.016-0.021-0.026-0.032
			c-0.054-0.07-0.12-0.138-0.179-0.207l-0.086-0.103l-0.903,0.175l-0.178-0.292l0.84-0.165l0,0l0.001-0.001l-0.069-0.08
			c-0.018-0.021-0.038-0.045-0.065-0.078c-0.012-0.012-0.021-0.021-0.026-0.029l-0.154-0.18c-0.016-0.017-0.029-0.032-0.044-0.048
			l-0.824,0.161l-0.182-0.292l0.767-0.15l-0.358-0.416l-0.778,0.151L46.558,9.93l0.745-0.149l-0.005-0.006l-0.037-0.041
			c-0.073-0.082-0.118-0.144-0.138-0.255l-0.026-0.144l-0.659,0.129l-0.06-0.316l0.657-0.128l-0.008-0.044
			c-0.002-0.013-0.004-0.026-0.007-0.036c-0.006-0.018-0.01-0.037-0.013-0.053c-0.042-0.22,0.099-0.43,0.315-0.472
			c0.002-0.001,0.005-0.001,0.007-0.001c0.003-0.003,0.004-0.007,0.004-0.005c0.001-0.002,0.001-0.002,0.001,0l-0.037-0.208
			c-0.005-0.008-0.011-0.019-0.02-0.028c-0.005-0.001-0.01-0.001-0.01-0.001l-1.853,0.357c-0.007,0.003-0.013,0.006-0.004,0.001
			c-0.007,0.003-0.016,0.007-0.022,0.013c-0.002,0.006-0.004,0.015-0.004,0.016c-0.001,0.004-0.001,0.006-0.002,0.003
			c0.011,0.056,0.025,0.174,0.034,0.202C45.429,8.778,45.438,8.792,45.437,8.79z M46.464,11.745
			c-0.131,0.026-0.259-0.062-0.284-0.193c-0.026-0.135,0.06-0.262,0.193-0.289c0.132-0.024,0.258,0.063,0.283,0.196
			S46.595,11.72,46.464,11.745z M47.05,11.656c0.08-0.015,0.156,0.038,0.172,0.119c0.015,0.08-0.038,0.159-0.117,0.175
			c-0.08,0.015-0.158-0.039-0.172-0.12C46.917,11.75,46.971,11.671,47.05,11.656z M46.457,10.34c0.19-0.037,0.374,0.088,0.41,0.282
			c0.037,0.193-0.088,0.379-0.279,0.416c-0.189,0.038-0.374-0.089-0.409-0.282C46.14,10.563,46.266,10.377,46.457,10.34z"/>
		<path style="fill:#262626;" d="M44.341,11.941c-0.166-0.168-0.313-0.353-0.441-0.552c-0.001-0.001-0.001-0.003-0.001-0.005
			c-0.002,0.001-0.005,0.001-0.007,0.002c-0.011,0.104-0.02,0.207-0.035,0.31c-0.024,0.179-0.072,0.354-0.121,0.527
			c-0.028,0.098-0.054,0.199-0.06,0.303c-0.007,0.186,0.041,0.351,0.183,0.478c0.113,0.102,0.247,0.147,0.399,0.132
			c0.162-0.016,0.292-0.092,0.384-0.227c0.075-0.106,0.105-0.226,0.091-0.357c-0.013-0.145-0.076-0.269-0.171-0.378
			C44.493,12.094,44.416,12.018,44.341,11.941z M44.594,12.664c-0.024,0.142-0.102,0.242-0.231,0.303
			c-0.012,0.006-0.027,0.011-0.041,0.015c-0.001,0-0.005-0.003-0.012-0.004c0.011-0.024,0.022-0.044,0.033-0.066
			c0.046-0.1,0.083-0.201,0.088-0.311c0.005-0.076-0.006-0.15-0.026-0.224c-0.023-0.087-0.056-0.172-0.094-0.253
			c-0.001-0.004-0.001-0.009-0.004-0.016c0.004,0.002,0.007,0.005,0.009,0.006c0.07,0.073,0.144,0.144,0.2,0.23
			C44.578,12.443,44.613,12.547,44.594,12.664z"/>
		<path style="fill:#262626;" d="M45.694,14.906c-0.065-0.29-0.359-0.477-0.644-0.409c-0.234,0.057-0.415,0.274-0.419,0.507
			c-0.006,0.259,0.144,0.474,0.388,0.546c0.046,0.014,0.054,0.034,0.047,0.078c-0.04,0.367-0.339,0.667-0.751,0.65
			c-0.304-0.014-0.592-0.251-0.654-0.551c-0.012-0.053-0.021-0.106-0.03-0.159c-0.108,0.012-0.212,0.024-0.328,0.037
			c0.019,0.087,0.03,0.176,0.056,0.259c0.14,0.414,0.419,0.666,0.848,0.736c0.067,0.011,0.136,0.011,0.207,0.015
			c0.035-0.005,0.071-0.009,0.108-0.013c0.064-0.019,0.132-0.033,0.197-0.059c0.397-0.157,0.616-0.457,0.67-0.878
			c0.012-0.091,0.029-0.155,0.112-0.211c0.138-0.096,0.206-0.245,0.207-0.417c0-0.009,0.003-0.016,0.006-0.024
			c-0.003-0.025-0.004-0.049-0.008-0.073C45.702,14.928,45.697,14.917,45.694,14.906z M45.21,15.403
			c-0.201,0.021-0.382-0.127-0.406-0.332c-0.021-0.204,0.127-0.388,0.331-0.41c0.195-0.023,0.382,0.131,0.401,0.331
			C45.559,15.192,45.409,15.38,45.21,15.403z"/>
		<path style="fill:#262626;" d="M44.347,14.638c0.033-0.168,0.059-0.339,0.088-0.511c0.021-0.122,0.021-0.242-0.012-0.361
			c-0.067-0.235-0.208-0.398-0.434-0.486c-0.033-0.012-0.06-0.028-0.083-0.057c-0.093-0.115-0.261-0.13-0.377-0.035
			c-0.111,0.091-0.132,0.258-0.045,0.376c0.09,0.121,0.255,0.147,0.373,0.057c0.029-0.022,0.051-0.019,0.077-0.004
			c0.128,0.073,0.207,0.235,0.183,0.4c-0.029,0.194-0.062,0.387-0.098,0.58c-0.018,0.094-0.059,0.183-0.121,0.258
			c-0.123,0.152-0.29,0.216-0.497,0.243c-0.027,0-0.074,0.003-0.123,0c-0.258-0.016-0.454-0.132-0.56-0.379
			c-0.069-0.16-0.138-0.321-0.199-0.488c-0.06-0.162-0.041-0.317,0.078-0.452c0.021-0.025,0.04-0.033,0.072-0.019
			c0.031,0.013,0.068,0.018,0.102,0.018c0.131-0.003,0.244-0.109,0.26-0.238c0.017-0.135-0.066-0.264-0.195-0.3
			c-0.131-0.037-0.266,0.029-0.321,0.155c-0.012,0.022-0.029,0.046-0.05,0.061c-0.269,0.188-0.368,0.547-0.272,0.833
			c0.064,0.191,0.148,0.378,0.226,0.565c0.092,0.229,0.254,0.391,0.474,0.492c0.268,0.121,0.544,0.124,0.817,0.026
			C44.055,15.249,44.276,15.009,44.347,14.638z"/>
		<path style="fill:#262626;" d="M45.141,14.821c-0.113,0.014-0.193,0.116-0.182,0.231c0.012,0.116,0.113,0.198,0.227,0.186
			c0.119-0.012,0.198-0.113,0.186-0.232C45.359,14.89,45.257,14.808,45.141,14.821z"/>
		<path style="fill:#262626;" d="M52.411,14.473c-1.101,0.017-1.03,0.118-1.03,0.118s0.565,0.185,1.156,0.552
			c0.096,0.059,0.187,0.109,0.282,0.15c-0.13,0.033-0.267,0.105-0.401,0.232c0,0-0.208,0.167-0.375,0.375
			c0,0,0.38,0.207,0.625,0.161c-0.306,0.269-0.594,0.645-0.768,1.167c-0.517,1.553-0.346,1.503-0.346,1.503s0.528-0.702,1.319-1.35
			c0.489-0.4,0.758-0.764,1.041-1.846c-0.802,0.287-1.1,0.962-1.1,0.962c0.184-0.474,0.451-0.763,0.74-0.933
			c0.041-0.009,0.083-0.013,0.125-0.013c-0.021-0.008-0.042-0.012-0.064-0.02c0.036-0.02,0.071-0.036,0.108-0.052
			c-0.039,0.011-0.085,0.026-0.134,0.043c-0.608-0.155-1.027,0.191-1.027,0.191c0.264-0.24,0.521-0.313,0.748-0.307
			c0.023,0.003,0.047,0.005,0.073,0.006c0.065,0.007,0.129,0.02,0.186,0.038c-0.017-0.012-0.036-0.023-0.054-0.034
			c0.125,0.001,0.269-0.005,0.434-0.019c-0.367-0.457-0.862-0.497-0.862-0.497c0.408,0.012,0.675,0.166,0.852,0.359
			C53.75,15.004,53.254,14.459,52.411,14.473z"/>
		<ellipse style="fill:#262626;" cx="51.471" cy="16.241" rx="0.44" ry="0.446"/>
		<circle style="fill:#262626;" cx="51.438" cy="15.267" r="0.287"/>
		<circle style="fill:#262626;" cx="52.042" cy="15.189" r="0.177"/>
		<circle style="fill:#262626;" cx="51.438" cy="17.248" r="0.287"/>
		<circle style="fill:#262626;" cx="50.897" cy="14.739" r="0.219"/>
		<path style="fill:#262626;" d="M47.563,21.849c0.005,0.005,0.008,0.009,0.011,0.012c0.112,0.045,0.22,0.102,0.335,0.131
			c0.283,0.075,0.561,0.032,0.828-0.083c0.117-0.052,0.229-0.113,0.328-0.194c0.01-0.007,0.023-0.011,0.034-0.02
			c0.206-0.184,0.41-0.366,0.615-0.551c-0.06-0.099-0.117-0.203-0.182-0.299c-0.079-0.116-0.165-0.228-0.251-0.346
			c-0.017,0.015-0.027,0.023-0.037,0.035c-0.093,0.084-0.185,0.17-0.281,0.249c-0.094,0.078-0.204,0.118-0.333,0.131
			c0.223-0.201,0.442-0.396,0.665-0.594c0.021,0.024,0.041,0.048,0.065,0.073c0.007,0.008,0.019,0.018,0.027,0.016
			c0.085-0.021,0.172-0.045,0.263-0.069c-0.112-0.129-0.221-0.255-0.333-0.385c-0.028,0.069-0.059,0.131-0.078,0.196
			c-0.022,0.071-0.075,0.112-0.131,0.156c-0.175-0.191-0.364-0.366-0.573-0.519c-0.207,0.185-0.414,0.371-0.621,0.556
			c-0.038,0.043-0.078,0.086-0.113,0.133c-0.317,0.41-0.429,0.859-0.234,1.361C47.564,21.843,47.563,21.847,47.563,21.849z"/>
		<path style="fill:#262626;" d="M50.262,19.782c0.078-0.106,0.055-0.27-0.051-0.347c-0.103-0.081-0.232-0.075-0.331,0.011
			c-0.148,0.131-0.296,0.265-0.445,0.398c-0.008,0.007-0.015,0.016-0.025,0.025c0.112,0.128,0.223,0.254,0.337,0.385
			c0.014-0.012,0.024-0.021,0.035-0.03c0.141-0.125,0.282-0.253,0.423-0.381C50.226,19.825,50.245,19.805,50.262,19.782z"/>
		<polygon style="fill:#262626;" points="49.764,13.93 49.764,13.93 49.291,13.816 49.467,14.719 49.754,14.501 49.946,15.189 
			50.886,14.191 		"/>
		<circle style="fill:#262626;" cx="51.226" cy="17.967" r="0.177"/>
		<path style="fill:#262626;" d="M47.946,18.469l0.001,0.001l0,0c0.013,0.033,0.024,0.065,0.037,0.098
			c0.085,0.241,0.194,0.466,0.371,0.652c0.245,0.256,0.546,0.267,0.805,0.025c0.139-0.13,0.236-0.291,0.312-0.464
			c0.046-0.104,0.085-0.208,0.126-0.313c0.097,0.014,0.194,0.033,0.293,0.044c0.19,0.027,0.381,0.027,0.568-0.024
			c0.359-0.095,0.518-0.377,0.421-0.741c-0.051-0.188-0.147-0.356-0.264-0.509c-0.059-0.082-0.122-0.158-0.184-0.234
			c0.045-0.057,0.091-0.108,0.135-0.164c0.132-0.171,0.249-0.354,0.304-0.569c0.09-0.349-0.064-0.638-0.395-0.736
			c-0.165-0.052-0.334-0.06-0.505-0.042c-0.128,0.013-0.255,0.036-0.376,0.052c-0.057-0.129-0.107-0.261-0.169-0.388
			c-0.087-0.178-0.198-0.34-0.363-0.455c-0.175-0.121-0.358-0.134-0.542-0.024c-0.058,0.036-0.112,0.08-0.159,0.128
			c-0.168,0.171-0.27,0.383-0.355,0.605c-0.018,0.049-0.035,0.098-0.051,0.142c-0.133-0.017-0.261-0.038-0.39-0.05
			c-0.177-0.016-0.353-0.008-0.523,0.051c-0.294,0.102-0.434,0.341-0.384,0.651c0.033,0.196,0.123,0.366,0.232,0.525
			c0.065,0.097,0.141,0.187,0.213,0.283c-0.034,0.037-0.068,0.077-0.101,0.118c-0.148,0.184-0.277,0.378-0.339,0.608
			c-0.096,0.358,0.062,0.647,0.411,0.748c0.158,0.044,0.318,0.053,0.48,0.038c0.131-0.013,0.261-0.036,0.395-0.054
			C47.947,18.471,47.946,18.469,47.946,18.469z M49.85,15.816c0.173-0.026,0.348-0.038,0.521,0.005
			c0.031,0.008,0.061,0.017,0.089,0.03c0.149,0.064,0.201,0.184,0.153,0.358c-0.044,0.167-0.139,0.306-0.24,0.441
			c-0.042,0.055-0.089,0.108-0.129,0.155c-0.158-0.127-0.311-0.25-0.463-0.373c-0.011-0.01-0.02-0.027-0.021-0.04
			c-0.029-0.179-0.055-0.357-0.083-0.547C49.731,15.837,49.789,15.825,49.85,15.816z M50.042,17.012
			c-0.083,0.074-0.163,0.14-0.249,0.216c0-0.147,0-0.282,0-0.429C49.88,16.873,49.959,16.939,50.042,17.012z M49.729,17.855
			c0.014-0.078,0.021-0.155,0.034-0.233c0.001-0.015,0.008-0.033,0.018-0.04c0.149-0.124,0.3-0.245,0.457-0.371
			c0.163,0.19,0.327,0.383,0.385,0.641c0.031,0.146-0.019,0.259-0.155,0.311c-0.084,0.035-0.179,0.053-0.271,0.062
			c-0.178,0.02-0.35-0.012-0.525-0.045C49.692,18.068,49.713,17.96,49.729,17.855z M48.069,17.8c0.125,0.073,0.237,0.138,0.36,0.209
			c-0.104,0.036-0.197,0.068-0.3,0.103C48.111,18.009,48.091,17.912,48.069,17.8z M49.013,18.997
			c-0.075,0.077-0.16,0.136-0.275,0.119c-0.068-0.008-0.122-0.042-0.171-0.087c-0.131-0.117-0.21-0.27-0.278-0.428
			c-0.03-0.066-0.053-0.133-0.08-0.206c0.024-0.01,0.046-0.014,0.068-0.024c0.145-0.056,0.292-0.111,0.435-0.168
			c0.041-0.016,0.071-0.017,0.111-0.001c0.158,0.063,0.318,0.122,0.478,0.182c0.009,0.001,0.018,0.007,0.033,0.011
			C49.259,18.617,49.175,18.828,49.013,18.997z M49.414,18.112c-0.102-0.035-0.198-0.068-0.301-0.103
			c0.123-0.073,0.237-0.142,0.36-0.214C49.453,17.904,49.435,18.006,49.414,18.112z M49.471,16.219
			c-0.121-0.071-0.23-0.137-0.348-0.206c0.1-0.035,0.191-0.066,0.291-0.102C49.432,16.014,49.451,16.111,49.471,16.219z
			 M48.549,15.007c0.146-0.14,0.292-0.138,0.44-0.003c0.123,0.113,0.198,0.259,0.265,0.411c0.026,0.065,0.051,0.134,0.075,0.197
			c-0.186,0.074-0.364,0.146-0.543,0.215c-0.012,0.004-0.028,0.005-0.041,0.001c-0.176-0.066-0.353-0.134-0.53-0.201
			c0-0.001-0.001-0.003-0.006-0.008C48.286,15.398,48.373,15.174,48.549,15.007z M48.126,15.912
			c0.099,0.034,0.186,0.064,0.283,0.098c-0.115,0.069-0.223,0.13-0.339,0.198C48.091,16.107,48.108,16.012,48.126,15.912z
			 M48.028,16.626c0.003-0.019,0.016-0.042,0.032-0.054c0.217-0.15,0.448-0.28,0.687-0.394c0.015-0.006,0.038-0.008,0.051,0
			c0.231,0.133,0.46,0.264,0.69,0.399c0.014,0.007,0.024,0.029,0.024,0.045c0.006,0.188,0.011,0.378,0.013,0.565
			c0,0.072-0.006,0.145-0.013,0.216c-0.001,0.017-0.013,0.04-0.028,0.05c-0.216,0.149-0.444,0.28-0.682,0.392
			c-0.019,0.007-0.048,0.007-0.066-0.002c-0.225-0.125-0.448-0.254-0.67-0.381c-0.024-0.014-0.037-0.031-0.037-0.062
			c-0.006-0.132-0.013-0.266-0.019-0.391C48.015,16.877,48.02,16.752,48.028,16.626z M47.626,18.218
			c-0.151,0.017-0.302,0.021-0.451-0.015c-0.034-0.008-0.067-0.018-0.099-0.033c-0.135-0.06-0.193-0.174-0.158-0.319
			c0.017-0.065,0.042-0.131,0.07-0.192c0.077-0.168,0.193-0.31,0.311-0.44c0.157,0.126,0.31,0.248,0.462,0.371
			c0.011,0.008,0.017,0.024,0.02,0.037c0.029,0.182,0.056,0.366,0.084,0.555C47.788,18.192,47.707,18.208,47.626,18.218z
			 M47.495,17.017c0.084-0.074,0.164-0.142,0.254-0.22c0,0.152,0,0.289,0,0.437C47.661,17.159,47.581,17.09,47.495,17.017z
			 M47.784,16.377c-0.004,0.018-0.014,0.04-0.028,0.05c-0.154,0.127-0.309,0.251-0.467,0.379c-0.113-0.124-0.22-0.259-0.301-0.417
			c-0.047-0.091-0.086-0.188-0.086-0.294c0.001-0.099,0.042-0.169,0.124-0.217c0.102-0.061,0.214-0.078,0.328-0.082
			c0.169-0.01,0.333,0.015,0.499,0.048c0.004,0.001,0.011,0.005,0.012,0.006C47.837,16.03,47.812,16.204,47.784,16.377z"/>
		<circle style="fill:#262626;" cx="48.771" cy="17.011" r="0.328"/>
		<path style="fill:#262626;" d="M47.19,13.521c-0.15-0.054-0.305-0.1-0.459-0.145c-0.339-0.099-0.667-0.232-0.978-0.401
			c-0.001-0.001-0.004-0.003-0.005-0.006c-0.003,0.002-0.006,0.006-0.008,0.009c0.061,0.144,0.124,0.287,0.18,0.433
			c0.096,0.255,0.156,0.52,0.218,0.784c0.036,0.151,0.072,0.303,0.14,0.443c0.124,0.25,0.305,0.433,0.582,0.496
			c0.224,0.05,0.432,0.011,0.62-0.12c0.203-0.141,0.32-0.338,0.346-0.585c0.019-0.195-0.026-0.375-0.135-0.536
			C47.566,13.71,47.392,13.593,47.19,13.521z M47.499,14.711c-0.012,0.019-0.029,0.035-0.043,0.051
			c-0.002,0.002-0.01,0.001-0.017,0.004c-0.002-0.038-0.003-0.074-0.006-0.111c-0.009-0.166-0.036-0.325-0.105-0.477
			c-0.05-0.104-0.117-0.193-0.194-0.275c-0.094-0.099-0.198-0.185-0.308-0.265c-0.005-0.004-0.008-0.01-0.017-0.016
			c0.008,0,0.013,0,0.017,0c0.146,0.043,0.294,0.083,0.429,0.157c0.149,0.085,0.271,0.195,0.331,0.363
			C47.656,14.347,47.625,14.538,47.499,14.711z"/>
		<path style="fill:#262626;" d="M45.792,13.587c-0.025-0.13-0.092-0.235-0.186-0.324c-0.071-0.064-0.144-0.125-0.218-0.188
			c-0.162-0.135-0.311-0.283-0.442-0.452c-0.002,0-0.003-0.003-0.003-0.004c-0.001,0.001-0.004,0.001-0.005,0.003
			c0,0.092,0.001,0.186-0.002,0.279c-0.005,0.162-0.035,0.321-0.062,0.481c-0.017,0.091-0.033,0.182-0.026,0.276
			c0.01,0.165,0.067,0.309,0.206,0.409c0.109,0.08,0.233,0.108,0.367,0.082c0.143-0.029,0.252-0.111,0.323-0.239
			C45.798,13.81,45.815,13.701,45.792,13.587z M45.677,13.699c-0.008,0.128-0.07,0.225-0.179,0.291
			c-0.012,0.007-0.024,0.012-0.037,0.016c-0.001,0.001-0.005-0.001-0.009-0.001c0.008-0.021,0.014-0.042,0.021-0.062
			c0.033-0.094,0.057-0.187,0.053-0.287c-0.002-0.066-0.019-0.131-0.042-0.195c-0.029-0.076-0.065-0.148-0.107-0.218
			c-0.001-0.002-0.004-0.007-0.005-0.013c0.005,0.003,0.006,0.003,0.008,0.004c0.071,0.059,0.142,0.116,0.199,0.188
			C45.642,13.503,45.685,13.593,45.677,13.699z"/>
		<path style="fill:#262626;" d="M46.321,15.694c-0.077-0.13-0.14-0.265-0.188-0.409c0-0.001,0-0.003,0-0.003
			c-0.002,0-0.003,0-0.006,0c-0.022,0.063-0.042,0.125-0.067,0.186c-0.042,0.107-0.099,0.208-0.155,0.307
			c-0.033,0.057-0.064,0.113-0.084,0.177c-0.033,0.114-0.029,0.224,0.04,0.324c0.055,0.08,0.13,0.13,0.225,0.145
			c0.103,0.016,0.196-0.013,0.273-0.082c0.061-0.054,0.098-0.123,0.11-0.206c0.014-0.091-0.007-0.179-0.048-0.26
			C46.39,15.813,46.355,15.754,46.321,15.694z M46.367,16.182c-0.037,0.084-0.1,0.135-0.188,0.15
			c-0.008,0.002-0.019,0.002-0.028,0.002c-0.001,0-0.004,0-0.007-0.004c0.011-0.012,0.021-0.023,0.031-0.037
			c0.044-0.054,0.081-0.111,0.103-0.177c0.015-0.046,0.018-0.093,0.018-0.142c0-0.06-0.008-0.115-0.02-0.172
			c-0.001-0.001,0-0.005,0-0.01c0.001,0.002,0.004,0.004,0.005,0.005c0.033,0.057,0.067,0.112,0.087,0.174
			C46.391,16.042,46.396,16.113,46.367,16.182z"/>
		<path style="fill:#262626;" d="M48.866,13.868c-0.075-0.055-0.158-0.077-0.25-0.079c-0.067-0.001-0.135,0.001-0.202,0.005
			c-0.149,0.006-0.296-0.001-0.443-0.026c-0.001,0-0.002-0.001-0.002-0.001c-0.001,0.001-0.002,0.002-0.002,0.004
			c0.042,0.048,0.087,0.097,0.128,0.149c0.073,0.087,0.133,0.186,0.192,0.282c0.034,0.057,0.068,0.111,0.114,0.159
			c0.083,0.083,0.18,0.131,0.299,0.117c0.096-0.009,0.174-0.055,0.23-0.133c0.063-0.083,0.083-0.179,0.06-0.281
			C48.974,13.984,48.931,13.918,48.866,13.868z M48.898,14.224c-0.002,0.008-0.006,0.016-0.01,0.023
			c-0.001,0.003-0.005,0.004-0.007,0.005c-0.006-0.015-0.012-0.028-0.017-0.043c-0.025-0.065-0.057-0.125-0.105-0.176
			c-0.035-0.035-0.072-0.061-0.115-0.083c-0.051-0.027-0.104-0.047-0.158-0.064c-0.002,0-0.005-0.002-0.008-0.005
			c0.002,0,0.005-0.001,0.006-0.001c0.064-0.003,0.128-0.008,0.191,0.004c0.072,0.012,0.134,0.041,0.182,0.099
			C48.913,14.055,48.925,14.134,48.898,14.224z"/>
	</g>
	<g>
		<path style="fill:#262626;" d="M56.422,21.316c-0.145-0.154-0.294-0.307-0.443-0.458c-0.098-0.098-0.242-0.121-0.361-0.062
			c-0.029,0.015-0.054,0.036-0.085,0.058c-0.033-0.033-0.062-0.064-0.092-0.095c-0.145-0.149-0.332-0.15-0.478-0.004
			c-0.741,0.736-1.479,1.474-2.219,2.211c-0.139,0.138-0.141,0.334-0.005,0.472c0.361,0.374,0.722,0.746,1.083,1.12
			c0.133,0.136,0.328,0.137,0.465,0.003c0.741-0.742,1.484-1.482,2.227-2.223c0.136-0.135,0.137-0.331,0.005-0.47
			c-0.034-0.034-0.067-0.069-0.103-0.104c0.009-0.01,0.014-0.018,0.02-0.025C56.538,21.616,56.535,21.434,56.422,21.316z
			 M56.074,22.333c-0.302,0.295-0.598,0.593-0.896,0.891c-0.295,0.295-0.593,0.588-0.886,0.886c-0.12,0.123-0.296,0.125-0.405,0.046
			c-0.017-0.009-0.034-0.024-0.048-0.041c-0.224-0.229-0.446-0.456-0.667-0.686c-0.118-0.122-0.119-0.318,0.001-0.439
			c0.424-0.425,0.849-0.848,1.274-1.27c0.175-0.177,0.354-0.348,0.525-0.527c0.119-0.124,0.337-0.124,0.457,0.006
			c0.213,0.226,0.431,0.45,0.649,0.667C56.208,21.997,56.194,22.216,56.074,22.333z"/>
		<path style="fill:#262626;" d="M55.123,22.737c-0.358-0.124-0.716-0.247-1.073-0.372c-0.035-0.014-0.051-0.004-0.074,0.019
			c-0.076,0.077-0.154,0.152-0.23,0.23c-0.135,0.136-0.272,0.27-0.403,0.41c-0.093,0.097-0.091,0.278,0.002,0.377
			c0.144,0.152,0.289,0.304,0.437,0.453c0.131,0.131,0.307,0.125,0.439-0.005c0.138-0.14,0.279-0.278,0.419-0.417l0,0
			c0.139-0.139,0.278-0.28,0.421-0.419c0.062-0.062,0.094-0.135,0.097-0.226C55.157,22.759,55.149,22.746,55.123,22.737z"/>
		<path style="fill:#262626;" d="M51.141,21.183c-0.059-0.058-0.146-0.068-0.215-0.026l-0.598,0.354l0.008,0.015l0.126-0.074l0,0
			l-0.126,0.074l0.22,0.382c0.026,0.044,0.011,0.102-0.033,0.125C50.48,22.06,50.425,22.045,50.399,22l-0.22-0.382l-0.114,0.066l0,0
			l0.114-0.066l-0.01-0.016l-0.156,0.092l0.138,0.238c0.026,0.044,0.012,0.101-0.032,0.126c-0.044,0.026-0.1,0.011-0.124-0.034
			L49.866,21.8l-0.057,0.035l0.057-0.035l-0.01-0.014l-0.157,0.091l0.229,0.399c0.026,0.044,0.011,0.099-0.032,0.126
			c-0.044,0.025-0.1,0.01-0.125-0.034l-0.22-0.381l-0.017,0.008l0.017-0.008l-0.008-0.015l-0.276,0.162l0.121-0.071l0.01,0.017
			l0.005-0.005v0.001l-0.005,0.004l0.127,0.223c0.025,0.044,0.011,0.1-0.032,0.124c-0.043,0.027-0.099,0.012-0.125-0.032
			l-0.136-0.241l-0.159,0.093l0.01,0.018l0.056-0.035l0,0l-0.056,0.035l0.22,0.38c0.025,0.045,0.011,0.102-0.033,0.128
			c-0.042,0.023-0.099,0.009-0.125-0.035l-0.228-0.399l-0.157,0.093l0.009,0.015l0.056-0.032l-0.056,0.032l0.128,0.223
			c0.025,0.044,0.011,0.101-0.033,0.126c-0.042,0.025-0.098,0.012-0.124-0.034l-0.137-0.239l-0.156,0.093l0.229,0.399
			c0.026,0.042,0.011,0.099-0.031,0.125c-0.044,0.026-0.1,0.01-0.126-0.036l-0.219-0.381l-0.088,0.053l0.088-0.053l-0.009-0.015
			l-0.158,0.092l0.137,0.237c0.026,0.045,0.011,0.101-0.031,0.126c-0.044,0.026-0.1,0.011-0.125-0.033l-0.128-0.223l-0.041,0.023
			l0.041-0.023l-0.01-0.018l-0.156,0.092l0.229,0.401c0.025,0.042,0.011,0.098-0.032,0.125c-0.044,0.026-0.099,0.012-0.124-0.033
			l-0.23-0.399l-0.155,0.09l0.136,0.241c0.025,0.042,0.011,0.1-0.033,0.125c-0.043,0.024-0.098,0.01-0.124-0.036l-0.137-0.237
			l-0.252,0.15l0.094-0.058l0.01,0.015l0.081-0.047l0,0l-0.081,0.047l0.22,0.381c0.025,0.046,0.011,0.103-0.034,0.128
			c-0.042,0.026-0.098,0.011-0.124-0.035l-0.229-0.397l-0.307,0.181l0.15-0.087l0.138,0.237c0.024,0.044,0.01,0.101-0.034,0.127
			c-0.043,0.025-0.098,0.011-0.123-0.034l-0.137-0.239l-0.156,0.092l0.227,0.399c0.027,0.043,0.012,0.099-0.031,0.124
			c-0.044,0.026-0.099,0.012-0.125-0.032l-0.229-0.4l-0.156,0.092c-0.085,0.051-0.116,0.164-0.065,0.253l1.793,3.118
			c0.034,0.06,0.096,0.093,0.163,0.091c0.065-0.002,0.126-0.039,0.156-0.101l2.873-5.875C51.215,21.325,51.199,21.238,51.141,21.183
			z M48.495,22.613l0.115-0.068l0,0L48.495,22.613z M48.091,25.639l-0.749-1.299l1.947-1.151L48.091,25.639z"/>
		<path style="fill:#262626;" d="M51.048,28.831c0.401-0.389,0.804-0.776,1.207-1.163c0.15-0.144,0.351-0.142,0.499,0.003
			c0.104-0.099,0.207-0.197,0.308-0.295c-0.136-0.16-0.129-0.363,0.021-0.508c0.402-0.387,0.805-0.774,1.207-1.162
			c0.025-0.023,0.051-0.049,0.079-0.074c-0.723-0.774-1.438-1.535-2.164-2.307c-0.025,0.023-0.05,0.046-0.075,0.071
			c-0.36,0.348-0.717,0.701-1.083,1.041c-0.21,0.194-0.367,0.407-0.365,0.713c-0.193-0.001-0.369,0.041-0.522,0.153
			c-0.019,0.013-0.037,0.027-0.054,0.043c-0.421,0.405-0.841,0.809-1.263,1.216c-0.011,0.012-0.022,0.023-0.037,0.039
			c0.718,0.768,1.437,1.532,2.161,2.302C50.999,28.878,51.024,28.855,51.048,28.831z M51.216,24.843
			c0.322-0.31,0.646-0.622,0.975-0.938c0.535,0.569,1.066,1.137,1.605,1.712c-0.207,0.202-0.423,0.399-0.626,0.608
			c-0.2,0.206-0.455,0.36-0.568,0.66c-0.473-0.502-0.936-0.998-1.4-1.492C51.049,25.231,51.056,24.998,51.216,24.843z
			 M49.443,26.551c0.301-0.291,0.605-0.58,0.906-0.873c0.121-0.118,0.262-0.13,0.416-0.101c0.024,0.004,0.052,0.015,0.067,0.032
			c0.49,0.519,0.976,1.039,1.476,1.569c-0.237,0.062-0.374,0.238-0.53,0.384c-0.24,0.229-0.475,0.458-0.713,0.686
			c-0.025,0.026-0.051,0.048-0.08,0.078c-0.537-0.573-1.068-1.139-1.606-1.712C49.401,26.592,49.422,26.573,49.443,26.551z"/>
		<path style="fill:#262626;" d="M50.876,26.209c-0.077-0.088-0.159-0.172-0.238-0.257c-0.244,0.232-0.477,0.456-0.71,0.684
			c0.09,0.097,0.176,0.188,0.272,0.289c0.227-0.216,0.448-0.429,0.666-0.644C50.88,26.267,50.886,26.223,50.876,26.209z"/>
		<path style="fill:#262626;" d="M51.164,26.52c-0.238,0.23-0.472,0.453-0.703,0.676c0.094,0.1,0.183,0.194,0.271,0.288
			c0.236-0.228,0.467-0.451,0.703-0.675C51.343,26.71,51.256,26.617,51.164,26.52z"/>
		<path style="fill:#262626;" d="M52.45,24.749c-0.09-0.097-0.181-0.191-0.268-0.286c-0.238,0.228-0.47,0.453-0.706,0.679
			c0.091,0.097,0.177,0.187,0.267,0.284C51.979,25.202,52.213,24.975,52.45,24.749z"/>
		<path style="fill:#262626;" d="M52.28,25.99c0.238-0.229,0.471-0.452,0.703-0.677c-0.093-0.097-0.181-0.19-0.27-0.286
			c-0.235,0.225-0.467,0.448-0.704,0.676C52.103,25.803,52.192,25.897,52.28,25.99z"/>
		<path style="fill:#262626;" d="M53.19,33.763c0.146-0.274,0.29-0.55,0.43-0.827c0.01-0.02,0.008-0.062-0.005-0.083
			c-0.16-0.261-0.326-0.521-0.488-0.782c-0.021-0.037-0.047-0.05-0.088-0.048c-0.303,0.015-0.604,0.026-0.907,0.039
			c-0.042,0.001-0.061,0.017-0.08,0.053c-0.046,0.089-0.093,0.181-0.14,0.271c0.094,0.112,0.188,0.218,0.28,0.324l0,0
			c0.126-0.241,0.424-0.339,0.656-0.212c0.24,0.13,0.332,0.431,0.206,0.673c-0.058,0.111-0.151,0.191-0.259,0.233
			c0.123,0.137,0.241,0.271,0.356,0.399C53.169,33.79,53.184,33.777,53.19,33.763z"/>
		<path style="fill:#262626;" d="M50.421,21.079c0.217-0.075,0.786,0.01,0.94-0.303c0.017-0.037,0.05-0.105,0.095-0.196
			c0.346-0.701,1.463-2.973,1.463-2.973s-0.346,0.398-0.369,0.436c-0.014,0.026,0.04,0.082,0.019,0.122
			c-0.039,0.077-0.151,0.183-0.238,0.355c-0.036,0.014,0,0-0.047-0.001c-0.159-0.005-0.287,0.088-0.441,0.164
			c0.098,0.006,0.17,0.011,0.242,0.016c-0.247,0.024-0.464,0.111-0.671,0.295c0.103-0.02,0.18-0.04,0.257-0.047
			c0.078-0.007,0.156-0.001,0.234,0c-0.397,0.037-0.75,0.162-1.021,0.471c0.255-0.027,0.504-0.052,0.753-0.078
			c-0.182,0.041-0.368,0.063-0.548,0.111c-0.175,0.045-0.354,0.101-0.474,0.292c0.108-0.01,0.192-0.02,0.277-0.027
			c-0.278,0.045-0.426,0.227-0.525,0.496c0.241-0.108,0.467-0.22,0.737-0.164c-0.61,0.128-0.748,0.186-0.825,0.327
			c0.127-0.037,0.263-0.076,0.399-0.113c-0.122,0.072-0.254,0.122-0.375,0.193c-0.128,0.071-0.214,0.186-0.235,0.336
			c0.165-0.062,0.318-0.123,0.473-0.181c-0.105,0.082-0.23,0.129-0.332,0.207c-0.096,0.075-0.165,0.185-0.247,0.281
			c0.126-0.061,0.255-0.121,0.387-0.16c-0.182,0.158-0.317,0.285-0.317,0.285S50.205,21.153,50.421,21.079z"/>
		<path style="fill:#262626;" d="M50.529,30.156c0.317,0.566,0.637,1.132,0.954,1.697c0.138-0.08,0.277-0.161,0.416-0.239
			c-0.318-0.566-0.64-1.138-0.956-1.697C50.803,29.996,50.666,30.076,50.529,30.156z"/>
		<path style="fill:#262626;" d="M56.702,28.961c-0.01-0.004-0.02-0.008-0.035-0.014c0.017-0.026,0.034-0.047,0.046-0.071
			c0.109-0.186,0.087-0.428-0.049-0.607c-0.287-0.382-0.577-0.757-0.865-1.136c-0.094-0.125-0.191-0.25-0.285-0.375
			c-0.186-0.244-0.506-0.293-0.749-0.107c-0.359,0.276-0.716,0.556-1.07,0.839c-0.234,0.187-0.269,0.513-0.087,0.754
			c0.286,0.375,0.572,0.749,0.86,1.124c0.092,0.122,0.188,0.245,0.278,0.369c0.157,0.22,0.434,0.296,0.662,0.195
			c0.003,0.006,0.006,0.014,0.006,0.024c0.025,0.355,0.049,0.712,0.074,1.066c0.001,0.006,0,0.016-0.001,0.025
			c0.009-0.003,0.016-0.003,0.022-0.006c0.091-0.07,0.182-0.142,0.272-0.211c-0.007-0.103-0.016-0.204-0.022-0.303
			c-0.011-0.152-0.018-0.301-0.027-0.45c-0.003-0.029,0.006-0.044,0.027-0.061c0.3-0.236,0.601-0.472,0.902-0.706
			c0.013-0.013,0.039-0.018,0.056-0.013c0.23,0.074,0.461,0.15,0.691,0.227c0.008,0.002,0.014,0.008,0.021,0.012
			c0.091-0.071,0.183-0.142,0.273-0.213c0.004-0.004,0.007-0.012,0.012-0.02c-0.116-0.037-0.229-0.075-0.343-0.113
			C57.148,29.114,56.925,29.037,56.702,28.961z M54.093,27.32c0.136-0.11,0.275-0.217,0.414-0.323
			c0.04-0.031,0.09-0.022,0.124,0.017c0.027,0.037,0.056,0.071,0.083,0.108c0.037,0.052,0.031,0.1-0.017,0.138
			c-0.065,0.053-0.132,0.104-0.198,0.157c-0.066,0.049-0.131,0.103-0.197,0.153c-0.051,0.04-0.097,0.035-0.137-0.013
			c-0.028-0.037-0.056-0.073-0.083-0.111C54.05,27.404,54.054,27.352,54.093,27.32z M55.332,29.627
			c-0.099,0.078-0.247,0.061-0.327-0.039c-0.08-0.101-0.062-0.252,0.039-0.333c0.103-0.084,0.249-0.063,0.329,0.04
			C55.451,29.398,55.434,29.547,55.332,29.627z M55.641,27.78c-0.015,0.016-0.03,0.03-0.046,0.044
			c-0.329,0.256-0.658,0.514-0.986,0.771c-0.07,0.056-0.149,0.093-0.238,0.065c-0.047-0.014-0.098-0.042-0.129-0.078
			c-0.088-0.104-0.17-0.214-0.25-0.324c-0.073-0.104-0.061-0.233,0.027-0.321c0.028-0.031,0.061-0.055,0.092-0.079
			c0.151-0.117,0.303-0.238,0.456-0.356c0.165-0.13,0.331-0.26,0.495-0.389c0.074-0.057,0.156-0.093,0.249-0.057
			c0.043,0.015,0.088,0.042,0.117,0.077c0.086,0.104,0.167,0.209,0.246,0.32C55.746,27.558,55.733,27.687,55.641,27.78z
			 M56.391,28.796c-0.101,0.079-0.247,0.06-0.326-0.041c-0.08-0.101-0.062-0.252,0.041-0.333c0.102-0.081,0.248-0.063,0.328,0.041
			C56.514,28.566,56.494,28.716,56.391,28.796z"/>
		<path style="fill:#262626;" d="M53.886,26.884c-0.021,0.015-0.039,0.031-0.061,0.047c-0.004,0.012-0.009,0.023-0.014,0.037
			c-0.028,0.067-0.006,0.147,0.057,0.185c0.063,0.041,0.142,0.031,0.194-0.027c0.048-0.053,0.05-0.137,0.002-0.196
			C54.015,26.87,53.954,26.866,53.886,26.884z"/>
		<path style="fill:#262626;" d="M54.234,26.633c-0.011,0.001-0.022,0.003-0.032,0.004c-0.021,0.015-0.042,0.032-0.062,0.049
			c-0.005,0.008-0.009,0.02-0.013,0.029c-0.03,0.066-0.014,0.14,0.042,0.188c0.051,0.04,0.127,0.04,0.181,0.001
			c0.057-0.043,0.075-0.118,0.048-0.184C54.371,26.655,54.304,26.62,54.234,26.633z"/>
		<path style="fill:#262626;" d="M48.827,27.374l-0.423,0.558c0.087,0.122,0.175,0.241,0.263,0.362l0.159-0.19l1.101,1.296
			l-0.208,0.29c0.139,0.179,0.279,0.358,0.417,0.534l0.575-0.904L48.827,27.374z"/>
		<path style="fill:#262626;" d="M54.035,29.394c-0.003-0.009-0.002-0.017-0.003-0.027c-0.031-0.056-0.062-0.111-0.093-0.164
			c-0.069-0.068-0.133-0.141-0.208-0.196c-0.146-0.111-0.314-0.16-0.496-0.16c-0.036,0-0.054-0.009-0.074-0.039
			c-0.235-0.336-0.628-0.461-1.015-0.323c-0.008,0.003-0.017,0.003-0.027,0.003c-0.061,0.036-0.123,0.071-0.185,0.106
			c-0.031,0.033-0.062,0.063-0.093,0.095c-0.184,0.201-0.247,0.439-0.207,0.708c0.006,0.042-0.002,0.063-0.037,0.085
			c-0.156,0.097-0.31,0.197-0.468,0.299c0.325,0.578,0.649,1.156,0.976,1.738c0.104-0.053,0.208-0.106,0.31-0.16
			c0.039-0.02,0.081-0.039,0.118-0.065c0.071-0.045,0.123-0.039,0.193,0.019c0.22,0.189,0.472,0.217,0.742,0.127
			c0.018-0.007,0.037-0.012,0.057-0.016c0.061-0.037,0.124-0.072,0.184-0.107c0.05-0.053,0.106-0.097,0.148-0.156
			c0.213-0.282,0.248-0.589,0.112-0.917c-0.01-0.022-0.012-0.056-0.001-0.072C54.111,29.925,54.136,29.666,54.035,29.394z
			 M51.677,30.113c-0.026-0.049-0.012-0.108,0.038-0.14c0.029-0.022,0.064-0.04,0.098-0.059c0.033-0.018,0.065-0.04,0.099-0.057
			c0.052-0.025,0.11-0.005,0.139,0.043c0.027,0.047,0.016,0.109-0.034,0.144c-0.066,0.04-0.133,0.081-0.203,0.116
			C51.763,30.188,51.704,30.163,51.677,30.113z M52.435,30.803c-0.031,0.02-0.062,0.036-0.094,0.055l0,0
			c-0.032,0.018-0.064,0.041-0.098,0.057c-0.054,0.024-0.112,0.006-0.139-0.04c-0.031-0.052-0.018-0.116,0.035-0.149
			c0.062-0.038,0.126-0.075,0.191-0.11c0.056-0.029,0.117-0.011,0.145,0.04C52.504,30.708,52.487,30.769,52.435,30.803z
			 M52.483,30.276c-0.074,0.042-0.147,0.086-0.22,0.126c-0.069,0.041-0.138,0.083-0.209,0.121c-0.069,0.04-0.13,0.028-0.164-0.029
			c-0.033-0.057-0.012-0.117,0.055-0.158c0.145-0.083,0.291-0.167,0.436-0.25c0.067-0.038,0.13-0.025,0.161,0.032
			C52.575,30.178,52.553,30.237,52.483,30.276z"/>
	</g>
	<g>
		<path style="fill:#262626;" d="M58.375,31.051c-0.083-0.068-0.186-0.033-0.203,0.068c-0.032,0.191-0.049,0.384-0.074,0.605
			c0.215-0.048,0.404-0.085,0.588-0.136c0.098-0.026,0.122-0.137,0.044-0.215C58.618,31.259,58.497,31.152,58.375,31.051z"/>
		<g>
			<path style="fill:#262626;" d="M55.193,32.093c-0.24-0.001-0.422,0.188-0.417,0.435c0.005,0.248,0.199,0.442,0.437,0.44
				c0.239-0.002,0.43-0.196,0.427-0.433C55.638,32.289,55.441,32.095,55.193,32.093z"/>
			<path style="fill:#262626;" d="M56.477,33.438c-0.086-0.079-0.178-0.149-0.268-0.227c-0.013-0.011-0.025-0.033-0.026-0.049
				c-0.012-0.171-0.01-0.346-0.039-0.514c-0.076-0.437-0.254-0.835-0.509-1.197c-0.116-0.164-0.24-0.322-0.408-0.438
				c-0.03-0.022-0.054-0.027-0.08,0c-0.093,0.09-0.198,0.174-0.278,0.276c-0.411,0.538-0.647,1.142-0.608,1.844
				c0.002,0.033-0.008,0.054-0.034,0.073c-0.082,0.068-0.164,0.133-0.243,0.203c-0.154,0.139-0.232,0.317-0.193,0.527
				c0.047,0.252,0.112,0.5,0.171,0.749c0.056,0.058,0.109,0.117,0.162,0.172c0.051,0.007,0.107-0.007,0.155-0.048
				c0.082-0.066,0.157-0.138,0.233-0.208c0.069-0.059,0.137-0.119,0.206-0.18c0.127,0.154,0.318,0.248,0.53,0.244
				c0.205-0.004,0.388-0.098,0.509-0.247c0.161,0.137,0.32,0.271,0.474,0.41c0.027,0.022,0.055,0.037,0.084,0.042
				c0.082-0.086,0.167-0.178,0.257-0.274c0.033-0.196,0.075-0.392,0.106-0.586C56.715,33.785,56.648,33.592,56.477,33.438z
				 M55.217,33.158c-0.346-0.004-0.628-0.29-0.633-0.639c-0.005-0.347,0.272-0.629,0.616-0.629c0.339,0,0.63,0.293,0.636,0.638
				C55.838,32.887,55.567,33.165,55.217,33.158z"/>
			<path style="fill:#262626;" d="M57.839,27.491c0.003-0.012,0.006-0.024,0.009-0.037c0-0.089-0.06-0.158-0.1-0.231
				c-0.05-0.095-0.104-0.188-0.157-0.283c-0.079-0.135-0.156-0.272-0.233-0.41c-0.036-0.064-0.074-0.129-0.11-0.19
				c-0.02-0.032-0.044-0.062-0.081-0.071c-0.013-0.004-0.026-0.009-0.037-0.004c-0.061,0.023-0.093-0.016-0.128-0.055
				c-0.005-0.004-0.006-0.008-0.009-0.013c-0.028-0.037-0.03-0.037,0.005-0.065c0.106-0.088,0.19-0.196,0.258-0.315
				c0.073-0.127,0.122-0.26,0.144-0.405c0.025-0.157,0.021-0.31-0.014-0.464c-0.038-0.167-0.108-0.317-0.207-0.455
				c-0.06-0.083-0.13-0.154-0.209-0.217c-0.123-0.098-0.256-0.171-0.406-0.214c-0.012-0.002-0.022-0.013-0.033-0.018
				c-0.008-0.002-0.017-0.006-0.026-0.009c-0.014,0-0.028,0.004-0.042,0c-0.132-0.028-0.264-0.032-0.396-0.013
				c-0.137,0.019-0.269,0.062-0.395,0.129c-0.103,0.056-0.196,0.125-0.278,0.207c-0.083,0.082-0.152,0.175-0.208,0.277
				c-0.042,0.078-0.074,0.157-0.099,0.24c-0.002,0.006-0.005,0.01-0.008,0.014c-0.005,0.021-0.009,0.04-0.014,0.062
				c0,0.008,0,0.017-0.001,0.025c-0.044,0.208-0.033,0.407,0.032,0.608c0.046,0.151,0.124,0.289,0.224,0.41
				c0.104,0.125,0.228,0.224,0.371,0.298c0.092,0.045,0.188,0.085,0.29,0.105c0.106,0.019,0.211,0.03,0.32,0.021
				c0.137-0.008,0.27-0.038,0.396-0.093c0.005-0.003,0.011-0.006,0.016-0.007c0.002-0.002,0.004-0.002,0.009-0.002
				c0.023,0.044,0.048,0.088,0.03,0.14c-0.002,0.015-0.012,0.03-0.021,0.038c-0.021,0.016-0.025,0.039-0.025,0.061
				c0.002,0.054,0.027,0.096,0.051,0.137c0.09,0.16,0.179,0.318,0.269,0.479c0.065,0.114,0.134,0.231,0.199,0.349
				c0.027,0.047,0.052,0.097,0.083,0.143c0.016,0.024,0.043,0.04,0.067,0.063c0.003,0.004,0.006,0.008,0.009,0.013
				c0.006,0.001,0.011,0.002,0.016,0.003c0.001-0.001,0.004-0.003,0.006-0.003c0.056,0.006,0.102-0.019,0.148-0.048
				c0.063-0.038,0.128-0.075,0.194-0.111C57.785,27.559,57.816,27.53,57.839,27.491z M56.028,26.026
				c-0.444-0.113-0.695-0.562-0.606-0.982c0.103-0.478,0.569-0.749,1.005-0.637c0.442,0.113,0.708,0.559,0.601,1.013
				C56.913,25.866,56.471,26.136,56.028,26.026z"/>
			<path style="fill:#262626;" d="M62.852,23.949c-0.102-0.092-0.206-0.186-0.313-0.28c0.047-0.081,0.034-0.146-0.037-0.202
				c-0.045-0.038-0.087-0.081-0.134-0.117c-0.028-0.023-0.036-0.045-0.025-0.083c0.122-0.427-0.102-0.843-0.521-0.968
				c-0.039-0.013-0.049-0.032-0.058-0.068c-0.012-0.062-0.024-0.128-0.056-0.18c-0.353-0.549-0.708-1.094-1.062-1.64
				c-0.028-0.038-0.075-0.073-0.12-0.088c-0.218-0.07-0.439-0.135-0.658-0.199c-0.026-0.007-0.057-0.001-0.085-0.001
				c0.009,0.029,0.012,0.061,0.026,0.083c0.349,0.542,0.699,1.084,1.049,1.626c0.109,0.169,0.248,0.327,0.256,0.549
				c0.002,0.058-0.062,0.194-0.117,0.192c-0.109,0-0.233,0.01-0.33-0.033c-0.686-0.318-1.368-0.652-2.049-0.977l-1.426-0.697
				c0,0,0,0,0-0.001c-0.009-0.022-0.265-0.149-0.287-0.163c-0.143-0.089-0.303-0.121-0.464-0.152
				c-0.055-0.01-0.098-0.014-0.108,0.031c-0.028-0.023-0.053-0.054-0.085-0.07c-0.067-0.034-0.139-0.061-0.21-0.085
				c-0.02-0.005-0.048,0.007-0.072,0.011c0.006,0.007,0.013,0.015,0.021,0.022c0.01,0.004,0.02,0.004,0.027,0.011
				c0.142,0.124,0.285,0.252,0.432,0.375c0.097,0.08,0.197,0.159,0.302,0.228c0.13,0.085,0.608,0.29,0.757,0.379
				c0-0.003-0.002-0.005-0.002-0.007l1.334,0.829l0.401,0.249c0.001,0.001,0.002,0.002,0.005,0.002
				c0.486,0.235,0.974,0.47,1.463,0.703c0.027,0.014,0.057,0.021,0.087,0.019c0.06-0.003,0.087,0.021,0.109,0.081
				c0.13,0.345,0.502,0.563,0.845,0.473c0.151-0.038,0.245-0.005,0.337,0.1c0.064,0.075,0.138,0.108,0.228,0.033
				c0.107,0.096,0.215,0.188,0.319,0.285c0.051,0.042,0.093,0.039,0.132-0.011c0.031-0.036,0.062-0.072,0.093-0.107
				C62.916,24.033,62.913,24.003,62.852,23.949z M61.864,23.265c-0.121,0.139-0.332,0.155-0.466,0.034
				c-0.136-0.119-0.151-0.342-0.033-0.479c0.121-0.135,0.343-0.15,0.475-0.026C61.975,22.915,61.986,23.125,61.864,23.265z"/>
			<path style="fill:#262626;" d="M59.676,18.959c-0.219-0.081-0.241-0.117-0.407-0.333c-0.099-0.131-0.24-0.218-0.363-0.325
				c-0.009,0.009-0.013,0.018-0.023,0.027c0.006,0.014,0.011,0.031,0.019,0.041c0.22,0.256,0.377,0.564,0.483,0.897
				c0.13,0.415,0.362,0.668,0.737,0.756c0.112,0.024,0.216,0.086,0.347,0.143c-0.039-0.074-0.059-0.116-0.083-0.16
				c-0.166-0.331-0.45-0.67-0.62-0.998C59.762,19.004,59.682,18.967,59.676,18.959z"/>
			<path style="fill:#262626;" d="M63.499,25.223c-0.413-0.218-0.829-0.429-1.243-0.645c-0.058-0.031-0.1-0.028-0.155,0.009
				c-0.385,0.258-0.771,0.514-1.161,0.766c-0.053,0.035-0.069,0.072-0.063,0.133c0.013,0.235,0.026,0.472,0.038,0.707
				c0.001,0,0.001,0,0.001,0c0.012,0.237,0.023,0.473,0.042,0.708c0.003,0.039,0.038,0.093,0.074,0.112
				c0.405,0.215,0.813,0.423,1.224,0.632c0.45-0.633,0.898-1.291,1.334-1.959c-0.008-0.124-0.015-0.243-0.021-0.363
				C63.567,25.288,63.532,25.239,63.499,25.223z M62.299,26.873c-0.411,0.021-0.758-0.296-0.778-0.715
				c-0.023-0.418,0.295-0.78,0.697-0.799c0.416-0.02,0.767,0.3,0.787,0.722C63.027,26.492,62.709,26.851,62.299,26.873z"/>
			<path style="fill:#262626;" d="M59.251,23.024c-0.019-0.033-0.045-0.054-0.082-0.068c-0.379-0.135-0.761-0.273-1.142-0.409
				c-0.152-0.055-0.302-0.109-0.453-0.163c-0.001,0-0.002-0.001-0.004-0.002c-0.01,0-0.019-0.003-0.029-0.004
				c-0.064,0.009-0.099,0.047-0.12,0.11c-0.134,0.387-0.27,0.773-0.405,1.162c-0.026,0.07,0.002,0.133,0.07,0.159
				c0.176,0.064,0.356,0.127,0.533,0.19c0.304,0.108,0.608,0.218,0.911,0.326c0.046,0.016,0.091,0.035,0.137,0.048
				c0.076,0.021,0.141,0.003,0.202-0.049c0.08-0.066,0.139-0.151,0.194-0.241c0.088-0.151,0.153-0.317,0.195-0.486
				c0.031-0.12,0.049-0.239,0.041-0.364C59.298,23.158,59.291,23.087,59.251,23.024z"/>
			<path style="fill:#262626;" d="M60.045,26.096c-0.181-0.377-0.366-0.754-0.548-1.13c-0.009-0.014-0.007-0.026,0.005-0.041
				c0.044-0.058,0.065-0.123,0.072-0.197c0.002-0.021-0.007-0.032-0.026-0.039c-0.197-0.067-0.392-0.139-0.587-0.211
				c-0.014-0.005-0.024-0.005-0.034,0.011c-0.083,0.118-0.099,0.244-0.038,0.375c0.008,0.016,0.008,0.025-0.003,0.039
				c-0.361,0.472-0.723,0.939-1.083,1.41c-0.047,0.062-0.041,0.133,0.019,0.178c0.024,0.02,0.052,0.041,0.081,0.049
				c0.049,0.012,0.092-0.009,0.122-0.048c0.327-0.424,0.651-0.848,0.977-1.267c0.005-0.009,0.012-0.015,0.018-0.023
				c0.001,0.001,0.004,0.001,0.004,0.003c0,0.009,0,0.019-0.001,0.028c-0.046,0.45-0.09,0.897-0.137,1.345
				c-0.004,0.045,0,0.087,0.037,0.117c0.017,0.015,0.039,0.021,0.061,0.031c0.015,0.005,0.034,0.005,0.048,0.007
				c0.072,0.01,0.13-0.048,0.136-0.113c0.046-0.453,0.091-0.908,0.138-1.362c0-0.009,0-0.017,0.001-0.025c0.001,0,0.002,0,0.005,0
				c0.005,0.007,0.009,0.014,0.013,0.021c0.216,0.446,0.43,0.891,0.646,1.334c0.021,0.039,0.037,0.079,0.058,0.116
				c0.034,0.062,0.093,0.086,0.156,0.057c0.029-0.012,0.063-0.029,0.084-0.053c0.038-0.04,0.035-0.092,0.012-0.141
				C60.198,26.407,60.122,26.251,60.045,26.096z"/>
			<path style="fill:#262626;" d="M59.196,24.407c0.187,0.066,0.372,0.132,0.558,0.201c0.055,0.02,0.099,0.001,0.142-0.03
				c0.072-0.054,0.124-0.125,0.168-0.201c0.079-0.133,0.132-0.273,0.166-0.422c0.025-0.111,0.041-0.228,0.017-0.342
				c-0.011-0.046-0.024-0.09-0.065-0.117c-0.023-0.014-0.051-0.022-0.079-0.033c-0.213-0.079-0.427-0.156-0.641-0.232
				c-0.004-0.001-0.009-0.001-0.012-0.001c-0.011,0.415-0.143,0.791-0.399,1.121C59.1,24.372,59.148,24.389,59.196,24.407z"/>
			<path style="fill:#262626;" d="M60.908,23.946c-0.167-0.059-0.332-0.12-0.496-0.181c-0.004,0-0.007,0-0.011,0
				c-0.023,0.287-0.112,0.547-0.277,0.785c0.061,0.021,0.122,0.044,0.183,0.064c0.109,0.038,0.218,0.076,0.326,0.117
				c0.038,0.014,0.069,0.009,0.1-0.012c0.064-0.044,0.107-0.108,0.14-0.173c0.062-0.119,0.105-0.243,0.114-0.377
				c0.005-0.049-0.001-0.094-0.01-0.14C60.973,23.99,60.948,23.96,60.908,23.946z"/>
			<path style="fill:#262626;" d="M63.973,24.025c-0.283,0-0.514,0.234-0.514,0.522c0,0.289,0.231,0.521,0.514,0.521
				c0.002,0,0.005-0.001,0.009-0.001c0.155-0.243,0.307-0.492,0.457-0.741C64.357,24.148,64.18,24.025,63.973,24.025z"/>
			<path style="fill:#262626;" d="M58.508,30.347c-0.303-0.181-0.465,0.068-0.504,0.386c-0.034,0.27-0.063,0.541-0.107,0.81
				c-0.008,0.053-0.064,0.123-0.114,0.14c-0.328,0.116-0.66,0.222-0.99,0.33c-0.175,0.058-0.308,0.237-0.301,0.414
				c0.002,0.034,0.034,0.072,0.062,0.097c0.311,0.286,0.624,0.567,0.937,0.848c0.042,0.037,0.101,0.046,0.163,0.034
				c0.103-0.116,0.207-0.235,0.313-0.356c0.068-0.324,0.135-0.646,0.193-0.969c0.021-0.121,0.07-0.169,0.184-0.194
				c0.26-0.057,0.518-0.125,0.779-0.188c0.114-0.139,0.233-0.281,0.35-0.425c-0.007-0.013-0.012-0.022-0.022-0.034L58.508,30.347z
				 M59.278,31.447c-0.011,0.04-0.071,0.078-0.116,0.089c-0.322,0.086-0.645,0.169-0.97,0.243c-0.09,0.019-0.129,0.06-0.145,0.152
				c-0.07,0.371-0.144,0.74-0.224,1.108c-0.013,0.059-0.049,0.135-0.097,0.162c-0.032,0.013-0.102-0.047-0.155-0.078
				c-0.02-0.013-0.037-0.034-0.069-0.062c0.144-0.03,0.188-0.116,0.195-0.248c0.014-0.234,0.045-0.467,0.071-0.717
				c-0.271,0.061-0.526,0.106-0.774,0.178c-0.063,0.018-0.105,0.109-0.16,0.175c-0.011-0.006-0.037-0.022-0.055-0.043
				c-0.037-0.042-0.103-0.102-0.091-0.13c0.02-0.05,0.078-0.101,0.131-0.122c0.249-0.088,0.499-0.166,0.748-0.25
				c0.15-0.051,0.344-0.069,0.432-0.173c0.083-0.101,0.057-0.297,0.075-0.452c0.03-0.208,0.049-0.42,0.084-0.628
				c0.009-0.056,0.047-0.12,0.089-0.152c0.02-0.014,0.098,0.028,0.134,0.061c0.28,0.249,0.56,0.5,0.835,0.755
				C59.25,31.348,59.288,31.41,59.278,31.447z"/>
			<path style="fill:#262626;" d="M55.665,34.85c0,0.001,0.001,0.002,0.002,0.004c-0.025-0.03-0.051-0.06-0.081-0.083
				c0.021,0.034,0.04,0.074,0.053,0.115c0.011,0.029,0.013,0.062,0.021,0.095c0,0.019,0,0.04,0,0.062
				c-0.002,0.004-0.004,0.009-0.005,0.014c-0.006,0.059-0.022,0.112-0.052,0.165c-0.118,0.208-0.235,0.415-0.354,0.625
				c-0.003,0.006-0.007,0.012-0.013,0.021c-0.004-0.008-0.007-0.013-0.011-0.015c-0.119-0.209-0.238-0.417-0.355-0.628
				c-0.021-0.036-0.033-0.078-0.046-0.12c-0.007-0.021-0.008-0.042-0.012-0.063c0-0.02,0-0.041,0-0.061
				c0.001-0.005,0.002-0.009,0.002-0.015c0.009-0.07,0.033-0.137,0.07-0.193c-0.031,0.023-0.058,0.053-0.082,0.083
				c-0.135,0.111-0.225,0.268-0.25,0.455c0.427,0.446,0.674,0.69,0.674,0.69s0.253-0.252,0.691-0.706
				c-0.006-0.034-0.012-0.066-0.023-0.099C55.846,35.046,55.768,34.933,55.665,34.85z"/>
			<path style="fill:#262626;" d="M56.966,30.081c-0.339,0-0.615,0.281-0.615,0.623c0,0.344,0.276,0.625,0.615,0.625
				c0.341,0,0.616-0.281,0.616-0.625C57.582,30.361,57.307,30.081,56.966,30.081z"/>
			<polygon style="fill:#262626;" points="57.939,29.038 58.965,27.704 57.77,27.832 			"/>
			<path style="fill:#262626;" d="M61.509,28.132c-0.007-0.005-0.011-0.013-0.014-0.021c-0.372-0.308-0.745-0.616-1.117-0.923
				c-0.019-0.01-0.037-0.02-0.055-0.031c-0.144-0.07-0.279-0.056-0.41,0.037c-0.005,0.003-0.011,0.003-0.018,0.008
				c-0.541,0.671-1.083,1.343-1.624,2.017c-0.033,0.082-0.058,0.165-0.039,0.259c0.017,0.086,0.056,0.162,0.124,0.22
				c0.374,0.309,0.75,0.618,1.123,0.928c0.149,0.123,0.386,0.099,0.51-0.054c0.46-0.575,0.924-1.147,1.386-1.723
				c0.073-0.096,0.147-0.195,0.22-0.293C61.654,28.409,61.618,28.227,61.509,28.132z M59.386,28.329
				c0.064-0.079,0.179-0.09,0.256-0.025c0.083,0.066,0.095,0.187,0.024,0.271c-0.061,0.072-0.182,0.088-0.257,0.017
				C59.333,28.527,59.321,28.408,59.386,28.329z M58.921,29.503c-0.059,0.073-0.186,0.081-0.26,0.019
				c-0.075-0.063-0.085-0.188-0.021-0.267c0.064-0.076,0.181-0.088,0.257-0.024C58.979,29.297,58.989,29.419,58.921,29.503z
				 M59.012,28.795c0.063-0.081,0.186-0.093,0.261-0.029c0.078,0.064,0.086,0.188,0.023,0.271c-0.061,0.075-0.183,0.086-0.259,0.021
				C58.959,28.995,58.949,28.872,59.012,28.795z M59.382,29.883c-0.061,0.073-0.187,0.084-0.26,0.02
				c-0.074-0.063-0.084-0.191-0.024-0.267c0.063-0.075,0.187-0.086,0.263-0.022C59.439,29.679,59.447,29.802,59.382,29.883z
				 M59.471,29.171c0.061-0.073,0.19-0.085,0.264-0.021c0.077,0.065,0.085,0.185,0.021,0.27c-0.061,0.074-0.182,0.084-0.259,0.018
				C59.422,29.377,59.409,29.247,59.471,29.171z M59.842,30.26c-0.062,0.076-0.185,0.087-0.257,0.023
				c-0.079-0.066-0.088-0.184-0.022-0.265c0.065-0.081,0.181-0.092,0.257-0.027C59.9,30.06,59.911,30.178,59.842,30.26z
				 M59.844,28.709c0.063-0.079,0.182-0.09,0.26-0.023c0.081,0.068,0.091,0.184,0.026,0.267c-0.061,0.076-0.18,0.085-0.258,0.02
				C59.795,28.909,59.781,28.787,59.844,28.709z M60.214,29.798c-0.061,0.076-0.179,0.085-0.258,0.021
				c-0.075-0.064-0.084-0.184-0.019-0.264c0.062-0.079,0.179-0.091,0.255-0.03C60.272,29.589,60.282,29.714,60.214,29.798z
				 M60.588,29.334c-0.063,0.077-0.176,0.085-0.256,0.02c-0.079-0.066-0.089-0.183-0.023-0.264c0.065-0.08,0.176-0.089,0.257-0.024
				C60.647,29.133,60.658,29.248,60.588,29.334z M61.28,28.477c-0.073,0.094-0.145,0.188-0.219,0.281
				c-0.048,0.062-0.086,0.063-0.147,0.013c-0.353-0.291-0.708-0.583-1.06-0.875c-0.054-0.044-0.057-0.083-0.013-0.138
				c0.077-0.095,0.154-0.192,0.232-0.286c0.037-0.048,0.074-0.052,0.121-0.014c0.183,0.149,0.36,0.298,0.542,0.447
				c0.178,0.146,0.351,0.291,0.528,0.438C61.321,28.388,61.326,28.42,61.28,28.477z"/>
		</g>
	</g>
	<g>
		<path style="fill:#262626;" d="M67.379,10.764c0.038-0.017,0.081-0.042,0.107-0.076c0.021-0.022,0.035-0.069,0.025-0.093
			c-0.012-0.025-0.055-0.049-0.083-0.049c-0.054,0.002-0.107,0.015-0.158,0.035c-0.112,0.042-0.221,0.098-0.335,0.139
			c-0.04,0.014-0.09,0.003-0.135-0.001c-0.015-0.001-0.035-0.024-0.041-0.042c-0.002-0.011,0.017-0.031,0.032-0.04
			c0.054-0.039,0.111-0.073,0.167-0.111c0.38-0.251,0.643-0.595,0.802-1.024c0.03-0.082-0.006-0.173-0.079-0.214
			c-0.091-0.05-0.193-0.024-0.242,0.072c-0.04,0.075-0.069,0.157-0.108,0.23c-0.253,0.474-0.643,0.767-1.156,0.888
			c-0.314,0.075-0.628,0.052-0.934-0.058c-0.473-0.173-0.816-0.496-1.021-0.962c-0.106-0.246-0.152-0.505-0.135-0.773
			c0.006-0.099,0.017-0.199,0.038-0.298c0.025-0.122,0.106-0.147,0.206-0.074c0.075,0.057,0.063,0.137,0.051,0.212
			c-0.054,0.359,0.013,0.695,0.196,1.005c0.17,0.285,0.411,0.49,0.716,0.605c0.436,0.164,0.859,0.125,1.262-0.113
			c0.209-0.125,0.376-0.291,0.496-0.502c0.277-0.488,0.28-0.985,0.017-1.479c-0.128-0.238-0.315-0.423-0.551-0.554
			c-0.426-0.233-0.862-0.248-1.301-0.059c-0.19,0.084-0.352,0.21-0.488,0.371c-0.152,0.174-0.209,0.183-0.416,0.077
			c-0.091-0.045-0.179-0.112-0.293-0.09c-0.005,0.004-0.011,0.007-0.019,0.008C63.941,7.833,63.91,7.89,63.89,7.953
			c-0.023,0.07-0.054,0.138-0.073,0.208C63.64,8.777,63.722,9.358,64.055,9.9c0.206,0.336,0.491,0.589,0.842,0.762
			c0.463,0.229,0.946,0.274,1.446,0.145c0.072-0.019,0.143-0.037,0.212-0.057c0.017,0.079-0.012,0.139-0.085,0.172
			c-0.111,0.054-0.226,0.101-0.337,0.153c-0.058,0.027-0.119,0.054-0.15,0.118c-0.024,0.051-0.01,0.089,0.042,0.109
			c0.059,0.023,0.112,0.006,0.167-0.016C66.585,11.111,66.984,10.939,67.379,10.764z"/>
		<path style="fill:#262626;" d="M66.626,13.714c-0.085,0.007-0.17,0.017-0.256,0.022c-0.054,0.001-0.09,0.023-0.107,0.075
			c0.003,0.038,0.006,0.076,0.009,0.115c0.025,0.055,0.068,0.071,0.125,0.063c0.061-0.009,0.125-0.011,0.186-0.018
			c0.146-0.013,0.157-0.026,0.139-0.175C66.716,13.737,66.686,13.71,66.626,13.714z"/>
		<path style="fill:#262626;" d="M67.248,11.33c-0.001-0.056-0.022-0.093-0.075-0.113c-0.038,0.004-0.075,0.006-0.112,0.01
			c-0.056,0.023-0.072,0.068-0.062,0.125c0.005,0.063,0.012,0.127,0.014,0.188c0.012,0.149,0.023,0.158,0.169,0.145
			c0.063-0.008,0.092-0.04,0.086-0.105C67.262,11.498,67.253,11.416,67.248,11.33z"/>
		<path style="fill:#262626;" d="M66.353,13.489c0.063-0.007,0.128-0.013,0.192-0.016c0.132-0.006,0.155-0.035,0.137-0.165
			c-0.009-0.073-0.039-0.101-0.113-0.095c-0.077,0.007-0.156,0.016-0.236,0.021c-0.059,0.002-0.097,0.025-0.109,0.086
			c0.002,0.033,0.005,0.069,0.008,0.104C66.253,13.482,66.296,13.498,66.353,13.489z"/>
		<path style="fill:#262626;" d="M67.769,14.705c0.002,0.058,0.027,0.099,0.084,0.113c0.032-0.003,0.068-0.006,0.102-0.01
			c0.055-0.022,0.075-0.063,0.065-0.124c-0.009-0.064-0.012-0.131-0.017-0.195c-0.012-0.143-0.023-0.151-0.163-0.138
			c-0.071,0.006-0.098,0.037-0.09,0.111C67.754,14.544,67.763,14.624,67.769,14.705z"/>
		<path style="fill:#262626;" d="M67.742,11.289c-0.004-0.061-0.027-0.1-0.086-0.115c-0.036,0.004-0.074,0.007-0.11,0.01
			c-0.049,0.029-0.063,0.071-0.058,0.126c0.01,0.064,0.012,0.129,0.019,0.193c0.012,0.14,0.024,0.152,0.161,0.137
			c0.072-0.007,0.098-0.037,0.093-0.112C67.754,11.448,67.745,11.367,67.742,11.289z"/>
		<path style="fill:#262626;" d="M68.001,11.459c0.006,0.153,0.039,0.153,0.167,0.138c0.064-0.006,0.088-0.034,0.085-0.098
			c-0.007-0.086-0.016-0.174-0.019-0.26c-0.002-0.057-0.026-0.091-0.081-0.11c-0.037,0.005-0.074,0.009-0.11,0.012
			c-0.047,0.027-0.066,0.064-0.058,0.119C67.994,11.327,67.999,11.395,68.001,11.459z"/>
		<path style="fill:#262626;" d="M66.263,12.491c0.081-0.01,0.162-0.014,0.242-0.021c0.083-0.008,0.104-0.035,0.096-0.116
			c-0.002-0.019-0.002-0.037-0.003-0.057c-0.008-0.058-0.038-0.084-0.094-0.079c-0.087,0.006-0.173,0.019-0.26,0.02
			c-0.056,0.003-0.089,0.027-0.106,0.078c0.003,0.038,0.005,0.078,0.01,0.115C66.17,12.481,66.207,12.497,66.263,12.491z"/>
		<path style="fill:#262626;" d="M66.307,12.991c0.065-0.011,0.133-0.015,0.203-0.018c0.141-0.006,0.145-0.044,0.131-0.164
			c-0.008-0.074-0.034-0.095-0.107-0.09c-0.085,0.006-0.168,0.016-0.253,0.021c-0.053,0.002-0.086,0.029-0.102,0.08
			c0.004,0.038,0.007,0.077,0.011,0.114C66.213,12.979,66.252,12.998,66.307,12.991z"/>
		<path style="fill:#262626;" d="M67.281,14.754c0.002,0.058,0.025,0.088,0.076,0.107c0.038-0.003,0.075-0.006,0.114-0.01
			c0.045-0.025,0.063-0.064,0.058-0.121c-0.011-0.064-0.014-0.132-0.018-0.197c-0.014-0.147-0.022-0.155-0.169-0.139
			c-0.063,0.006-0.087,0.036-0.082,0.101C67.266,14.581,67.277,14.668,67.281,14.754z"/>
		<path style="fill:#262626;" d="M68.347,12.354c-0.282,0.024-0.567,0.049-0.849,0.074c-0.082,0.007-0.115,0.05-0.109,0.133
			c0.012,0.154,0.025,0.309,0.039,0.462c0.012,0.153,0.025,0.306,0.039,0.458c0.008,0.093,0.044,0.125,0.136,0.118
			c0.247-0.019,0.493-0.042,0.739-0.063C68.361,13.134,68.363,12.741,68.347,12.354z"/>
		<ellipse style="fill:#262626;" cx="65.305" cy="11.754" rx="0.541" ry="0.548"/>
		<ellipse style="fill:#262626;" cx="65.127" cy="18.646" rx="0.572" ry="0.579"/>
		<circle style="fill:#262626;" cx="64.088" cy="19.293" r="0.274"/>
		<circle style="fill:#262626;" cx="64.36" cy="17.151" r="0.338"/>
		<path style="fill:#262626;" d="M64.114,18.295c-0.14,0.076-0.265,0.148-0.391,0.217c-0.078,0.044-0.129,0.036-0.163-0.023
			c-0.036-0.062-0.017-0.12,0.059-0.163c0.113-0.065,0.231-0.129,0.345-0.193c0.043-0.023,0.085-0.047,0.133-0.074
			c-0.023-0.046-0.046-0.078-0.06-0.112c-0.031-0.08-0.072-0.085-0.144-0.041c-0.131,0.08-0.266,0.151-0.4,0.224
			c-0.068,0.038-0.133,0.015-0.154-0.052c-0.025-0.074,0.014-0.116,0.072-0.147c0.124-0.069,0.249-0.139,0.384-0.213
			c-0.202-0.103-0.379-0.102-0.57,0.005c-0.334,0.182-0.667,0.369-1,0.555c-0.042,0.024-0.081,0.049-0.115,0.08
			c-0.232,0.214-0.269,0.562-0.087,0.819c0.175,0.249,0.517,0.322,0.79,0.168c0.328-0.183,0.657-0.365,0.984-0.551
			c0.048-0.025,0.094-0.057,0.133-0.094C64.038,18.594,64.104,18.467,64.114,18.295z"/>
		<path style="fill:#262626;" d="M62.897,19.5c-0.049,0.02-0.095,0.046-0.145,0.062c-0.405,0.122-0.773-0.062-0.933-0.389
			c-0.188-0.382-0.052-0.826,0.296-1.036c0.077-0.045,0.098-0.103,0.061-0.167c-0.037-0.066-0.107-0.083-0.183-0.032
			c-0.255,0.166-0.429,0.392-0.469,0.698c-0.021,0.159-0.004,0.32-0.004,0.489c-0.19,0.104-0.396,0.218-0.602,0.334
			c-0.046-0.083-0.088-0.161-0.131-0.237c-0.046-0.086-0.107-0.107-0.173-0.068c-0.064,0.037-0.076,0.097-0.031,0.18
			c0.154,0.283,0.307,0.569,0.465,0.854c0.04,0.077,0.101,0.101,0.165,0.066c0.067-0.035,0.081-0.101,0.035-0.184
			c-0.042-0.078-0.084-0.155-0.13-0.236c0.213-0.116,0.42-0.233,0.627-0.349c0.02,0.019,0.039,0.039,0.059,0.06
			c0.309,0.313,0.814,0.38,1.184,0.16c0.062-0.037,0.08-0.086,0.051-0.147C63.011,19.496,62.96,19.473,62.897,19.5z"/>
		<polygon style="fill:#262626;" points="62.427,22.154 61.82,21.759 62.211,21.144 62.817,21.54 		"/>
		<polygon style="fill:#262626;" points="63.818,22.436 63.02,22.158 63.291,21.348 64.091,21.625 		"/>
		<path style="fill:#262626;" d="M66.607,20.188c0.224-0.557,0.701-1.738,0.901-2.35c-0.036-0.116-0.127-0.148-0.26-0.09
			c-0.229,0.099-0.429,0.239-0.559,0.462c-0.269,0.453-0.536,0.908-0.811,1.359c-0.032,0.052-0.097,0.107-0.152,0.115
			c-1.136,0.162-2.27,0.327-3.408,0.47c-0.237,0.03-0.392,0.108-0.483,0.331c-0.046,0.113-0.119,0.212-0.188,0.337
			c1.083,0.185,2.125,0.361,3.212,0.544c-0.132,0.229-0.25,0.425-0.358,0.625c-0.094,0.171-0.189,0.344-0.262,0.523
			c-0.032,0.079-0.059,0.111-0.141,0.113c-0.358,0.018-0.717,0.037-1.078,0.067c-0.053,0.001-0.117,0.046-0.148,0.09
			c-0.089,0.126-0.162,0.26-0.243,0.392c0.017,0.011,0.033,0.019,0.048,0.028c0.358,0.052,0.715,0.118,1.074,0.145
			c0.304,0.023,0.513,0.153,0.68,0.409c0.059,0.089,0.122,0.179,0.188,0.265c0.13-0.224,0.263-0.449,0.392-0.676
			c-0.042-0.088-0.084-0.179-0.124-0.266c-0.018-0.041-0.03-0.106-0.011-0.136c0.124-0.197,0.26-0.385,0.384-0.58
			c0.109-0.178,0.208-0.36,0.328-0.565c0.052,0.066,0.103,0.131,0.156,0.194L66.607,20.188z"/>
		<path style="fill:#262626;" d="M67.954,15.671c-0.311-0.278-0.615-0.562-0.979-0.769c-0.154-0.086-0.316-0.161-0.478-0.234
			c-0.122-0.056-0.247-0.101-0.371-0.146c-0.11-0.04-0.224-0.079-0.338-0.11c-0.072-0.021-0.099-0.002-0.135,0.062
			c-0.04,0.071-0.077,0.144-0.116,0.216c-0.175,0.307-0.33,0.621-0.447,0.954c-0.071,0.2-0.128,0.401-0.16,0.61
			c-0.051,0.343-0.053,0.686,0.084,1.013c0.104,0.247,0.231,0.479,0.523,0.548c0.113,0.009,0.225,0.018,0.337,0.027
			c0.074-0.011,0.151-0.021,0.225-0.034c0.161-0.028,0.309-0.089,0.448-0.167c0.313-0.167,0.571-0.403,0.805-0.669
			c0.206-0.235,0.388-0.488,0.549-0.755c0.033-0.052,0.063-0.104,0.095-0.155c0.021-0.098,0.042-0.197,0.063-0.294
			c-0.008-0.007-0.015-0.013-0.021-0.021C68.008,15.722,67.981,15.696,67.954,15.671z M65.539,15.497
			c0.144-0.029,0.275,0.001,0.401,0.065c0.094,0.049,0.16,0.134,0.217,0.226c0.034,0.051,0.055,0.108,0.085,0.172
			c-0.13,0.034-0.241,0.026-0.352-0.006c-0.201-0.057-0.313-0.209-0.393-0.39C65.477,15.518,65.489,15.507,65.539,15.497z
			 M66.547,17.044c-0.12,0.085-0.247,0.153-0.386,0.196c-0.16,0.047-0.327,0.066-0.489-0.007c-0.139-0.063-0.23-0.173-0.286-0.313
			c-0.047-0.117-0.071-0.239-0.074-0.366c-0.002-0.088,0-0.176,0-0.264c0-0.017,0.009-0.033,0.011-0.049
			c0.006-0.001,0.012-0.003,0.021-0.004c0.021,0.043,0.045,0.088,0.068,0.133c0.087,0.166,0.185,0.325,0.333,0.443
			c0.084,0.066,0.17,0.12,0.278,0.133c0.125,0.018,0.248,0.036,0.37,0.048c0.045,0.005,0.092-0.006,0.136-0.006
			c0.016,0,0.033,0.012,0.048,0.018C66.566,17.021,66.561,17.037,66.547,17.044z M67.194,16.57c-0.137,0.02-0.266,0.007-0.396-0.049
			c-0.133-0.06-0.218-0.164-0.284-0.291c-0.01-0.021-0.021-0.042-0.029-0.064c-0.023-0.051-0.01-0.077,0.044-0.081
			c0.047-0.005,0.095,0.001,0.143,0.001c0.232,0.005,0.385,0.137,0.495,0.331c0.018,0.03,0.036,0.062,0.05,0.094
			C67.228,16.536,67.233,16.564,67.194,16.57z"/>
		<path style="fill:#262626;" d="M65.836,13.547c-0.027-0.126-0.062-0.25-0.098-0.373c-0.041-0.14-0.086-0.277-0.126-0.417
			c-0.025-0.089-0.103-0.134-0.19-0.11c-0.029,0.008-0.06,0.012-0.09,0.016c-0.085,0.012-0.173,0.02-0.259,0.035
			c-0.16,0.024-0.324,0.051-0.482,0.083c-0.121,0.023-0.245,0.042-0.362,0.079c-0.144,0.046-0.29,0.094-0.423,0.166
			c-0.28,0.155-0.554,0.323-0.829,0.489c-0.071,0.043-0.089,0.115-0.061,0.188c0.035,0.09,0.069,0.181,0.105,0.271
			c0.094,0.223,0.179,0.447,0.281,0.664c0.203,0.428,0.468,0.81,0.838,1.108c0.145,0.119,0.313,0.205,0.487,0.27
			c0.078,0.029,0.08,0.023,0.095-0.059c0.002-0.012,0.008-0.024,0.01-0.036c0.019-0.075,0.039-0.15,0.061-0.225
			c0.025-0.093,0.055-0.19,0.084-0.284c0.025-0.077,0.052-0.155,0.08-0.232c-0.002-0.004-0.006-0.009-0.007-0.014
			c-0.057,0.023-0.116,0.042-0.169,0.071c-0.173,0.097-0.313,0.233-0.442,0.381c-0.012,0.014-0.03,0.025-0.056,0.048
			c0-0.036-0.006-0.058,0.001-0.074c0.028-0.105,0.051-0.21,0.091-0.311c0.046-0.117,0.113-0.225,0.213-0.307
			c0.132-0.111,0.285-0.154,0.456-0.137c0.031,0.002,0.056-0.001,0.072-0.033c0.047-0.11,0.095-0.22,0.147-0.327
			c0.12-0.243,0.291-0.361,0.561-0.284c0.035,0.01,0.074,0.019,0.121,0.032c-0.004-0.07-0.004-0.13-0.014-0.189
			C65.901,13.872,65.872,13.71,65.836,13.547z M64.366,14.232c-0.042,0.121-0.095,0.231-0.195,0.312
			c-0.133,0.111-0.291,0.125-0.451,0.117c-0.012,0-0.042-0.033-0.04-0.046c0.026-0.107,0.057-0.213,0.127-0.299
			c0.085-0.106,0.191-0.186,0.333-0.195c0.041-0.004,0.081-0.013,0.12-0.018c0,0,0.001,0.001,0.001,0.003
			c0.007-0.001,0.011-0.001,0.02-0.001C64.395,14.102,64.405,14.121,64.366,14.232z M65.589,13.955
			c-0.134,0.122-0.283,0.211-0.475,0.182c-0.144-0.025-0.279-0.094-0.369-0.189c0.051-0.068,0.118-0.116,0.192-0.155
			c0.128-0.07,0.264-0.1,0.401-0.043c0.086,0.037,0.166,0.094,0.25,0.144C65.612,13.908,65.612,13.933,65.589,13.955z"/>
		<path style="fill:#262626;" d="M67.577,13.755c-0.122,0.011-0.245-0.093-0.256-0.218c-0.028-0.333-0.056-0.668-0.084-1.001
			c-0.011-0.122,0.094-0.246,0.213-0.256c0.167-0.016,0.329-0.029,0.495-0.043c0.132-0.012,0.264-0.023,0.396-0.035
			c-0.009-0.166-0.021-0.33-0.035-0.493c-0.436,0.037-0.872,0.076-1.306,0.114c-0.171,0.015-0.306,0.173-0.292,0.346
			c0.025,0.305,0.05,0.607,0.077,0.913l0,0c0.025,0.303,0.049,0.602,0.076,0.904c0.015,0.155,0.122,0.273,0.271,0.3
			c0.038,0.007,0.075,0.007,0.113,0.003c0.35-0.029,0.7-0.062,1.051-0.091c0.016-0.17,0.03-0.34,0.041-0.507
			C68.083,13.711,67.83,13.735,67.577,13.755z"/>
	</g>
	<g>
		<path style="fill:#262626;" d="M44.501,11.303c0.109,0.214,0.219,0.427,0.328,0.64c0.006,0.012,0.012,0.023,0.021,0.039
			c0.005-0.016,0.007-0.026,0.011-0.034c0.242-0.777,0.483-1.556,0.725-2.333c0.013-0.044,0.031-0.09,0.039-0.136
			c0.021-0.15-0.059-0.275-0.202-0.32c-0.657-0.209-1.314-0.419-1.973-0.629c-0.072-0.023-0.142-0.052-0.216-0.067
			c-0.143-0.031-0.278,0.055-0.325,0.2c-0.159,0.517-0.319,1.031-0.48,1.547c-0.013,0.045-0.032,0.088-0.038,0.135
			c-0.022,0.15,0.063,0.277,0.213,0.324c0.613,0.195,1.226,0.391,1.839,0.585C44.471,11.264,44.487,11.279,44.501,11.303z
			 M43.602,10.384c-0.009-0.001-0.017-0.016-0.018-0.027c-0.005-0.066-0.006-0.134-0.009-0.2c0-0.021-0.007-0.032-0.027-0.037
			c-0.122-0.038-0.244-0.078-0.365-0.117c-0.017-0.006-0.027-0.002-0.037,0.014c-0.039,0.053-0.08,0.104-0.118,0.157
			C43.014,10.192,43,10.196,42.98,10.19c-0.074-0.028-0.148-0.049-0.227-0.075c0.029-0.035,0.056-0.07,0.083-0.104
			c0.222-0.275,0.445-0.552,0.666-0.828c0.018-0.022,0.033-0.029,0.061-0.019c0.053,0.021,0.107,0.036,0.16,0.051
			c0.02,0.005,0.027,0.017,0.028,0.037c0.02,0.268,0.038,0.536,0.059,0.803c0.008,0.123,0.018,0.247,0.027,0.369
			c0.001,0.01,0.001,0.021,0.002,0.037C43.756,10.436,43.678,10.412,43.602,10.384z M43.971,10.511
			c0.021-0.069,0.041-0.128,0.06-0.192c0.065,0.016,0.129,0.031,0.19,0.045c-0.022-0.083-0.046-0.16-0.062-0.24
			c-0.017-0.081-0.016-0.162,0.009-0.249c0.034,0.013,0.069,0.022,0.103,0.034c0.027,0.009,0.063,0.01,0.08,0.03
			c0.012,0.015,0,0.052,0.001,0.08c0.002,0.119,0.036,0.228,0.109,0.324c0.006,0.007,0.021,0.014,0.032,0.013
			c0.204-0.037,0.348-0.152,0.445-0.335c0.001-0.002,0.001-0.007,0.002-0.012c-0.246-0.077-0.49-0.157-0.737-0.236
			c0.019-0.061,0.037-0.118,0.057-0.182c0.124,0.039,0.25,0.08,0.377,0.121c0.021-0.064,0.038-0.122,0.057-0.183
			c0.063,0.02,0.124,0.04,0.188,0.061c-0.017,0.059-0.037,0.117-0.054,0.181c0.127,0.041,0.252,0.081,0.377,0.121
			c-0.07,0.298-0.227,0.513-0.522,0.622c0.028,0.013,0.049,0.021,0.072,0.032c0.021,0.007,0.042,0.017,0.065,0.026
			c-0.019,0.063-0.036,0.123-0.059,0.192c-0.084-0.042-0.166-0.082-0.248-0.123c-0.004-0.002-0.008-0.003-0.012-0.007
			c-0.075-0.084-0.179-0.068-0.274-0.079C44.141,10.544,44.058,10.525,43.971,10.511z"/>
		<path style="fill:#262626;" d="M52.192,1.886c-0.003,0.015-0.007,0.03-0.008,0.033c-0.128-0.017-0.249-0.049-0.369-0.046
			c-0.24,0.005-0.443,0.101-0.582,0.307c-0.131,0.194-0.104,0.437,0.108,0.572c0.186,0.12,0.393,0.133,0.597,0.071
			c0.255-0.076,0.422-0.236,0.455-0.522c0.045-0.397,0.106-0.791,0.159-1.184c0.021-0.142,0.072-0.197,0.213-0.221
			c0.331-0.058,0.661-0.113,0.992-0.171c0.109-0.018,0.219-0.038,0.328-0.048c0.068-0.006,0.1,0.036,0.094,0.104
			c-0.004,0.039-0.011,0.079-0.016,0.118c-0.042,0.305-0.083,0.608-0.123,0.898c-0.113-0.022-0.223-0.059-0.333-0.064
			c-0.239-0.018-0.452,0.059-0.608,0.247c-0.184,0.223-0.146,0.518,0.124,0.653c0.273,0.137,0.544,0.107,0.795-0.063
			c0.134-0.09,0.206-0.218,0.23-0.386c0.088-0.692,0.184-1.386,0.283-2.077C54.537,0.068,54.535,0.032,54.529,0
			c-0.4,0.017-0.823,0.067-1.264,0.146c-0.278,0.04-0.552,0.091-0.825,0.147c-0.033,0.06-0.054,0.128-0.063,0.202
			C52.324,0.959,52.255,1.421,52.192,1.886z"/>
		<path style="fill:#262626;" d="M50.67,1.468c0,0.007-0.001,0.014-0.001,0.016c-0.062,0-0.117-0.007-0.173,0.001
			c-0.108,0.018-0.195,0.075-0.246,0.18c-0.048,0.097-0.02,0.206,0.084,0.253c0.095,0.043,0.189,0.038,0.278-0.005
			c0.112-0.052,0.179-0.137,0.176-0.268c-0.003-0.184-0.001-0.37-0.001-0.554c0-0.065,0.021-0.093,0.083-0.114
			c0.148-0.047,0.297-0.095,0.445-0.141c0.049-0.016,0.097-0.031,0.147-0.043c0.03-0.007,0.048,0.009,0.049,0.041
			c0,0.018,0,0.037,0,0.056c0,0.142,0,0.283,0,0.418c-0.054-0.003-0.106-0.012-0.157-0.008c-0.109,0.008-0.203,0.056-0.262,0.153
			c-0.069,0.113-0.034,0.246,0.097,0.29c0.134,0.046,0.255,0.013,0.36-0.079c0.054-0.051,0.082-0.114,0.082-0.192
			c-0.003-0.323-0.003-0.646,0-0.967c0-0.005-0.001-0.009-0.001-0.012c-0.324,0.09-0.643,0.192-0.959,0.307
			c-0.001,0.007-0.001,0.015-0.001,0.021C50.673,1.037,50.67,1.253,50.67,1.468z"/>
		<path style="fill:#262626;" d="M49.702,4.2c0.117,0.018,0.221-0.02,0.309-0.094c0.109-0.091,0.158-0.207,0.116-0.355
			c-0.061-0.204-0.113-0.411-0.169-0.618c-0.019-0.074-0.007-0.111,0.059-0.153c0.151-0.1,0.302-0.199,0.453-0.298
			c0.05-0.033,0.1-0.064,0.152-0.093c0.032-0.019,0.056-0.006,0.067,0.028C50.695,2.64,50.7,2.66,50.705,2.68
			C50.749,2.839,50.789,3,50.832,3.15c-0.061,0.012-0.123,0.018-0.179,0.039c-0.122,0.042-0.21,0.126-0.248,0.254
			c-0.043,0.147,0.037,0.284,0.197,0.292c0.164,0.01,0.291-0.063,0.379-0.2c0.046-0.074,0.056-0.151,0.031-0.239
			c-0.099-0.361-0.198-0.723-0.293-1.086c-0.025-0.096-0.11-0.135-0.197-0.081c-0.224,0.142-0.447,0.287-0.67,0.427
			c-0.108,0.068-0.147,0.19-0.112,0.309c0.071,0.239,0.134,0.481,0.199,0.724c0.002,0.009,0.003,0.016,0.003,0.019
			c-0.067,0.019-0.133,0.03-0.191,0.056c-0.117,0.054-0.198,0.145-0.224,0.275C49.505,4.066,49.569,4.18,49.702,4.2z"/>
		<path style="fill:#262626;" d="M44.037,7.841c0.818,0.047,1.637,0.094,2.456,0.141c0.101,0.004,0.192-0.038,0.261-0.118
			c0.053-0.061,0.065-0.135,0.068-0.213c0.022-0.406,0.045-0.815,0.068-1.222c0.012-0.196-0.109-0.336-0.302-0.349
			c-0.134-0.007-0.269-0.014-0.404-0.022c-0.003-0.012-0.005-0.018-0.006-0.024c-0.001-0.008,0-0.016-0.002-0.024
			c-0.009-0.101-0.028-0.198-0.079-0.287c-0.06-0.105-0.146-0.162-0.267-0.169c-0.267-0.015-0.535-0.029-0.802-0.046
			c-0.057-0.005-0.105,0.013-0.152,0.044c-0.073,0.053-0.118,0.128-0.144,0.212c-0.021,0.066-0.035,0.137-0.051,0.207
			c-0.011,0-0.021-0.001-0.03-0.001c-0.152-0.009-0.303-0.015-0.456-0.022c-0.012-0.001-0.024-0.001-0.036,0
			c-0.119,0.181-0.233,0.367-0.344,0.554c-0.016,0.344-0.038,0.686-0.057,1.029C43.75,7.706,43.862,7.831,44.037,7.841z
			 M46.342,6.448c0.073,0.002,0.133,0.067,0.129,0.141c-0.003,0.074-0.067,0.132-0.14,0.128c-0.075-0.005-0.129-0.065-0.126-0.139
			C46.21,6.502,46.27,6.444,46.342,6.448z M44.594,6.856c0.039-0.382,0.372-0.679,0.76-0.653c0.392,0.016,0.722,0.375,0.679,0.806
			c-0.038,0.369-0.361,0.684-0.776,0.653C44.867,7.633,44.553,7.279,44.594,6.856z"/>
		<path style="fill:#262626;" d="M45.286,7.412c0.249,0.016,0.484-0.17,0.5-0.448c0.019-0.276-0.188-0.487-0.425-0.51
			c-0.263-0.026-0.506,0.167-0.521,0.451C44.824,7.182,45.035,7.399,45.286,7.412z"/>
		<path style="fill:#262626;" d="M42.168,12.894c0.278-0.01,0.558-0.021,0.837-0.036c0.023-0.001,0.054-0.021,0.065-0.043
			c0.133-0.248,0.262-0.498,0.389-0.749c0.009-0.019,0.007-0.054-0.004-0.073c-0.146-0.237-0.295-0.473-0.44-0.709
			c-0.021-0.035-0.044-0.046-0.083-0.043c-0.245,0.012-0.491,0.021-0.737,0.031c-0.03,0.232-0.053,0.469-0.07,0.709
			c0.006-0.041,0.021-0.08,0.041-0.119c0.113-0.218,0.383-0.306,0.594-0.192c0.217,0.118,0.3,0.387,0.185,0.608
			c-0.112,0.218-0.382,0.302-0.596,0.188c-0.139-0.075-0.222-0.214-0.233-0.361c-0.014,0.24-0.021,0.485-0.022,0.736
			c0.004,0.007,0.008,0.013,0.013,0.021C42.12,12.877,42.148,12.894,42.168,12.894z"/>
		<path style="fill:#262626;" d="M45.81,5.168c0.304,0.028,0.574-0.199,0.6-0.508c0.001-0.008,0.001-0.017,0.001-0.026l0.556-0.118
			c0.091,0.494,0.488,0.878,0.984,0.946l0.036,0.503c-0.272,0.063-0.487,0.297-0.513,0.593c-0.033,0.37,0.236,0.696,0.601,0.729
			c0.363,0.033,0.686-0.239,0.718-0.607c0.031-0.359-0.221-0.676-0.57-0.725l-0.036-0.486c0.601-0.043,1.075-0.551,1.075-1.17
			c0-0.428-0.226-0.802-0.563-1.006l0.201-0.355c0.04,0.013,0.083,0.02,0.126,0.025c0.362,0.032,0.682-0.239,0.714-0.606
			c0.033-0.367-0.234-0.691-0.597-0.725c-0.362-0.034-0.683,0.238-0.715,0.605c-0.02,0.224,0.071,0.431,0.228,0.566l-0.211,0.375
			c-0.108-0.035-0.223-0.053-0.341-0.053c-0.631,0-1.145,0.514-1.157,1.149l-0.576,0.122c-0.077-0.186-0.249-0.325-0.462-0.345
			c-0.108-0.008-0.21,0.013-0.3,0.061c-0.087,0.092-0.173,0.186-0.258,0.28C45.33,4.446,45.313,4.501,45.31,4.56
			C45.281,4.867,45.506,5.14,45.81,5.168z"/>
		<path style="fill:#262626;" d="M43.282,9.832c0.096,0.031,0.187,0.061,0.283,0.091c-0.006-0.15-0.01-0.296-0.016-0.452
			C43.457,9.596,43.371,9.712,43.282,9.832z"/>
	</g>
	<g>
		<g>
			<path style="fill:#262626;" d="M5.736,18.299c0.074,0.177,0.146,0.354,0.216,0.533c0.069-0.183,0.144-0.365,0.219-0.545
				c0.077-0.177,0.157-0.35,0.243-0.513l3.241-6.146c0.04-0.076,0.082-0.137,0.124-0.184c0.044-0.047,0.092-0.08,0.144-0.101
				c0.054-0.02,0.113-0.033,0.179-0.037c0.065-0.006,0.143-0.008,0.234-0.008h1.538v11.095h-1.795v-7.166
				c0-0.133,0.003-0.278,0.013-0.437c0.007-0.16,0.018-0.32,0.033-0.485l-3.31,6.293C6.74,20.74,6.64,20.853,6.52,20.932
				c-0.12,0.078-0.262,0.118-0.424,0.118H5.816c-0.162,0-0.303-0.04-0.426-0.118c-0.12-0.08-0.218-0.191-0.294-0.334L1.74,14.283
				c0.021,0.169,0.036,0.334,0.043,0.495c0.007,0.162,0.012,0.311,0.012,0.449v7.165H0V11.298h1.537c0.092,0,0.17,0.001,0.235,0.007
				c0.065,0.005,0.125,0.017,0.178,0.038c0.053,0.021,0.102,0.053,0.149,0.1c0.044,0.047,0.087,0.107,0.127,0.184l3.272,6.162
				C5.584,17.953,5.663,18.123,5.736,18.299z"/>
			<path style="fill:#262626;" d="M20.066,22.392h-0.84c-0.178,0-0.316-0.025-0.417-0.08c-0.101-0.055-0.176-0.162-0.227-0.325
				l-0.168-0.561c-0.196,0.179-0.389,0.334-0.578,0.474c-0.188,0.133-0.385,0.247-0.586,0.341c-0.203,0.089-0.418,0.159-0.645,0.206
				c-0.229,0.045-0.479,0.069-0.757,0.069c-0.328,0-0.63-0.044-0.909-0.133c-0.277-0.091-0.515-0.228-0.716-0.406
				c-0.2-0.181-0.354-0.403-0.464-0.67c-0.112-0.267-0.167-0.578-0.167-0.933c0-0.295,0.077-0.592,0.23-0.882
				c0.154-0.288,0.41-0.551,0.769-0.784c0.358-0.234,0.835-0.428,1.431-0.581c0.596-0.154,1.336-0.232,2.22-0.232v-0.462
				c0-0.531-0.111-0.924-0.33-1.18c-0.22-0.255-0.54-0.382-0.958-0.382c-0.304,0-0.557,0.036-0.758,0.108
				c-0.202,0.072-0.377,0.153-0.527,0.241c-0.148,0.09-0.286,0.171-0.412,0.242c-0.126,0.072-0.265,0.107-0.417,0.107
				c-0.127,0-0.235-0.032-0.326-0.1c-0.09-0.066-0.165-0.147-0.221-0.245l-0.34-0.607c0.894-0.827,1.972-1.242,3.234-1.242
				c0.454,0,0.86,0.075,1.214,0.227c0.356,0.15,0.658,0.359,0.906,0.628c0.248,0.269,0.435,0.589,0.564,0.963
				c0.128,0.375,0.193,0.782,0.193,1.228V22.392L20.066,22.392z M16.433,21.211c0.19,0,0.367-0.017,0.527-0.053
				c0.162-0.036,0.314-0.088,0.458-0.16c0.146-0.07,0.285-0.158,0.417-0.259c0.134-0.105,0.27-0.226,0.406-0.367v-1.317
				c-0.546,0-1.002,0.034-1.368,0.104c-0.366,0.07-0.66,0.157-0.882,0.266c-0.223,0.11-0.379,0.235-0.473,0.379
				c-0.095,0.145-0.141,0.303-0.141,0.472c0,0.335,0.097,0.575,0.292,0.72C15.865,21.138,16.118,21.211,16.433,21.211z"/>
			<path style="fill:#262626;" d="M21.905,24.964V14.521h1.144c0.121,0,0.226,0.028,0.311,0.085
				c0.085,0.056,0.141,0.144,0.167,0.261l0.152,0.728c0.313-0.364,0.672-0.656,1.079-0.884c0.404-0.223,0.881-0.336,1.426-0.336
				c0.424,0,0.813,0.089,1.163,0.269c0.351,0.179,0.652,0.438,0.909,0.777c0.254,0.341,0.451,0.761,0.589,1.26
				c0.139,0.498,0.208,1.07,0.208,1.714c0,0.588-0.078,1.133-0.233,1.633c-0.156,0.503-0.38,0.938-0.67,1.306
				c-0.29,0.369-0.642,0.655-1.053,0.863c-0.411,0.208-0.872,0.312-1.381,0.312c-0.439,0-0.813-0.069-1.117-0.203
				c-0.306-0.137-0.581-0.324-0.822-0.566v3.224H21.905z M25.541,15.871c-0.39,0-0.722,0.083-0.996,0.25
				c-0.275,0.167-0.532,0.401-0.768,0.702v3.529c0.213,0.266,0.442,0.452,0.693,0.557c0.25,0.106,0.518,0.156,0.806,0.156
				c0.282,0,0.54-0.054,0.768-0.16c0.23-0.108,0.424-0.271,0.583-0.49c0.16-0.222,0.281-0.498,0.369-0.834
				c0.084-0.334,0.127-0.729,0.127-1.185c0-0.459-0.037-0.851-0.109-1.168c-0.075-0.321-0.178-0.581-0.315-0.78
				c-0.136-0.201-0.301-0.345-0.496-0.437C26.008,15.917,25.787,15.871,25.541,15.871z"/>
			<path style="fill:#262626;" d="M36.557,22.392h-0.839c-0.177,0-0.315-0.025-0.417-0.08c-0.101-0.055-0.177-0.162-0.227-0.325
				l-0.167-0.561c-0.197,0.179-0.389,0.334-0.579,0.474c-0.189,0.133-0.385,0.247-0.587,0.341c-0.203,0.089-0.416,0.159-0.643,0.206
				c-0.229,0.045-0.48,0.069-0.758,0.069c-0.327,0-0.631-0.044-0.91-0.133c-0.276-0.091-0.515-0.228-0.714-0.406
				c-0.201-0.181-0.355-0.403-0.467-0.67c-0.11-0.267-0.167-0.578-0.167-0.933c0-0.295,0.078-0.592,0.232-0.882
				c0.153-0.288,0.408-0.551,0.767-0.784c0.358-0.234,0.835-0.428,1.432-0.581c0.596-0.154,1.334-0.232,2.218-0.232v-0.462
				c0-0.531-0.11-0.924-0.329-1.18c-0.22-0.255-0.539-0.382-0.958-0.382c-0.303,0-0.555,0.036-0.757,0.108
				c-0.203,0.072-0.378,0.153-0.527,0.241c-0.148,0.09-0.287,0.171-0.413,0.242c-0.126,0.072-0.264,0.107-0.416,0.107
				c-0.127,0-0.234-0.032-0.327-0.1c-0.09-0.066-0.163-0.147-0.219-0.245l-0.342-0.607c0.894-0.827,1.972-1.242,3.234-1.242
				c0.453,0,0.86,0.075,1.216,0.227c0.354,0.15,0.658,0.359,0.904,0.628c0.248,0.269,0.436,0.589,0.565,0.963
				c0.129,0.375,0.192,0.782,0.192,1.228V22.392L36.557,22.392z M32.924,21.211c0.19,0,0.368-0.017,0.528-0.053
				c0.164-0.036,0.315-0.088,0.458-0.16c0.144-0.071,0.283-0.158,0.417-0.259c0.134-0.104,0.268-0.226,0.405-0.367v-1.317
				c-0.546,0-1.001,0.034-1.368,0.104c-0.365,0.07-0.66,0.157-0.882,0.266c-0.221,0.11-0.379,0.235-0.473,0.379
				c-0.094,0.145-0.14,0.303-0.14,0.472c0,0.335,0.097,0.575,0.291,0.72C32.356,21.138,32.61,21.211,32.924,21.211z"/>
		</g>
		<g>
			<path style="fill:#262626;" d="M75.915,15.948h0.476c0.19,0,0.352-0.028,0.477-0.082c0.126-0.053,0.233-0.139,0.326-0.257
				l3.022-3.876c0.125-0.161,0.258-0.276,0.396-0.339c0.14-0.064,0.314-0.096,0.526-0.096h1.759l-3.688,4.612
				c-0.117,0.143-0.229,0.263-0.333,0.359c-0.107,0.098-0.22,0.177-0.342,0.238c0.167,0.061,0.317,0.147,0.451,0.26
				c0.133,0.112,0.263,0.256,0.389,0.429l3.802,5.194h-1.805c-0.241,0-0.421-0.035-0.54-0.104c-0.12-0.068-0.219-0.168-0.3-0.302
				l-3.096-4.099c-0.102-0.133-0.216-0.228-0.341-0.287c-0.127-0.059-0.307-0.089-0.54-0.089h-0.643v4.88h-2.036V11.289h2.036v4.659
				H75.915z"/>
			<path style="fill:#262626;" d="M90.594,22.392h-0.84c-0.178,0-0.318-0.025-0.419-0.08c-0.099-0.055-0.176-0.162-0.226-0.325
				l-0.166-0.561c-0.196,0.179-0.39,0.334-0.578,0.474c-0.19,0.133-0.386,0.247-0.587,0.341c-0.203,0.089-0.417,0.159-0.646,0.206
				c-0.226,0.045-0.478,0.069-0.755,0.069c-0.329,0-0.631-0.044-0.908-0.133c-0.278-0.091-0.518-0.228-0.715-0.406
				c-0.202-0.181-0.355-0.403-0.469-0.67c-0.11-0.267-0.167-0.578-0.167-0.933c0-0.295,0.079-0.592,0.231-0.882
				c0.154-0.288,0.411-0.551,0.769-0.784c0.357-0.234,0.835-0.428,1.431-0.581c0.596-0.154,1.334-0.232,2.219-0.232v-0.462
				c0-0.531-0.109-0.924-0.328-1.18c-0.22-0.255-0.54-0.382-0.958-0.382c-0.304,0-0.555,0.036-0.758,0.108
				c-0.204,0.072-0.377,0.153-0.527,0.241c-0.147,0.09-0.285,0.171-0.411,0.242c-0.128,0.072-0.265,0.107-0.417,0.107
				c-0.126,0-0.234-0.032-0.326-0.1c-0.09-0.066-0.165-0.147-0.221-0.245l-0.339-0.607c0.892-0.827,1.97-1.242,3.234-1.242
				c0.452,0,0.858,0.075,1.214,0.227c0.354,0.15,0.658,0.359,0.906,0.628c0.248,0.269,0.436,0.589,0.563,0.963
				c0.131,0.375,0.196,0.782,0.196,1.228L90.594,22.392L90.594,22.392z M86.957,21.211c0.192,0,0.369-0.017,0.533-0.053
				c0.16-0.036,0.312-0.088,0.455-0.16c0.146-0.07,0.282-0.158,0.419-0.259c0.134-0.105,0.269-0.226,0.404-0.367v-1.317
				c-0.546,0-1.002,0.034-1.368,0.104c-0.366,0.07-0.661,0.157-0.882,0.266c-0.222,0.11-0.378,0.235-0.473,0.379
				c-0.093,0.145-0.141,0.303-0.141,0.472c0,0.335,0.096,0.575,0.29,0.72C86.392,21.138,86.646,21.211,86.957,21.211z"/>
			<path style="fill:#262626;" d="M92.431,22.392v-7.872h1.099c0.192,0,0.326,0.034,0.401,0.107
				c0.075,0.072,0.127,0.194,0.152,0.368l0.112,0.952c0.28-0.485,0.605-0.87,0.979-1.151c0.375-0.28,0.793-0.421,1.257-0.421
				c0.381,0,0.702,0.089,0.954,0.269l-0.244,1.419c-0.014,0.093-0.045,0.158-0.097,0.195c-0.05,0.039-0.118,0.059-0.206,0.059
				c-0.075,0-0.179-0.019-0.31-0.053c-0.132-0.037-0.306-0.055-0.521-0.055c-0.389,0-0.722,0.109-1,0.326
				c-0.279,0.218-0.513,0.536-0.705,0.956v4.902H92.431L92.431,22.392z"/>
			<path style="fill:#262626;" d="M100.891,12.226c0,0.164-0.034,0.317-0.099,0.461c-0.064,0.141-0.153,0.267-0.261,0.375
				c-0.109,0.109-0.236,0.195-0.383,0.258c-0.146,0.065-0.302,0.096-0.469,0.096c-0.163,0-0.314-0.031-0.458-0.096
				c-0.144-0.063-0.269-0.149-0.375-0.258c-0.105-0.107-0.19-0.232-0.251-0.375c-0.064-0.144-0.096-0.298-0.096-0.461
				c0-0.169,0.032-0.327,0.096-0.476c0.061-0.149,0.146-0.277,0.251-0.384c0.107-0.107,0.232-0.192,0.375-0.256
				c0.144-0.065,0.295-0.097,0.458-0.097c0.167,0,0.323,0.032,0.469,0.097c0.147,0.063,0.275,0.149,0.383,0.256
				c0.108,0.109,0.197,0.235,0.261,0.384C100.857,11.899,100.891,12.057,100.891,12.226z M100.608,14.521v7.872H98.74v-7.872
				H100.608z"/>
			<path style="fill:#262626;" d="M105.933,14.397c0.489,0,0.941,0.08,1.353,0.237c0.41,0.16,0.766,0.391,1.063,0.695
				c0.299,0.305,0.529,0.678,0.698,1.12c0.167,0.443,0.25,0.947,0.25,1.515c0,0.145-0.006,0.262-0.018,0.356
				c-0.015,0.094-0.036,0.168-0.07,0.223c-0.033,0.054-0.075,0.092-0.132,0.116c-0.055,0.021-0.125,0.034-0.21,0.034h-4.801
				c0.055,0.807,0.268,1.403,0.644,1.779c0.374,0.38,0.866,0.568,1.484,0.568c0.301,0,0.563-0.036,0.784-0.107
				c0.219-0.07,0.411-0.151,0.575-0.238c0.164-0.086,0.308-0.165,0.432-0.235c0.124-0.073,0.243-0.108,0.359-0.108
				c0.076,0,0.14,0.015,0.195,0.045c0.057,0.031,0.106,0.076,0.145,0.131l0.544,0.691c-0.207,0.245-0.439,0.451-0.695,0.619
				c-0.257,0.166-0.526,0.298-0.805,0.399c-0.283,0.099-0.567,0.168-0.856,0.209c-0.292,0.041-0.573,0.063-0.845,0.063
				c-0.541,0-1.042-0.091-1.507-0.273c-0.464-0.183-0.868-0.45-1.212-0.806c-0.343-0.356-0.614-0.796-0.811-1.32
				c-0.196-0.525-0.295-1.131-0.295-1.823c0-0.536,0.085-1.042,0.258-1.515c0.17-0.472,0.417-0.884,0.739-1.235
				c0.318-0.35,0.71-0.627,1.172-0.832C104.832,14.5,105.353,14.397,105.933,14.397z M105.971,15.754
				c-0.545,0-0.973,0.158-1.28,0.47c-0.309,0.312-0.504,0.755-0.592,1.326h3.515c0-0.245-0.034-0.476-0.101-0.693
				c-0.064-0.218-0.165-0.408-0.302-0.571c-0.135-0.165-0.31-0.293-0.517-0.388C106.491,15.803,106.249,15.754,105.971,15.754z"/>
			<path style="fill:#262626;" d="M111.046,22.392v-7.872h1.1c0.19,0,0.325,0.034,0.401,0.107c0.075,0.072,0.126,0.194,0.15,0.368
				l0.114,0.952c0.278-0.485,0.604-0.87,0.976-1.151c0.373-0.28,0.792-0.421,1.258-0.421c0.382,0,0.702,0.089,0.955,0.269
				l-0.243,1.419c-0.015,0.093-0.047,0.158-0.1,0.195c-0.049,0.039-0.117,0.059-0.203,0.059c-0.077,0-0.181-0.019-0.31-0.053
				c-0.132-0.037-0.306-0.055-0.523-0.055c-0.389,0-0.721,0.109-0.998,0.326c-0.279,0.218-0.512,0.536-0.705,0.956v4.902H111.046
				L111.046,22.392z"/>
		</g>
	</g>
</g>
</svg>
