<?xml version="1.0" encoding="utf-8"?>
<!-- Generator: Adobe Illustrator 16.0.3, SVG Export Plug-In . SVG Version: 6.00 Build 0)  -->
<!DOCTYPE svg PUBLIC "-//W3C//DTD SVG 1.1//EN" "http://www.w3.org/Graphics/SVG/1.1/DTD/svg11.dtd">
<svg version="1.1" id="Layer_1" xmlns="http://www.w3.org/2000/svg" xmlns:xlink="http://www.w3.org/1999/xlink" x="0px" y="0px"
	 width="400px" height="291.027px" viewBox="0 0 400 291.027" enable-background="new 0 0 400 291.027" xml:space="preserve">
<g>
	<g>
		
			<linearGradient id="SVGID_1_" gradientUnits="userSpaceOnUse" x1="2743.4658" y1="6.499" x2="3057.0889" y2="6.499" gradientTransform="matrix(-0.9975 0.0706 0.0706 0.9975 3108.5386 -97.3105)">
			<stop  offset="0" style="stop-color:#966200"/>
			<stop  offset="1" style="stop-color:#F1E021"/>
		</linearGradient>
		<path fill="url(#SVGID_1_)" d="M118.567,74.74c5.405-1.187,10.845-2.244,16.278-3.322c37.542-7.444,35.487-35.068,57.998-35.287
			c14.922-0.145,28.012,19.692,37.747,7.253c21.613-27.622,49.242-13.4,58.17,7.32c4.553,10.566,3.143,17.453,4.766,32.529
			c2.482,23.071,33.713,14.574,59.996,26.24c24.916,11.059,27.092,33.683,10.402,46.429c-26.07,19.911-58.1-0.72-80.475,19.109
			c-39.994,35.451-47.043,14.362-81.051,3.458c-29.539-9.469-47.798,6.186-74.419,7.497c-21.553,2.133-38.547-3.406-52.049-16.555
			C41.33,135.715,68.319,85.771,118.567,74.74z"/>
		<linearGradient id="SVGID_2_" gradientUnits="userSpaceOnUse" x1="42.0845" y1="164.3643" x2="400" y2="164.3643">
			<stop  offset="0" style="stop-color:#966200"/>
			<stop  offset="1" style="stop-color:#F1E021"/>
		</linearGradient>
		<path fill="url(#SVGID_2_)" d="M355.285,184.719c-5.6,3.254-11.289,6.354-16.963,9.478c-39.209,21.581-25.994,56.471-51.178,63.95
			c-16.695,4.955-39.225-16.389-45.24,2.73c-13.357,42.455-49.992,32.984-68.195,9.174c-9.284-12.143-10.419-21.457-18.194-40.34
			c-11.898-28.896-43.602-7.979-77.716-14.59c-32.34-6.268-43.716-34.687-30.012-56.425c21.406-33.956,65.511-17.644,82.798-50.313
			c30.903-58.406,47.144-33.52,89.629-30.358c36.898,2.744,51.217-23.237,80.584-33.433c23.355-9.635,44.619-7.938,64.971,4.667
			C417.918,81.563,407.34,154.462,355.285,184.719z"/>
		<linearGradient id="SVGID_3_" gradientUnits="userSpaceOnUse" x1="215.1328" y1="-30.4312" x2="20.5624" y2="164.1392">
			<stop  offset="0" style="stop-color:#966200"/>
			<stop  offset="1" style="stop-color:#F1E021"/>
		</linearGradient>
		<path fill="url(#SVGID_3_)" d="M2.651,146.229c-1.625-9.47-3.305-19.262-2.395-29.031C1.281,106.231,5.628,97.075,12.5,91.415
			c11.183-9.211,27.651-8.215,39.063-6.665c1.778,0.242,3.599,0.508,5.359,0.767c11.669,1.711,23.734,3.481,34.85-0.276
			c9.324-3.152,17.044-9.934,24.508-16.491c8.504-7.471,17.297-15.196,28.403-17.392c7.899-1.562,16.002-0.09,23.841,1.332
			c4.212,0.765,8.568,1.555,12.856,1.872c15.564,1.149,31.3-4.004,43.169-14.139C236.418,30.286,243.973,15.553,245.275,0
			l0.314,0.026c-1.311,15.635-8.904,30.445-20.836,40.634c-11.932,10.188-27.75,15.371-43.396,14.214
			c-4.305-0.318-8.669-1.11-12.89-1.875c-7.809-1.417-15.886-2.883-23.723-1.333c-11.022,2.18-19.784,9.876-28.256,17.32
			c-7.488,6.578-15.231,13.38-24.616,16.553c-11.185,3.781-23.291,2.006-34.997,0.289c-1.759-0.258-3.579-0.524-5.355-0.766
			c-11.356-1.543-27.732-2.537-38.821,6.596c-6.807,5.606-11.114,14.687-12.13,25.569c-0.907,9.727,0.77,19.498,2.391,28.948
			L2.651,146.229z"/>
	</g>
</g>
</svg>
