<?xml version="1.0" encoding="utf-8"?>
<!-- Generator: Adobe Illustrator 16.0.3, SVG Export Plug-In . SVG Version: 6.00 Build 0)  -->
<!DOCTYPE svg PUBLIC "-//W3C//DTD SVG 1.1//EN" "http://www.w3.org/Graphics/SVG/1.1/DTD/svg11.dtd">
<svg version="1.1" id="Layer_1" xmlns="http://www.w3.org/2000/svg" xmlns:xlink="http://www.w3.org/1999/xlink" x="0px" y="0px"
	 width="400px" height="225px" viewBox="0 0 400 225" enable-background="new 0 0 400 225" xml:space="preserve">
<linearGradient id="SVGID_1_" gradientUnits="userSpaceOnUse" x1="2863.373" y1="65.4014" x2="2919.6755" y2="214.566" gradientTransform="matrix(-1 0 0 1 3118.4102 0)">
	<stop  offset="0" style="stop-color:#966200"/>
	<stop  offset="1" style="stop-color:#F1E021"/>
</linearGradient>
<path fill="url(#SVGID_1_)" d="M139.79,124.368c3.391-2.344,6.847-4.594,10.292-6.858c23.806-15.644,13.684-37.127,29.293-43.125
	c10.347-3.976,25.704,8.448,28.571-3.984c6.363-27.604,30.08-23.417,42.815-9.214c6.495,7.243,7.679,13.096,13.552,24.691
	c8.988,17.744,28.064,2.894,50.04,5.392c20.833,2.368,29.466,19.835,21.852,34.311c-11.894,22.612-40.691,14.455-50.036,36.046
	c-16.703,38.6-28.247,23.615-55.362,23.723c-23.551,0.096-31.343,17.294-49.471,25.225c-14.34,7.275-27.918,7.257-41.458,0.271
	C105.179,192.941,108.264,146.157,139.79,124.368z"/>
<linearGradient id="SVGID_2_" gradientUnits="userSpaceOnUse" x1="-0.4316" y1="107.4268" x2="303.9941" y2="107.4268">
	<stop  offset="0" style="stop-color:#966200"/>
	<stop  offset="1" style="stop-color:#F1E021"/>
</linearGradient>
<path fill="url(#SVGID_2_)" d="M265.961,124.74c-4.763,2.769-9.602,5.405-14.428,8.062c-33.349,18.355-22.108,48.032-43.529,54.392
	c-14.199,4.216-33.361-13.939-38.479,2.323c-11.361,36.109-42.52,28.055-58.003,7.802c-7.896-10.328-8.862-18.249-15.475-34.31
	c-10.12-24.578-37.086-6.787-66.102-12.41c-27.507-5.331-37.182-29.503-25.526-47.992c18.207-28.881,55.72-15.007,70.424-42.795
	c26.285-49.677,40.098-28.509,76.233-25.82c31.385,2.334,43.563-19.765,68.542-28.437c19.864-8.195,37.952-6.751,55.261,3.97
	C319.234,37,310.237,99.005,265.961,124.74z"/>
<linearGradient id="SVGID_3_" gradientUnits="userSpaceOnUse" x1="369.0068" y1="86.9775" x2="199.4214" y2="256.563">
	<stop  offset="0" style="stop-color:#966200"/>
	<stop  offset="1" style="stop-color:#F1E021"/>
</linearGradient>
<path fill="url(#SVGID_3_)" d="M173.403,222.471c-5.386,0-10.56-1.797-13.954-5.999l0.211-0.171c6.486,8.03,19.599,7.13,28.027,1.69
	c6.842-4.415,11.882-11.108,16.757-17.581c1.286-1.708,2.617-3.475,3.957-5.168c8.361-10.563,16.562-16.084,25.069-16.878
	c6.672-0.621,13.255,1.731,19.619,4.007c7.043,2.518,14.326,5.121,21.58,3.547c5.342-1.159,9.916-4.457,14.338-7.646
	c1.832-1.32,3.726-2.686,5.653-3.885c13.095-8.149,29.551-9.623,42.773-10.808c14.779-1.323,30.062-2.691,42.866-10.128
	c12.023-6.981,22.394-22.29,17.932-36.908l0.261-0.08c2.049,6.715,1.159,14.032-2.575,21.162
	c-3.431,6.554-8.929,12.258-15.48,16.062c-12.857,7.467-28.17,8.838-42.979,10.164c-13.194,1.182-29.614,2.652-42.654,10.768
	c-1.92,1.194-3.81,2.557-5.637,3.875c-4.446,3.204-9.043,6.519-14.44,7.689c-7.327,1.591-14.649-1.025-21.729-3.557
	c-6.337-2.265-12.89-4.608-19.501-3.991c-8.431,0.786-16.569,6.273-24.882,16.775c-1.339,1.691-2.668,3.456-3.953,5.163
	c-4.89,6.492-9.944,13.204-16.827,17.646C183.706,220.886,178.46,222.471,173.403,222.471z"/>
</svg>
