<?xml version="1.0" encoding="utf-8"?>
<!-- Generator: Adobe Illustrator 16.0.3, SVG Export Plug-In . SVG Version: 6.00 Build 0)  -->
<!DOCTYPE svg PUBLIC "-//W3C//DTD SVG 1.1//EN" "http://www.w3.org/Graphics/SVG/1.1/DTD/svg11.dtd">
<svg version="1.1" id="Layer_1" xmlns="http://www.w3.org/2000/svg" xmlns:xlink="http://www.w3.org/1999/xlink" x="0px" y="0px"
	 width="512px" height="601.392px" viewBox="0 -89.392 512 601.392" enable-background="new 0 -89.392 512 601.392"
	 xml:space="preserve">
<path fill="#FFFFFF" d="M256,512c27.57,0,50-22.43,50-50v-11.004c22.793-4.648,40-24.848,40-48.996v-47.48
	c0-21.934,9.41-45.617,22.891-57.59c36.293-32.242,57.105-78.504,57.105-126.926c0-100.59-87.102-180.246-189.355-168.93
	C161.715,9.371,99.66,68.61,88.117,142.817c-8.988,57.746,11.465,115.266,54.703,153.855c13.648,12.18,23.18,35.965,23.18,57.848
	V402c0,24.148,17.203,44.348,40,48.996V462C206,489.625,228.375,512,256,512z M256,492c-16.57,0-30-13.43-30-30v-10h60v10
	C286,478.543,272.539,492,256,492z M156.137,281.75c-38.156-34.055-56.195-84.844-48.258-135.859
	c10.129-65.113,65.207-117.656,130.957-124.938c91.75-10.156,167.16,61.766,167.16,149.051c0,42.711-18.367,83.523-50.391,111.973
	c-18.023,16.012-27.273,42.266-29.219,64.023h-20.391V190.004c0-1.563-0.418-3.195-1.055-4.473l-40-80
	c-1.695-3.391-5.156-5.527-8.945-5.527s-7.25,2.141-8.945,5.527l-39.996,80c-0.637,1.27-1.059,2.922-1.059,4.473V346h-20.395
	C183.641,324.274,174.309,297.965,156.137,281.75z M266,346v-76c0-5.52-4.48-10-10-10c-5.523,0-10,4.48-10,10v76h-20V200.004h60V346
	H266z M232.18,180.004L256,132.364l23.82,47.641H232.18z M187.719,412H216c5.52,0,10-4.477,10-10c0-5.52-4.48-10-10-10h-30v-26h140
	v26h-30c-5.523,0-10,4.48-10,10c0,5.523,4.477,9.992,10,9.992h28.277C320.148,423.629,309.035,432,296,432h-80
	C202.961,432,191.848,423.641,187.719,412z"/>
<path fill="#FFFFFF" d="M0,170.004c0,5.52,4.477,10,10,10h46c5.523,0,10-4.48,10-10c0-5.523-4.477-10-10-10H10
	C4.477,160.004,0,164.481,0,170.004z"/>
<path fill="#FFFFFF" d="M501.996,160.004h-46c-5.52,0-10,4.477-10,10c0,5.52,4.48,10,10,10h46c5.523,0,10-4.48,10-10
	C511.996,164.481,507.52,160.004,501.996,160.004z"/>
<path fill="#FFFFFF" d="M39.488,295c2.773,4.801,8.895,6.414,13.66,3.66l34.641-20c4.785-2.762,6.422-8.875,3.66-13.66
	c-2.762-4.781-8.875-6.422-13.66-3.66l-34.641,20C38.367,284.106,36.727,290.219,39.488,295z"/>
<path fill="#FFFFFF" d="M472.508,45.004c-2.762-4.781-8.879-6.422-13.66-3.66l-34.641,20c-4.785,2.762-6.422,8.875-3.66,13.66
	c2.77,4.797,8.891,6.414,13.66,3.66l34.641-20C473.629,55.903,475.27,49.785,472.508,45.004z"/>
<path fill="#FFFFFF" d="M87.789,61.344l-34.641-20c-4.781-2.762-10.898-1.121-13.66,3.66s-1.121,10.898,3.66,13.66l34.641,20
	c4.773,2.754,10.895,1.133,13.66-3.66C94.211,70.219,92.574,64.106,87.789,61.344z"/>
<path fill="#FFFFFF" d="M157.624-13.646l-24.501-31.617c-3.381-4.365-9.665-5.16-14.03-1.779c-4.365,3.381-5.16,9.665-1.779,14.03
	l24.501,31.617c3.377,4.355,9.657,5.17,14.03,1.779C160.212-3.002,161.009-9.28,157.624-13.646z"/>
<path fill="#FFFFFF" d="M363.983-13.646l24.502-31.617c3.381-4.365,9.664-5.16,14.029-1.779c4.365,3.381,5.16,9.665,1.779,14.03
	L379.792-1.396c-3.377,4.355-9.656,5.17-14.029,1.779C361.396-3.002,360.599-9.28,363.983-13.646z"/>
<path fill="#FFFFFF" d="M472.508,295c2.762-4.781,1.121-10.895-3.66-13.66l-34.641-20c-4.785-2.758-10.898-1.121-13.66,3.66
	c-2.762,4.785-1.125,10.898,3.66,13.66l34.641,20C463.621,301.418,469.738,299.793,472.508,295z"/>
<path fill="#FFFFFF" d="M264.5-43.414c0,5.574-4.029,10.093-9,10.093l0,0c-4.971,0-9-4.519-9-10.093v-35.885
	c0-5.574,4.029-10.093,9-10.093l0,0c4.971,0,9,4.519,9,10.093V-43.414z"/>
</svg>
