<svg xmlns="http://www.w3.org/2000/svg" width="266.297" height="67.296" viewBox="0 0 266.297 67.296">
  <g id="Group_15" data-name="Group 15" transform="translate(-52.656 -61.829)">
    <path id="Path_5" data-name="Path 5" d="M52.656,67.323v48.912a5.5,5.5,0,0,0,5.5,5.5H93.361v-59.9H58.151A5.5,5.5,0,0,0,52.656,67.323ZM63.649,78.461l4.529.007V89.619h2.007L77.946,78.46h5.181l-9,12.922v.075l6.262,8.6a1.884,1.884,0,0,0,1.837.862h.825v4.163H80.5a3.6,3.6,0,0,1-3.749-1.987l-6.524-9.313H68.179v11.3H63.645Zm69.364-16.632H97.8v59.9h35.209a5.5,5.5,0,0,0,5.5-5.5V67.323A5.5,5.5,0,0,0,133.014,61.829ZM127.478,105.2H109v-4.513h18.477Zm0-11.079H109V89.6h18.477Zm0-11.078H109V78.526h18.477Z" fill="#fff" fill-rule="evenodd"/>
    <path id="Path_6" data-name="Path 6" d="M187.512,70.317l-7.02,19.937h3.735l1.685-5.111H192.9l1.686,5.111h3.735L191.3,70.317Zm-.73,11.879,1.769-5.335c.393-1.124.842-3.089.842-3.089h.056s.421,1.966.787,3.089L192,82.2Zm17.354,8.059h3.622V73.434H214.3V70.317h-16.71v3.117h6.543V90.255Zm23.533,0H231.4l-7.02-19.938h-3.791l-7.021,19.937h3.735l1.686-5.111h6.992ZM219.863,82.2l1.768-5.335c.393-1.124.843-3.089.843-3.089h.056s.421,1.966.786,3.089l1.769,5.335Zm26.621,4.942h-8.621V70.317H234.24V90.254h12.244Zm5.925,3.117h3.622v-8.34l6.628-11.6h-4.1l-3.089,5.869c-.646,1.236-1.207,2.667-1.207,2.667h-.056c-.028.028-.562-1.432-1.207-2.667l-3.117-5.869h-4.1l6.627,11.6v8.34Zm18.534-3.005a7.986,7.986,0,0,1-4.971-2.106l-1.967,2.724a9.656,9.656,0,0,0,6.88,2.723c4.156,0,6.572-2.667,6.572-5.841,0-6.374-9.38-5.5-9.38-9.042,0-1.4,1.319-2.387,3-2.387a7.282,7.282,0,0,1,4.41,1.741l1.573-2.948a8.475,8.475,0,0,0-5.953-2.135c-3.819,0-6.684,2.472-6.684,5.785,0,6.121,9.407,5.5,9.407,9.07C273.835,86.464,272.459,87.25,270.943,87.25Zm14.545,3.005h3.623V73.434h6.543V70.317H278.945v3.117h6.543Zm-119.218,16.2h6.712v-3.117H166.27V98.111h8.313V94.994H162.648v19.937h12.385v-3.117h-8.762v-5.363Zm19.6-11.457h-6.8v19.937h6.8c6.151,0,10.166-3.706,10.166-10S192.021,94.994,185.871,94.994Zm-.2,16.82H182.7v-13.7h2.977c3.987,0,6.627,2.387,6.627,6.824C192.3,109.429,189.718,111.815,185.675,111.815Zm26.621-4.071c0,2.7-1.769,4.211-4.437,4.211s-4.409-1.516-4.409-4.184V94.994h-3.623v12.777c0,4.465,3.23,7.5,8.059,7.5,4.8,0,8.032-3.032,8.032-7.5V94.994H212.3Zm17.747,4.211c-4.156,0-6.712-3.341-6.712-7.132a6.5,6.5,0,0,1,6.684-6.851,8.791,8.791,0,0,1,5.448,2.105l1.741-2.7a10.316,10.316,0,0,0-7.357-2.723,10.306,10.306,0,0,0,.057,20.611,10.729,10.729,0,0,0,7.834-3.229l-1.91-2.611A8.6,8.6,0,0,1,230.043,111.955Zm15.838-16.961-7.021,19.937h3.735l1.686-5.11h6.992l1.686,5.11h3.734l-7.02-19.937Zm-.73,11.879,1.768-5.335c.393-1.124.843-3.089.843-3.089h.056s.421,1.966.786,3.089l1.769,5.335Zm10.811-8.762H262.5v16.82h3.623V98.111h6.543V94.994H255.961v3.117Zm19.629,16.82h3.623V94.994H275.59Zm17.888-20.274a10.072,10.072,0,0,0-10.306,10.165,10.307,10.307,0,1,0,20.613,0A10.073,10.073,0,0,0,293.478,94.657Zm0,17.3c-3.65,0-6.571-3.033-6.571-7.132a6.577,6.577,0,1,1,13.143,0C300.05,108.922,297.129,111.955,293.478,111.955Zm26.959-16.961v11.513c0,1.179.2,3.089.2,3.089h-.056a30.311,30.311,0,0,0-1.656-3.089l-7.554-11.513h-3.623v19.937h3.623V103.447c0-1.179-.2-3.089-.2-3.089h.055a30.2,30.2,0,0,0,1.657,3.089l7.553,11.485h3.6V94.994ZM177.4,70.305h-3.959l-5.812,8.357H166.2V70.311l-3.544-.005,0,19.935H166.2V81.779h1.465l4.885,6.974a2.7,2.7,0,0,0,2.809,1.488h1.992V87.124h-.617a1.412,1.412,0,0,1-1.377-.646l-4.688-6.44v-.056ZM98.439,130.03l2.226-1.6,2.218,1.6v-7.4H98.439Z" transform="translate(-5.079 -0.904)" fill="#fff" fill-rule="evenodd"/>
  </g>
</svg>
