<?xml version="1.0" encoding="UTF-8" standalone="no"?>
<svg xmlns="http://www.w3.org/2000/svg" xmlns:xlink="http://www.w3.org/1999/xlink" preserveAspectRatio="xMidYMid meet" viewBox="0 0 640 640" width="639" height="639"><defs><path d="M485.28 624C485.28 547.2 485.28 504.53 485.28 496C485.28 491.58 481.7 488 477.28 488C476.75 488 474.08 488 469.28 488L469.28 467.31C487.07 449.52 496.96 439.63 498.94 437.66C500.44 436.16 501.28 434.13 501.28 432C501.28 426.4 501.28 381.6 501.28 376C501.28 362.77 490.51 352 477.28 352C476.75 352 474.08 352 469.28 352C469.28 318.4 469.28 299.73 469.28 296C469.28 282.77 458.51 272 445.28 272C442.46 272 439.79 272.58 437.28 273.47C437.28 272.52 437.28 264.95 437.28 264C437.28 250.77 426.51 240 413.28 240C400.05 240 389.28 250.77 389.28 264C389.28 264.95 389.28 272.52 389.28 273.47C386.77 272.58 384.1 272 381.28 272C368.05 272 357.28 282.77 357.28 296C357.28 296.95 357.28 304.52 357.28 305.47C354.77 304.58 352.1 304 349.28 304C336.05 304 325.28 314.77 325.28 328C325.28 338.4 325.28 421.6 325.28 432C325.28 433.24 325.57 434.47 326.12 435.58C327.13 437.6 332.18 447.7 341.28 465.89L341.28 488C336.48 488 333.81 488 333.28 488C328.86 488 325.28 491.58 325.28 496C325.28 504.53 325.28 547.2 325.28 624L293.28 624C293.28 580.8 293.28 556.8 293.28 552C293.28 547.58 289.7 544 285.28 544C284.75 544 282.08 544 277.28 544L277.28 523.31C295.07 505.52 304.96 495.63 306.94 493.66C308.44 492.16 309.28 490.13 309.28 488C309.28 482.4 309.28 437.6 309.28 432C309.28 418.77 298.51 408 285.28 408C284.75 408 282.08 408 277.28 408C277.28 374.4 277.28 355.73 277.28 352C277.28 338.77 266.51 328 253.28 328C250.46 328 247.79 328.58 245.28 329.47C245.28 328.52 245.28 320.95 245.28 320C245.28 306.77 234.51 296 221.28 296C208.05 296 197.28 306.77 197.28 320C197.28 320.95 197.28 328.52 197.28 329.47C194.77 328.58 192.1 328 189.28 328C176.05 328 165.28 338.77 165.28 352C165.28 352.95 165.28 360.52 165.28 361.47C162.77 360.58 160.1 360 157.28 360C144.05 360 133.28 370.77 133.28 384C133.28 394.4 133.28 477.6 133.28 488C133.28 489.24 133.57 490.47 134.12 491.58C135.13 493.6 140.18 503.7 149.28 521.89L149.28 544C144.48 544 141.81 544 141.28 544C136.86 544 133.28 547.58 133.28 552C133.28 556.8 133.28 580.8 133.28 624L69.28 624L69.28 640L565.28 640L565.28 624L485.28 624ZM341.28 430.11C341.28 368.84 341.28 334.81 341.28 328C341.28 323.58 344.86 320 349.28 320C353.7 320 357.28 323.58 357.28 328C357.28 331.73 357.28 350.4 357.28 384L373.28 384L373.28 328C373.28 308.8 373.28 298.13 373.28 296C373.28 291.58 376.86 288 381.28 288C385.7 288 389.28 291.58 389.28 296C389.28 301.87 389.28 331.2 389.28 384L405.28 384L405.28 296C405.28 276.8 405.28 266.13 405.28 264C405.28 259.58 408.86 256 413.28 256C417.7 256 421.28 259.58 421.28 264C421.28 266.13 421.28 276.8 421.28 296L421.28 384L437.28 384C437.28 331.2 437.28 301.87 437.28 296C437.28 291.58 440.86 288 445.28 288C449.7 288 453.28 291.58 453.28 296C453.28 300.27 453.28 321.6 453.28 360C453.28 384.48 453.28 398.09 453.28 400.81C435.05 404.53 421.28 420.68 421.28 440C421.28 441.07 421.28 446.4 421.28 456L437.28 456C437.28 446.4 437.28 441.07 437.28 440C437.28 426.77 448.05 416 461.28 416C465.7 416 469.28 412.42 469.28 408C469.28 405.33 469.28 392 469.28 368C474.08 368 476.75 368 477.28 368C481.7 368 485.28 371.58 485.28 376C485.28 379.51 485.28 397.08 485.28 428.69C467.49 446.48 457.6 456.37 455.62 458.34C454.12 459.84 453.28 461.87 453.28 464C453.28 465.6 453.28 473.6 453.28 488L357.28 488C357.28 473.6 357.28 465.6 357.28 464C357.28 462.76 356.99 461.53 356.44 460.42C354.42 456.38 349.36 446.28 341.28 430.11ZM341.28 504L469.28 504L469.28 624L341.28 624L341.28 504ZM149.28 486.11C149.28 424.84 149.28 390.81 149.28 384C149.28 379.58 152.86 376 157.28 376C161.7 376 165.28 379.58 165.28 384C165.28 387.73 165.28 406.4 165.28 440L181.28 440L181.28 384C181.28 364.8 181.28 354.13 181.28 352C181.28 347.58 184.86 344 189.28 344C193.7 344 197.28 347.58 197.28 352C197.28 357.87 197.28 387.2 197.28 440L213.28 440L213.28 352C213.28 332.8 213.28 322.13 213.28 320C213.28 315.58 216.86 312 221.28 312C225.7 312 229.28 315.58 229.28 320C229.28 322.13 229.28 332.8 229.28 352L229.28 440L245.28 440C245.28 387.2 245.28 357.87 245.28 352C245.28 347.58 248.86 344 253.28 344C257.7 344 261.28 347.58 261.28 352C261.28 356.27 261.28 377.6 261.28 416C261.28 440.48 261.28 454.09 261.28 456.81C243.05 460.53 229.28 476.68 229.28 496C229.28 497.07 229.28 502.4 229.28 512L245.28 512C245.28 502.4 245.28 497.07 245.28 496C245.28 482.77 256.05 472 269.28 472C273.7 472 277.28 468.42 277.28 464C277.28 461.33 277.28 448 277.28 424C282.08 424 284.75 424 285.28 424C289.7 424 293.28 427.58 293.28 432C293.28 435.51 293.28 453.08 293.28 484.69C275.49 502.48 265.6 512.37 263.62 514.34C262.12 515.84 261.28 517.87 261.28 520C261.28 521.6 261.28 529.6 261.28 544L165.28 544C165.28 529.6 165.28 521.6 165.28 520C165.28 518.76 164.99 517.53 164.44 516.42C162.42 512.38 157.36 502.28 149.28 486.11ZM149.28 560L277.28 560L277.28 624L149.28 624L149.28 560Z" id="d9goLoZpr"></path><path d="M115.85 217.3C112.02 217.3 108.92 220.4 108.92 224.22C108.92 228.05 112.02 231.14 115.85 231.14C125.32 231.14 201.12 231.14 210.59 231.14C214.42 231.14 217.52 228.05 217.52 224.22C217.52 220.4 214.42 217.3 210.59 217.3C191.64 217.3 125.32 217.3 115.85 217.3Z" id="cQOhHLHK"></path><path d="M114.02 172.71C110.2 172.71 107.1 175.8 107.1 179.63C107.1 183.45 110.2 186.55 114.02 186.55C132.97 186.55 284.57 186.55 303.52 186.55C307.34 186.55 310.44 183.45 310.44 179.63C310.44 175.8 307.34 172.71 303.52 172.71C265.62 172.71 132.97 172.71 114.02 172.71Z" id="c9VOihU3CB"></path><path d="M297.04 41.66C293.22 41.66 290.12 44.76 290.12 48.58C290.12 52.4 293.22 55.5 297.04 55.5C315.99 55.5 467.59 55.5 486.54 55.5C490.36 55.5 493.46 52.4 493.46 48.58C493.46 44.76 490.36 41.66 486.54 41.66C448.64 41.66 315.99 41.66 297.04 41.66Z" id="b9uwcDccI"></path><path d="M114.02 129.02C110.2 129.02 107.1 132.12 107.1 135.95C107.1 139.77 110.2 142.87 114.02 142.87C132.97 142.87 284.57 142.87 303.52 142.87C307.34 142.87 310.44 139.77 310.44 135.95C310.44 132.12 307.34 129.02 303.52 129.02C265.62 129.02 132.97 129.02 114.02 129.02Z" id="a1mHRkKD9w"></path><path d="M100.03 77.42C75.39 77.42 55.35 97.46 55.35 122.09C55.35 133.32 55.35 223.18 55.35 234.41C55.35 259.05 75.39 279.09 100.03 279.09C100.13 279.09 100.65 279.09 101.59 279.09C96.22 308.89 93.24 325.45 92.64 328.76C91.79 333.45 94.05 338.13 98.25 340.4C102.5 342.69 107.63 341.94 111.05 338.69C117.17 332.88 166.18 286.36 172.3 280.55C173.29 279.61 174.59 279.09 175.96 279.09C190.11 279.09 303.33 279.09 317.48 279.09C342.12 279.09 362.16 259.05 362.16 234.41C362.16 223.18 362.16 133.32 362.16 122.09C362.16 97.46 342.12 77.42 317.48 77.42C273.99 77.42 121.77 77.42 100.03 77.42ZM348.32 234.41C348.32 251.41 334.49 265.24 317.48 265.24C303.33 265.24 190.11 265.24 175.96 265.24C171.03 265.24 166.35 267.11 162.77 270.51C159.11 273.99 140.78 291.38 107.8 322.69C112.46 296.81 115.05 282.44 115.57 279.56C116.91 272.1 111.17 265.24 103.6 265.24C103.24 265.24 100.38 265.24 100.03 265.24C83.02 265.24 69.19 251.41 69.19 234.41C69.19 223.18 69.19 133.32 69.19 122.09C69.19 105.09 83.02 91.26 100.03 91.26C121.77 91.26 295.74 91.26 317.48 91.26C334.49 91.26 348.32 105.09 348.32 122.09C348.32 144.56 348.32 211.95 348.32 234.41Z" id="c3cqLTVaC"></path><path d="M391.79 85.34C387.97 85.34 384.87 88.44 384.87 92.26C384.87 96.09 387.97 99.19 391.79 99.19C401.27 99.19 477.06 99.19 486.54 99.19C490.36 99.19 493.46 96.09 493.46 92.26C493.46 88.44 490.36 85.34 486.54 85.34C467.59 85.34 401.27 85.34 391.79 85.34Z" id="a1QeMJlKR8"></path><path d="M295.24 0C272.94 0 254.8 18.14 254.8 40.45C254.8 41.69 254.8 51.65 254.8 52.89C254.8 56.72 257.9 59.82 261.72 59.82C265.54 59.82 268.64 56.72 268.64 52.89C268.64 51.65 268.64 41.69 268.64 40.45C268.64 25.78 280.57 13.84 295.24 13.84C314.55 13.84 469.03 13.84 488.34 13.84C503.01 13.84 514.94 25.78 514.94 40.45C514.94 50.29 514.94 129.03 514.94 138.88C514.94 153.55 503.01 165.48 488.34 165.48C488.02 165.48 485.49 165.48 485.17 165.48C477.95 165.48 472.5 172.01 473.78 179.11C474.21 181.5 476.37 193.49 480.25 215.07C452 188.25 436.3 173.35 433.16 170.37C429.84 167.21 425.49 165.48 420.91 165.48C417.67 165.48 391.76 165.48 388.52 165.48C384.7 165.48 381.6 168.58 381.6 172.4C381.6 176.22 384.7 179.32 388.52 179.32C391.76 179.32 417.67 179.32 420.91 179.32C421.93 179.32 422.89 179.71 423.63 180.41C429.07 185.57 472.58 226.87 478.02 232.04C481.32 235.18 486.26 235.85 490.29 233.67C494.31 231.5 496.47 227.01 495.66 222.52C495.14 219.64 492.55 205.24 487.88 179.32C488.16 179.32 488.31 179.32 488.34 179.32C510.64 179.32 528.79 161.18 528.79 138.88C528.79 129.03 528.79 50.29 528.79 40.45C528.79 18.14 510.64 0 488.34 0C449.72 0 314.55 0 295.24 0Z" id="ftk8EQXIl"></path></defs><g><g><g><use xlink:href="#d9goLoZpr" opacity="1" fill="#262626" fill-opacity="1"></use><g><use xlink:href="#d9goLoZpr" opacity="1" fill-opacity="0" stroke="#262626" stroke-width="1" stroke-opacity="0"></use></g></g><g><use xlink:href="#cQOhHLHK" opacity="1" fill="#262626" fill-opacity="1"></use><g><use xlink:href="#cQOhHLHK" opacity="1" fill-opacity="0" stroke="#262626" stroke-width="1" stroke-opacity="0"></use></g></g><g><use xlink:href="#c9VOihU3CB" opacity="1" fill="#262626" fill-opacity="1"></use><g><use xlink:href="#c9VOihU3CB" opacity="1" fill-opacity="0" stroke="#262626" stroke-width="1" stroke-opacity="0"></use></g></g><g><use xlink:href="#b9uwcDccI" opacity="1" fill="#262626" fill-opacity="1"></use><g><use xlink:href="#b9uwcDccI" opacity="1" fill-opacity="0" stroke="#262626" stroke-width="1" stroke-opacity="0"></use></g></g><g><use xlink:href="#a1mHRkKD9w" opacity="1" fill="#262626" fill-opacity="1"></use><g><use xlink:href="#a1mHRkKD9w" opacity="1" fill-opacity="0" stroke="#262626" stroke-width="1" stroke-opacity="0"></use></g></g><g><use xlink:href="#c3cqLTVaC" opacity="1" fill="#262626" fill-opacity="1"></use><g><use xlink:href="#c3cqLTVaC" opacity="1" fill-opacity="0" stroke="#262626" stroke-width="1" stroke-opacity="0"></use></g></g><g><use xlink:href="#a1QeMJlKR8" opacity="1" fill="#262626" fill-opacity="1"></use><g><use xlink:href="#a1QeMJlKR8" opacity="1" fill-opacity="0" stroke="#262626" stroke-width="1" stroke-opacity="0"></use></g></g><g><use xlink:href="#ftk8EQXIl" opacity="1" fill="#262626" fill-opacity="1"></use><g><use xlink:href="#ftk8EQXIl" opacity="1" fill-opacity="0" stroke="#262626" stroke-width="1" stroke-opacity="0"></use></g></g></g></g></svg>